<?xml version="1.0" encoding="UTF-8" standalone="no"?>
<!DOCTYPE svg PUBLIC "-//W3C//DTD SVG 1.1//EN"
 "http://www.w3.org/Graphics/SVG/1.1/DTD/svg11.dtd">
<!-- Generated by graphviz version 2.38.0 (20140413.2041)
 -->
<!-- Title: controllers_diagram Pages: 1 -->
<svg width="838pt" height="795pt"
 viewBox="0.00 0.00 837.59 795.00" xmlns="http://www.w3.org/2000/svg" xmlns:xlink="http://www.w3.org/1999/xlink">
<g id="graph0" class="graph" transform="scale(1 1) rotate(0) translate(327.707 449.5)">
<title>controllers_diagram</title>
<polygon fill="white" stroke="none" points="-327.707,345.5 -327.707,-449.5 509.886,-449.5 509.886,345.5 -327.707,345.5"/>
<!-- _diagram_info -->
<g id="node1" class="node"><title>_diagram_info</title>
<text text-anchor="start" x="-315.688" y="48.9" font-family="Times,serif" font-size="13.00">Controllers diagram</text>
<text text-anchor="start" x="-315.688" y="61.9" font-family="Times,serif" font-size="13.00">Date: Jun 23 2015 &#45; 16:23</text>
<text text-anchor="start" x="-315.688" y="74.9" font-family="Times,serif" font-size="13.00">Migration version: 20150623144500</text>
<text text-anchor="start" x="-315.688" y="87.9" font-family="Times,serif" font-size="13.00">Generated by RailRoady 1.3.0</text>
<text text-anchor="start" x="-315.688" y="100.9" font-family="Times,serif" font-size="13.00">http://railroady.prestonlee.com</text>
</g>
<!-- Api::V1::AssetsController -->
<g id="node2" class="node"><title>Api::V1::AssetsController</title>
<path fill="none" stroke="black" d="M354.114,341C354.114,341 493.886,341 493.886,341 499.886,341 505.886,335 505.886,329 505.886,329 505.886,233 505.886,233 505.886,227 499.886,221 493.886,221 493.886,221 354.114,221 354.114,221 348.114,221 342.114,227 342.114,233 342.114,233 342.114,329 342.114,329 342.114,335 348.114,341 354.114,341"/>
<text text-anchor="middle" x="424" y="236.2" font-family="Times,serif" font-size="14.00">Api::V1::AssetsController</text>
<polyline fill="none" stroke="black" points="342.114,243 505.886,243 "/>
<polyline fill="none" stroke="black" points="342.114,267 505.886,267 "/>
<polyline fill="none" stroke="black" points="342.114,291 505.886,291 "/>
<text text-anchor="start" x="350.114" y="306.2" font-family="Times,serif" font-size="14.00">_layout</text>
<text text-anchor="start" x="350.114" y="320.2" font-family="Times,serif" font-size="14.00">asset_params</text>
<text text-anchor="start" x="350.114" y="334.2" font-family="Times,serif" font-size="14.00">query_params</text>
</g>
<!-- Api::V1::BaseController -->
<g id="node3" class="node"><title>Api::V1::BaseController</title>
<path fill="none" stroke="black" d="M-78.2139,125C-78.2139,125 52.2139,125 52.2139,125 58.2139,125 64.2139,119 64.2139,113 64.2139,113 64.2139,-107 64.2139,-107 64.2139,-113 58.2139,-119 52.2139,-119 52.2139,-119 -78.2139,-119 -78.2139,-119 -84.2139,-119 -90.2139,-113 -90.2139,-107 -90.2139,-107 -90.2139,113 -90.2139,113 -90.2139,119 -84.2139,125 -78.2139,125"/>
<text text-anchor="middle" x="-13" y="-103.8" font-family="Times,serif" font-size="14.00">Api::V1::BaseController</text>
<polyline fill="none" stroke="black" points="-90.2139,-97 64.2139,-97 "/>
<text text-anchor="start" x="-82.2139" y="-81.8" font-family="Times,serif" font-size="14.00">create</text>
<text text-anchor="start" x="-82.2139" y="-67.8" font-family="Times,serif" font-size="14.00">destroy</text>
<text text-anchor="start" x="-82.2139" y="-53.8" font-family="Times,serif" font-size="14.00">index</text>
<text text-anchor="start" x="-82.2139" y="-39.8" font-family="Times,serif" font-size="14.00">show</text>
<text text-anchor="start" x="-82.2139" y="-25.8" font-family="Times,serif" font-size="14.00">update</text>
<polyline fill="none" stroke="black" points="-90.2139,-19 64.2139,-19 "/>
<polyline fill="none" stroke="black" points="-90.2139,5 64.2139,5 "/>
<text text-anchor="start" x="-82.2139" y="20.2" font-family="Times,serif" font-size="14.00">_layout</text>
<text text-anchor="start" x="-82.2139" y="34.2" font-family="Times,serif" font-size="14.00">get_resource</text>
<text text-anchor="start" x="-82.2139" y="48.2" font-family="Times,serif" font-size="14.00">page_params</text>
<text text-anchor="start" x="-82.2139" y="62.2" font-family="Times,serif" font-size="14.00">query_params</text>
<text text-anchor="start" x="-82.2139" y="76.2" font-family="Times,serif" font-size="14.00">resource_class</text>
<text text-anchor="start" x="-82.2139" y="90.2" font-family="Times,serif" font-size="14.00">resource_name</text>
<text text-anchor="start" x="-82.2139" y="104.2" font-family="Times,serif" font-size="14.00">resource_params</text>
<text text-anchor="start" x="-82.2139" y="118.2" font-family="Times,serif" font-size="14.00">set_resource</text>
</g>
<!-- Api::V1::CabletypesController -->
<g id="node4" class="node"><title>Api::V1::CabletypesController</title>
<path fill="none" stroke="black" d="M228.29,-217C228.29,-217 393.71,-217 393.71,-217 399.71,-217 405.71,-223 405.71,-229 405.71,-229 405.71,-325 405.71,-325 405.71,-331 399.71,-337 393.71,-337 393.71,-337 228.29,-337 228.29,-337 222.29,-337 216.29,-331 216.29,-325 216.29,-325 216.29,-229 216.29,-229 216.29,-223 222.29,-217 228.29,-217"/>
<text text-anchor="middle" x="311" y="-321.8" font-family="Times,serif" font-size="14.00">Api::V1::CabletypesController</text>
<polyline fill="none" stroke="black" points="216.29,-315 405.71,-315 "/>
<polyline fill="none" stroke="black" points="216.29,-291 405.71,-291 "/>
<polyline fill="none" stroke="black" points="216.29,-267 405.71,-267 "/>
<text text-anchor="start" x="224.29" y="-251.8" font-family="Times,serif" font-size="14.00">_layout</text>
<text text-anchor="start" x="224.29" y="-237.8" font-family="Times,serif" font-size="14.00">cabletype_params</text>
<text text-anchor="start" x="224.29" y="-223.8" font-family="Times,serif" font-size="14.00">query_params</text>
</g>
<!-- Api::V1::ConnectionsController -->
<g id="node5" class="node"><title>Api::V1::ConnectionsController</title>
<path fill="none" stroke="black" d="M120.396,-55C120.396,-55 293.604,-55 293.604,-55 299.604,-55 305.604,-61 305.604,-67 305.604,-67 305.604,-163 305.604,-163 305.604,-169 299.604,-175 293.604,-175 293.604,-175 120.396,-175 120.396,-175 114.396,-175 108.396,-169 108.396,-163 108.396,-163 108.396,-67 108.396,-67 108.396,-61 114.396,-55 120.396,-55"/>
<text text-anchor="middle" x="207" y="-159.8" font-family="Times,serif" font-size="14.00">Api::V1::ConnectionsController</text>
<polyline fill="none" stroke="black" points="108.396,-153 305.604,-153 "/>
<polyline fill="none" stroke="black" points="108.396,-129 305.604,-129 "/>
<polyline fill="none" stroke="black" points="108.396,-105 305.604,-105 "/>
<text text-anchor="start" x="116.396" y="-89.8" font-family="Times,serif" font-size="14.00">_layout</text>
<text text-anchor="start" x="116.396" y="-75.8" font-family="Times,serif" font-size="14.00">connection_params</text>
<text text-anchor="start" x="116.396" y="-61.8" font-family="Times,serif" font-size="14.00">query_params</text>
</g>
<!-- Api::V1::ConnectortypesController -->
<g id="node6" class="node"><title>Api::V1::ConnectortypesController</title>
<path fill="none" stroke="black" d="M120.458,107C120.458,107 311.542,107 311.542,107 317.542,107 323.542,101 323.542,95 323.542,95 323.542,-1 323.542,-1 323.542,-7 317.542,-13 311.542,-13 311.542,-13 120.458,-13 120.458,-13 114.458,-13 108.458,-7 108.458,-1 108.458,-1 108.458,95 108.458,95 108.458,101 114.458,107 120.458,107"/>
<text text-anchor="middle" x="216" y="2.2" font-family="Times,serif" font-size="14.00">Api::V1::ConnectortypesController</text>
<polyline fill="none" stroke="black" points="108.458,9 323.542,9 "/>
<polyline fill="none" stroke="black" points="108.458,33 323.542,33 "/>
<polyline fill="none" stroke="black" points="108.458,57 323.542,57 "/>
<text text-anchor="start" x="116.458" y="72.2" font-family="Times,serif" font-size="14.00">_layout</text>
<text text-anchor="start" x="116.458" y="86.2" font-family="Times,serif" font-size="14.00">connectortype_params</text>
<text text-anchor="start" x="116.458" y="100.2" font-family="Times,serif" font-size="14.00">query_params</text>
</g>
<!-- Api::V1::DevicesController -->
<g id="node7" class="node"><title>Api::V1::DevicesController</title>
<path fill="none" stroke="black" d="M-222.152,-325C-222.152,-325 -73.8481,-325 -73.8481,-325 -67.8481,-325 -61.8481,-331 -61.8481,-337 -61.8481,-337 -61.8481,-433 -61.8481,-433 -61.8481,-439 -67.8481,-445 -73.8481,-445 -73.8481,-445 -222.152,-445 -222.152,-445 -228.152,-445 -234.152,-439 -234.152,-433 -234.152,-433 -234.152,-337 -234.152,-337 -234.152,-331 -228.152,-325 -222.152,-325"/>
<text text-anchor="middle" x="-148" y="-429.8" font-family="Times,serif" font-size="14.00">Api::V1::DevicesController</text>
<polyline fill="none" stroke="black" points="-234.152,-423 -61.8481,-423 "/>
<polyline fill="none" stroke="black" points="-234.152,-399 -61.8481,-399 "/>
<polyline fill="none" stroke="black" points="-234.152,-375 -61.8481,-375 "/>
<text text-anchor="start" x="-226.152" y="-359.8" font-family="Times,serif" font-size="14.00">_layout</text>
<text text-anchor="start" x="-226.152" y="-345.8" font-family="Times,serif" font-size="14.00">device_params</text>
<text text-anchor="start" x="-226.152" y="-331.8" font-family="Times,serif" font-size="14.00">query_params</text>
</g>
<!-- Api::V1::DevicetypesController -->
<g id="node8" class="node"><title>Api::V1::DevicetypesController</title>
<path fill="none" stroke="black" d="M119.796,269C119.796,269 292.204,269 292.204,269 298.204,269 304.204,263 304.204,257 304.204,257 304.204,161 304.204,161 304.204,155 298.204,149 292.204,149 292.204,149 119.796,149 119.796,149 113.796,149 107.796,155 107.796,161 107.796,161 107.796,257 107.796,257 107.796,263 113.796,269 119.796,269"/>
<text text-anchor="middle" x="206" y="164.2" font-family="Times,serif" font-size="14.00">Api::V1::DevicetypesController</text>
<polyline fill="none" stroke="black" points="107.796,171 304.204,171 "/>
<polyline fill="none" stroke="black" points="107.796,195 304.204,195 "/>
<polyline fill="none" stroke="black" points="107.796,219 304.204,219 "/>
<text text-anchor="start" x="115.796" y="234.2" font-family="Times,serif" font-size="14.00">_layout</text>
<text text-anchor="start" x="115.796" y="248.2" font-family="Times,serif" font-size="14.00">devicetype_params</text>
<text text-anchor="start" x="115.796" y="262.2" font-family="Times,serif" font-size="14.00">query_params</text>
</g>
<!-- Api::V1::InterfacesController -->
<g id="node9" class="node"><title>Api::V1::InterfacesController</title>
<path fill="none" stroke="black" d="M-276.197,287C-276.197,287 -117.803,287 -117.803,287 -111.803,287 -105.803,281 -105.803,275 -105.803,275 -105.803,179 -105.803,179 -105.803,173 -111.803,167 -117.803,167 -117.803,167 -276.197,167 -276.197,167 -282.197,167 -288.197,173 -288.197,179 -288.197,179 -288.197,275 -288.197,275 -288.197,281 -282.197,287 -276.197,287"/>
<text text-anchor="middle" x="-197" y="182.2" font-family="Times,serif" font-size="14.00">Api::V1::InterfacesController</text>
<polyline fill="none" stroke="black" points="-288.197,189 -105.803,189 "/>
<polyline fill="none" stroke="black" points="-288.197,213 -105.803,213 "/>
<polyline fill="none" stroke="black" points="-288.197,237 -105.803,237 "/>
<text text-anchor="start" x="-280.197" y="252.2" font-family="Times,serif" font-size="14.00">_layout</text>
<text text-anchor="start" x="-280.197" y="266.2" font-family="Times,serif" font-size="14.00">port_params</text>
<text text-anchor="start" x="-280.197" y="280.2" font-family="Times,serif" font-size="14.00">query_params</text>
</g>
<!-- Api::V1::IpaddressesController -->
<g id="node10" class="node"><title>Api::V1::IpaddressesController</title>
<path fill="none" stroke="black" d="M-6.26221,-325C-6.26221,-325 162.262,-325 162.262,-325 168.262,-325 174.262,-331 174.262,-337 174.262,-337 174.262,-433 174.262,-433 174.262,-439 168.262,-445 162.262,-445 162.262,-445 -6.26221,-445 -6.26221,-445 -12.2622,-445 -18.2622,-439 -18.2622,-433 -18.2622,-433 -18.2622,-337 -18.2622,-337 -18.2622,-331 -12.2622,-325 -6.26221,-325"/>
<text text-anchor="middle" x="78" y="-429.8" font-family="Times,serif" font-size="14.00">Api::V1::IpaddressesController</text>
<polyline fill="none" stroke="black" points="-18.2622,-423 174.262,-423 "/>
<polyline fill="none" stroke="black" points="-18.2622,-399 174.262,-399 "/>
<polyline fill="none" stroke="black" points="-18.2622,-375 174.262,-375 "/>
<text text-anchor="start" x="-10.2622" y="-359.8" font-family="Times,serif" font-size="14.00">_layout</text>
<text text-anchor="start" x="-10.2622" y="-345.8" font-family="Times,serif" font-size="14.00">ipaddress_params</text>
<text text-anchor="start" x="-10.2622" y="-331.8" font-family="Times,serif" font-size="14.00">query_params</text>
</g>
<!-- Api::V1::IprangesController -->
<g id="node11" class="node"><title>Api::V1::IprangesController</title>
<path fill="none" stroke="black" d="M-311.707,-163C-311.707,-163 -160.293,-163 -160.293,-163 -154.293,-163 -148.293,-169 -148.293,-175 -148.293,-175 -148.293,-271 -148.293,-271 -148.293,-277 -154.293,-283 -160.293,-283 -160.293,-283 -311.707,-283 -311.707,-283 -317.707,-283 -323.707,-277 -323.707,-271 -323.707,-271 -323.707,-175 -323.707,-175 -323.707,-169 -317.707,-163 -311.707,-163"/>
<text text-anchor="middle" x="-236" y="-267.8" font-family="Times,serif" font-size="14.00">Api::V1::IprangesController</text>
<polyline fill="none" stroke="black" points="-323.707,-261 -148.293,-261 "/>
<polyline fill="none" stroke="black" points="-323.707,-237 -148.293,-237 "/>
<polyline fill="none" stroke="black" points="-323.707,-213 -148.293,-213 "/>
<text text-anchor="start" x="-315.707" y="-197.8" font-family="Times,serif" font-size="14.00">_layout</text>
<text text-anchor="start" x="-315.707" y="-183.8" font-family="Times,serif" font-size="14.00">iprange_params</text>
<text text-anchor="start" x="-315.707" y="-169.8" font-family="Times,serif" font-size="14.00">query_params</text>
</g>
<!-- Api::V1::LocationsController -->
<g id="node12" class="node"><title>Api::V1::LocationsController</title>
<path fill="none" stroke="black" d="M-96.2104,-163C-96.2104,-163 62.2104,-163 62.2104,-163 68.2104,-163 74.2104,-169 74.2104,-175 74.2104,-175 74.2104,-271 74.2104,-271 74.2104,-277 68.2104,-283 62.2104,-283 62.2104,-283 -96.2104,-283 -96.2104,-283 -102.21,-283 -108.21,-277 -108.21,-271 -108.21,-271 -108.21,-175 -108.21,-175 -108.21,-169 -102.21,-163 -96.2104,-163"/>
<text text-anchor="middle" x="-17" y="-267.8" font-family="Times,serif" font-size="14.00">Api::V1::LocationsController</text>
<polyline fill="none" stroke="black" points="-108.21,-261 74.2104,-261 "/>
<polyline fill="none" stroke="black" points="-108.21,-237 74.2104,-237 "/>
<polyline fill="none" stroke="black" points="-108.21,-213 74.2104,-213 "/>
<text text-anchor="start" x="-100.21" y="-197.8" font-family="Times,serif" font-size="14.00">_layout</text>
<text text-anchor="start" x="-100.21" y="-183.8" font-family="Times,serif" font-size="14.00">location_params</text>
<text text-anchor="start" x="-100.21" y="-169.8" font-family="Times,serif" font-size="14.00">query_params</text>
</g>
<!-- Api::V1::PortsController -->
<g id="node13" class="node"><title>Api::V1::PortsController</title>
<path fill="none" stroke="black" d="M354,-55C354,-55 486,-55 486,-55 492,-55 498,-61 498,-67 498,-67 498,-163 498,-163 498,-169 492,-175 486,-175 486,-175 354,-175 354,-175 348,-175 342,-169 342,-163 342,-163 342,-67 342,-67 342,-61 348,-55 354,-55"/>
<text text-anchor="middle" x="420" y="-159.8" font-family="Times,serif" font-size="14.00">Api::V1::PortsController</text>
<polyline fill="none" stroke="black" points="342,-153 498,-153 "/>
<polyline fill="none" stroke="black" points="342,-129 498,-129 "/>
<polyline fill="none" stroke="black" points="342,-105 498,-105 "/>
<text text-anchor="start" x="350" y="-89.8" font-family="Times,serif" font-size="14.00">_layout</text>
<text text-anchor="start" x="350" y="-75.8" font-family="Times,serif" font-size="14.00">port_params</text>
<text text-anchor="start" x="350" y="-61.8" font-family="Times,serif" font-size="14.00">query_params</text>
</g>
<!-- Api::V1::PorttypesController -->
<g id="node14" class="node"><title>Api::V1::PorttypesController</title>
<path fill="none" stroke="black" d="M-294.052,-1C-294.052,-1 -137.948,-1 -137.948,-1 -131.948,-1 -125.948,-7 -125.948,-13 -125.948,-13 -125.948,-109 -125.948,-109 -125.948,-115 -131.948,-121 -137.948,-121 -137.948,-121 -294.052,-121 -294.052,-121 -300.052,-121 -306.052,-115 -306.052,-109 -306.052,-109 -306.052,-13 -306.052,-13 -306.052,-7 -300.052,-1 -294.052,-1"/>
<text text-anchor="middle" x="-216" y="-105.8" font-family="Times,serif" font-size="14.00">Api::V1::PorttypesController</text>
<polyline fill="none" stroke="black" points="-306.052,-99 -125.948,-99 "/>
<polyline fill="none" stroke="black" points="-306.052,-75 -125.948,-75 "/>
<polyline fill="none" stroke="black" points="-306.052,-51 -125.948,-51 "/>
<text text-anchor="start" x="-298.052" y="-35.8" font-family="Times,serif" font-size="14.00">_layout</text>
<text text-anchor="start" x="-298.052" y="-21.8" font-family="Times,serif" font-size="14.00">porttype_params</text>
<text text-anchor="start" x="-298.052" y="-7.8" font-family="Times,serif" font-size="14.00">query_params</text>
</g>
<!-- ApplicationController -->
<g id="node15" class="node"><title>ApplicationController</title>
<path fill="none" stroke="black" d="M-59.8208,251C-59.8208,251 55.8208,251 55.8208,251 61.8208,251 67.8208,245 67.8208,239 67.8208,239 67.8208,171 67.8208,171 67.8208,165 61.8208,159 55.8208,159 55.8208,159 -59.8208,159 -59.8208,159 -65.8208,159 -71.8208,165 -71.8208,171 -71.8208,171 -71.8208,239 -71.8208,239 -71.8208,245 -65.8208,251 -59.8208,251"/>
<text text-anchor="middle" x="-2" y="174.2" font-family="Times,serif" font-size="14.00">ApplicationController</text>
<polyline fill="none" stroke="black" points="-71.8208,181 67.8208,181 "/>
<polyline fill="none" stroke="black" points="-71.8208,205 67.8208,205 "/>
<polyline fill="none" stroke="black" points="-71.8208,229 67.8208,229 "/>
<text text-anchor="start" x="-63.8208" y="244.2" font-family="Times,serif" font-size="14.00">_layout</text>
</g>
</g>
</svg>
