<?xml version="1.0" encoding="UTF-8" standalone="no"?>
<!DOCTYPE svg PUBLIC "-//W3C//DTD SVG 1.1//EN"
 "http://www.w3.org/Graphics/SVG/1.1/DTD/svg11.dtd">
<!-- Generated by graphviz version 2.38.0 (20140413.2041)
 -->
<!-- Title: controllers_diagram Pages: 1 -->
<svg width="856pt" height="821pt"
 viewBox="0.00 0.00 855.94 821.00" xmlns="http://www.w3.org/2000/svg" xmlns:xlink="http://www.w3.org/1999/xlink">
<g id="graph0" class="graph" transform="scale(1 1) rotate(0) translate(328.052 475.5)">
<title>controllers_diagram</title>
<polygon fill="white" stroke="none" points="-328.052,345.5 -328.052,-475.5 527.886,-475.5 527.886,345.5 -328.052,345.5"/>
<!-- _diagram_info -->
<g id="node1" class="node"><title>_diagram_info</title>
<text text-anchor="start" x="-315.688" y="48.9" font-family="Times,serif" font-size="13.00">Controllers diagram</text>
<text text-anchor="start" x="-315.688" y="61.9" font-family="Times,serif" font-size="13.00">Date: Jun 24 2015 &#45; 01:19</text>
<text text-anchor="start" x="-315.688" y="74.9" font-family="Times,serif" font-size="13.00">Migration version: 20150623183346</text>
<text text-anchor="start" x="-315.688" y="87.9" font-family="Times,serif" font-size="13.00">Generated by RailRoady 1.3.0</text>
<text text-anchor="start" x="-315.688" y="100.9" font-family="Times,serif" font-size="13.00">http://railroady.prestonlee.com</text>
</g>
<!-- Api::V1::AssetsController -->
<g id="node2" class="node"><title>Api::V1::AssetsController</title>
<path fill="none" stroke="black" d="M372.114,179C372.114,179 511.886,179 511.886,179 517.886,179 523.886,173 523.886,167 523.886,167 523.886,71 523.886,71 523.886,65 517.886,59 511.886,59 511.886,59 372.114,59 372.114,59 366.114,59 360.114,65 360.114,71 360.114,71 360.114,167 360.114,167 360.114,173 366.114,179 372.114,179"/>
<text text-anchor="middle" x="442" y="74.2" font-family="Times,serif" font-size="14.00">Api::V1::AssetsController</text>
<polyline fill="none" stroke="black" points="360.114,81 523.886,81 "/>
<polyline fill="none" stroke="black" points="360.114,105 523.886,105 "/>
<polyline fill="none" stroke="black" points="360.114,129 523.886,129 "/>
<text text-anchor="start" x="368.114" y="144.2" font-family="Times,serif" font-size="14.00">_layout</text>
<text text-anchor="start" x="368.114" y="158.2" font-family="Times,serif" font-size="14.00">asset_params</text>
<text text-anchor="start" x="368.114" y="172.2" font-family="Times,serif" font-size="14.00">query_params</text>
</g>
<!-- Api::V1::BaseController -->
<g id="node3" class="node"><title>Api::V1::BaseController</title>
<path fill="none" stroke="black" d="M-78.2139,125C-78.2139,125 52.2139,125 52.2139,125 58.2139,125 64.2139,119 64.2139,113 64.2139,113 64.2139,-107 64.2139,-107 64.2139,-113 58.2139,-119 52.2139,-119 52.2139,-119 -78.2139,-119 -78.2139,-119 -84.2139,-119 -90.2139,-113 -90.2139,-107 -90.2139,-107 -90.2139,113 -90.2139,113 -90.2139,119 -84.2139,125 -78.2139,125"/>
<text text-anchor="middle" x="-13" y="-103.8" font-family="Times,serif" font-size="14.00">Api::V1::BaseController</text>
<polyline fill="none" stroke="black" points="-90.2139,-97 64.2139,-97 "/>
<text text-anchor="start" x="-82.2139" y="-81.8" font-family="Times,serif" font-size="14.00">create</text>
<text text-anchor="start" x="-82.2139" y="-67.8" font-family="Times,serif" font-size="14.00">destroy</text>
<text text-anchor="start" x="-82.2139" y="-53.8" font-family="Times,serif" font-size="14.00">index</text>
<text text-anchor="start" x="-82.2139" y="-39.8" font-family="Times,serif" font-size="14.00">show</text>
<text text-anchor="start" x="-82.2139" y="-25.8" font-family="Times,serif" font-size="14.00">update</text>
<polyline fill="none" stroke="black" points="-90.2139,-19 64.2139,-19 "/>
<polyline fill="none" stroke="black" points="-90.2139,5 64.2139,5 "/>
<text text-anchor="start" x="-82.2139" y="20.2" font-family="Times,serif" font-size="14.00">_layout</text>
<text text-anchor="start" x="-82.2139" y="34.2" font-family="Times,serif" font-size="14.00">get_resource</text>
<text text-anchor="start" x="-82.2139" y="48.2" font-family="Times,serif" font-size="14.00">page_params</text>
<text text-anchor="start" x="-82.2139" y="62.2" font-family="Times,serif" font-size="14.00">query_params</text>
<text text-anchor="start" x="-82.2139" y="76.2" font-family="Times,serif" font-size="14.00">resource_class</text>
<text text-anchor="start" x="-82.2139" y="90.2" font-family="Times,serif" font-size="14.00">resource_name</text>
<text text-anchor="start" x="-82.2139" y="104.2" font-family="Times,serif" font-size="14.00">resource_params</text>
<text text-anchor="start" x="-82.2139" y="118.2" font-family="Times,serif" font-size="14.00">set_resource</text>
</g>
<!-- Api::V1::CabletypesController -->
<g id="node4" class="node"><title>Api::V1::CabletypesController</title>
<path fill="none" stroke="black" d="M228.29,-217C228.29,-217 393.71,-217 393.71,-217 399.71,-217 405.71,-223 405.71,-229 405.71,-229 405.71,-325 405.71,-325 405.71,-331 399.71,-337 393.71,-337 393.71,-337 228.29,-337 228.29,-337 222.29,-337 216.29,-331 216.29,-325 216.29,-325 216.29,-229 216.29,-229 216.29,-223 222.29,-217 228.29,-217"/>
<text text-anchor="middle" x="311" y="-321.8" font-family="Times,serif" font-size="14.00">Api::V1::CabletypesController</text>
<polyline fill="none" stroke="black" points="216.29,-315 405.71,-315 "/>
<polyline fill="none" stroke="black" points="216.29,-291 405.71,-291 "/>
<polyline fill="none" stroke="black" points="216.29,-267 405.71,-267 "/>
<text text-anchor="start" x="224.29" y="-251.8" font-family="Times,serif" font-size="14.00">_layout</text>
<text text-anchor="start" x="224.29" y="-237.8" font-family="Times,serif" font-size="14.00">cabletype_params</text>
<text text-anchor="start" x="224.29" y="-223.8" font-family="Times,serif" font-size="14.00">query_params</text>
</g>
<!-- Api::V1::ConnectionsController -->
<g id="node5" class="node"><title>Api::V1::ConnectionsController</title>
<path fill="none" stroke="black" d="M120.396,269C120.396,269 293.604,269 293.604,269 299.604,269 305.604,263 305.604,257 305.604,257 305.604,161 305.604,161 305.604,155 299.604,149 293.604,149 293.604,149 120.396,149 120.396,149 114.396,149 108.396,155 108.396,161 108.396,161 108.396,257 108.396,257 108.396,263 114.396,269 120.396,269"/>
<text text-anchor="middle" x="207" y="164.2" font-family="Times,serif" font-size="14.00">Api::V1::ConnectionsController</text>
<polyline fill="none" stroke="black" points="108.396,171 305.604,171 "/>
<polyline fill="none" stroke="black" points="108.396,195 305.604,195 "/>
<polyline fill="none" stroke="black" points="108.396,219 305.604,219 "/>
<text text-anchor="start" x="116.396" y="234.2" font-family="Times,serif" font-size="14.00">_layout</text>
<text text-anchor="start" x="116.396" y="248.2" font-family="Times,serif" font-size="14.00">connection_params</text>
<text text-anchor="start" x="116.396" y="262.2" font-family="Times,serif" font-size="14.00">query_params</text>
</g>
<!-- Api::V1::ConnectortypesController -->
<g id="node6" class="node"><title>Api::V1::ConnectortypesController</title>
<path fill="none" stroke="black" d="M120.458,-55C120.458,-55 311.542,-55 311.542,-55 317.542,-55 323.542,-61 323.542,-67 323.542,-67 323.542,-163 323.542,-163 323.542,-169 317.542,-175 311.542,-175 311.542,-175 120.458,-175 120.458,-175 114.458,-175 108.458,-169 108.458,-163 108.458,-163 108.458,-67 108.458,-67 108.458,-61 114.458,-55 120.458,-55"/>
<text text-anchor="middle" x="216" y="-159.8" font-family="Times,serif" font-size="14.00">Api::V1::ConnectortypesController</text>
<polyline fill="none" stroke="black" points="108.458,-153 323.542,-153 "/>
<polyline fill="none" stroke="black" points="108.458,-129 323.542,-129 "/>
<polyline fill="none" stroke="black" points="108.458,-105 323.542,-105 "/>
<text text-anchor="start" x="116.458" y="-89.8" font-family="Times,serif" font-size="14.00">_layout</text>
<text text-anchor="start" x="116.458" y="-75.8" font-family="Times,serif" font-size="14.00">connectortype_params</text>
<text text-anchor="start" x="116.458" y="-61.8" font-family="Times,serif" font-size="14.00">query_params</text>
</g>
<!-- Api::V1::DevicesController -->
<g id="node7" class="node"><title>Api::V1::DevicesController</title>
<path fill="none" stroke="black" d="M-222.152,-325C-222.152,-325 -73.8481,-325 -73.8481,-325 -67.8481,-325 -61.8481,-331 -61.8481,-337 -61.8481,-337 -61.8481,-433 -61.8481,-433 -61.8481,-439 -67.8481,-445 -73.8481,-445 -73.8481,-445 -222.152,-445 -222.152,-445 -228.152,-445 -234.152,-439 -234.152,-433 -234.152,-433 -234.152,-337 -234.152,-337 -234.152,-331 -228.152,-325 -222.152,-325"/>
<text text-anchor="middle" x="-148" y="-429.8" font-family="Times,serif" font-size="14.00">Api::V1::DevicesController</text>
<polyline fill="none" stroke="black" points="-234.152,-423 -61.8481,-423 "/>
<polyline fill="none" stroke="black" points="-234.152,-399 -61.8481,-399 "/>
<polyline fill="none" stroke="black" points="-234.152,-375 -61.8481,-375 "/>
<text text-anchor="start" x="-226.152" y="-359.8" font-family="Times,serif" font-size="14.00">_layout</text>
<text text-anchor="start" x="-226.152" y="-345.8" font-family="Times,serif" font-size="14.00">device_params</text>
<text text-anchor="start" x="-226.152" y="-331.8" font-family="Times,serif" font-size="14.00">query_params</text>
</g>
<!-- Api::V1::DevicetypesController -->
<g id="node8" class="node"><title>Api::V1::DevicetypesController</title>
<path fill="none" stroke="black" d="M-276.204,287C-276.204,287 -103.796,287 -103.796,287 -97.7964,287 -91.7964,281 -91.7964,275 -91.7964,275 -91.7964,179 -91.7964,179 -91.7964,173 -97.7964,167 -103.796,167 -103.796,167 -276.204,167 -276.204,167 -282.204,167 -288.204,173 -288.204,179 -288.204,179 -288.204,275 -288.204,275 -288.204,281 -282.204,287 -276.204,287"/>
<text text-anchor="middle" x="-190" y="182.2" font-family="Times,serif" font-size="14.00">Api::V1::DevicetypesController</text>
<polyline fill="none" stroke="black" points="-288.204,189 -91.7964,189 "/>
<polyline fill="none" stroke="black" points="-288.204,213 -91.7964,213 "/>
<polyline fill="none" stroke="black" points="-288.204,237 -91.7964,237 "/>
<text text-anchor="start" x="-280.204" y="252.2" font-family="Times,serif" font-size="14.00">_layout</text>
<text text-anchor="start" x="-280.204" y="266.2" font-family="Times,serif" font-size="14.00">devicetype_params</text>
<text text-anchor="start" x="-280.204" y="280.2" font-family="Times,serif" font-size="14.00">query_params</text>
</g>
<!-- Api::V1::InterfacesController -->
<g id="node9" class="node"><title>Api::V1::InterfacesController</title>
<path fill="none" stroke="black" d="M-294.197,-1C-294.197,-1 -135.803,-1 -135.803,-1 -129.803,-1 -123.803,-7 -123.803,-13 -123.803,-13 -123.803,-109 -123.803,-109 -123.803,-115 -129.803,-121 -135.803,-121 -135.803,-121 -294.197,-121 -294.197,-121 -300.197,-121 -306.197,-115 -306.197,-109 -306.197,-109 -306.197,-13 -306.197,-13 -306.197,-7 -300.197,-1 -294.197,-1"/>
<text text-anchor="middle" x="-215" y="-105.8" font-family="Times,serif" font-size="14.00">Api::V1::InterfacesController</text>
<polyline fill="none" stroke="black" points="-306.197,-99 -123.803,-99 "/>
<polyline fill="none" stroke="black" points="-306.197,-75 -123.803,-75 "/>
<polyline fill="none" stroke="black" points="-306.197,-51 -123.803,-51 "/>
<text text-anchor="start" x="-298.197" y="-35.8" font-family="Times,serif" font-size="14.00">_layout</text>
<text text-anchor="start" x="-298.197" y="-21.8" font-family="Times,serif" font-size="14.00">interface_params</text>
<text text-anchor="start" x="-298.197" y="-7.8" font-family="Times,serif" font-size="14.00">query_params</text>
</g>
<!-- Api::V1::IpaddressesController -->
<g id="node10" class="node"><title>Api::V1::IpaddressesController</title>
<path fill="none" stroke="black" d="M-6.26221,-325C-6.26221,-325 162.262,-325 162.262,-325 168.262,-325 174.262,-331 174.262,-337 174.262,-337 174.262,-433 174.262,-433 174.262,-439 168.262,-445 162.262,-445 162.262,-445 -6.26221,-445 -6.26221,-445 -12.2622,-445 -18.2622,-439 -18.2622,-433 -18.2622,-433 -18.2622,-337 -18.2622,-337 -18.2622,-331 -12.2622,-325 -6.26221,-325"/>
<text text-anchor="middle" x="78" y="-429.8" font-family="Times,serif" font-size="14.00">Api::V1::IpaddressesController</text>
<polyline fill="none" stroke="black" points="-18.2622,-423 174.262,-423 "/>
<polyline fill="none" stroke="black" points="-18.2622,-399 174.262,-399 "/>
<polyline fill="none" stroke="black" points="-18.2622,-375 174.262,-375 "/>
<text text-anchor="start" x="-10.2622" y="-359.8" font-family="Times,serif" font-size="14.00">_layout</text>
<text text-anchor="start" x="-10.2622" y="-345.8" font-family="Times,serif" font-size="14.00">ipaddress_params</text>
<text text-anchor="start" x="-10.2622" y="-331.8" font-family="Times,serif" font-size="14.00">query_params</text>
</g>
<!-- Api::V1::IprangesController -->
<g id="node11" class="node"><title>Api::V1::IprangesController</title>
<path fill="none" stroke="black" d="M354.293,341C354.293,341 505.707,341 505.707,341 511.707,341 517.707,335 517.707,329 517.707,329 517.707,233 517.707,233 517.707,227 511.707,221 505.707,221 505.707,221 354.293,221 354.293,221 348.293,221 342.293,227 342.293,233 342.293,233 342.293,329 342.293,329 342.293,335 348.293,341 354.293,341"/>
<text text-anchor="middle" x="430" y="236.2" font-family="Times,serif" font-size="14.00">Api::V1::IprangesController</text>
<polyline fill="none" stroke="black" points="342.293,243 517.707,243 "/>
<polyline fill="none" stroke="black" points="342.293,267 517.707,267 "/>
<polyline fill="none" stroke="black" points="342.293,291 517.707,291 "/>
<text text-anchor="start" x="350.293" y="306.2" font-family="Times,serif" font-size="14.00">_layout</text>
<text text-anchor="start" x="350.293" y="320.2" font-family="Times,serif" font-size="14.00">iprange_params</text>
<text text-anchor="start" x="350.293" y="334.2" font-family="Times,serif" font-size="14.00">query_params</text>
</g>
<!-- Api::V1::LocationsController -->
<g id="node12" class="node"><title>Api::V1::LocationsController</title>
<path fill="none" stroke="black" d="M-96.2104,-163C-96.2104,-163 62.2104,-163 62.2104,-163 68.2104,-163 74.2104,-169 74.2104,-175 74.2104,-175 74.2104,-271 74.2104,-271 74.2104,-277 68.2104,-283 62.2104,-283 62.2104,-283 -96.2104,-283 -96.2104,-283 -102.21,-283 -108.21,-277 -108.21,-271 -108.21,-271 -108.21,-175 -108.21,-175 -108.21,-169 -102.21,-163 -96.2104,-163"/>
<text text-anchor="middle" x="-17" y="-267.8" font-family="Times,serif" font-size="14.00">Api::V1::LocationsController</text>
<polyline fill="none" stroke="black" points="-108.21,-261 74.2104,-261 "/>
<polyline fill="none" stroke="black" points="-108.21,-237 74.2104,-237 "/>
<polyline fill="none" stroke="black" points="-108.21,-213 74.2104,-213 "/>
<text text-anchor="start" x="-100.21" y="-197.8" font-family="Times,serif" font-size="14.00">_layout</text>
<text text-anchor="start" x="-100.21" y="-183.8" font-family="Times,serif" font-size="14.00">location_params</text>
<text text-anchor="start" x="-100.21" y="-169.8" font-family="Times,serif" font-size="14.00">query_params</text>
</g>
<!-- Api::V1::PortsController -->
<g id="node13" class="node"><title>Api::V1::PortsController</title>
<path fill="none" stroke="black" d="M372,17C372,17 504,17 504,17 510,17 516,11 516,5 516,5 516,-91 516,-91 516,-97 510,-103 504,-103 504,-103 372,-103 372,-103 366,-103 360,-97 360,-91 360,-91 360,5 360,5 360,11 366,17 372,17"/>
<text text-anchor="middle" x="438" y="-87.8" font-family="Times,serif" font-size="14.00">Api::V1::PortsController</text>
<polyline fill="none" stroke="black" points="360,-81 516,-81 "/>
<polyline fill="none" stroke="black" points="360,-57 516,-57 "/>
<polyline fill="none" stroke="black" points="360,-33 516,-33 "/>
<text text-anchor="start" x="368" y="-17.8" font-family="Times,serif" font-size="14.00">_layout</text>
<text text-anchor="start" x="368" y="-3.8" font-family="Times,serif" font-size="14.00">port_params</text>
<text text-anchor="start" x="368" y="10.2" font-family="Times,serif" font-size="14.00">query_params</text>
</g>
<!-- Api::V1::PorttypesController -->
<g id="node14" class="node"><title>Api::V1::PorttypesController</title>
<path fill="none" stroke="black" d="M-312.052,-163C-312.052,-163 -155.948,-163 -155.948,-163 -149.948,-163 -143.948,-169 -143.948,-175 -143.948,-175 -143.948,-271 -143.948,-271 -143.948,-277 -149.948,-283 -155.948,-283 -155.948,-283 -312.052,-283 -312.052,-283 -318.052,-283 -324.052,-277 -324.052,-271 -324.052,-271 -324.052,-175 -324.052,-175 -324.052,-169 -318.052,-163 -312.052,-163"/>
<text text-anchor="middle" x="-234" y="-267.8" font-family="Times,serif" font-size="14.00">Api::V1::PorttypesController</text>
<polyline fill="none" stroke="black" points="-324.052,-261 -143.948,-261 "/>
<polyline fill="none" stroke="black" points="-324.052,-237 -143.948,-237 "/>
<polyline fill="none" stroke="black" points="-324.052,-213 -143.948,-213 "/>
<text text-anchor="start" x="-316.052" y="-197.8" font-family="Times,serif" font-size="14.00">_layout</text>
<text text-anchor="start" x="-316.052" y="-183.8" font-family="Times,serif" font-size="14.00">porttype_params</text>
<text text-anchor="start" x="-316.052" y="-169.8" font-family="Times,serif" font-size="14.00">query_params</text>
</g>
<!-- Api::V1::VirtualinterfacesController -->
<g id="node15" class="node"><title>Api::V1::VirtualinterfacesController</title>
<path fill="none" stroke="black" d="M119.779,107C119.779,107 316.221,107 316.221,107 322.221,107 328.221,101 328.221,95 328.221,95 328.221,-1 328.221,-1 328.221,-7 322.221,-13 316.221,-13 316.221,-13 119.779,-13 119.779,-13 113.779,-13 107.779,-7 107.779,-1 107.779,-1 107.779,95 107.779,95 107.779,101 113.779,107 119.779,107"/>
<text text-anchor="middle" x="218" y="2.2" font-family="Times,serif" font-size="14.00">Api::V1::VirtualinterfacesController</text>
<polyline fill="none" stroke="black" points="107.779,9 328.221,9 "/>
<polyline fill="none" stroke="black" points="107.779,33 328.221,33 "/>
<polyline fill="none" stroke="black" points="107.779,57 328.221,57 "/>
<text text-anchor="start" x="115.779" y="72.2" font-family="Times,serif" font-size="14.00">_layout</text>
<text text-anchor="start" x="115.779" y="86.2" font-family="Times,serif" font-size="14.00">query_params</text>
<text text-anchor="start" x="115.779" y="100.2" font-family="Times,serif" font-size="14.00">virtualinterface_params</text>
</g>
<!-- ApplicationController -->
<g id="node16" class="node"><title>ApplicationController</title>
<path fill="none" stroke="black" d="M390.179,-379C390.179,-379 505.821,-379 505.821,-379 511.821,-379 517.821,-385 517.821,-391 517.821,-391 517.821,-459 517.821,-459 517.821,-465 511.821,-471 505.821,-471 505.821,-471 390.179,-471 390.179,-471 384.179,-471 378.179,-465 378.179,-459 378.179,-459 378.179,-391 378.179,-391 378.179,-385 384.179,-379 390.179,-379"/>
<text text-anchor="middle" x="448" y="-455.8" font-family="Times,serif" font-size="14.00">ApplicationController</text>
<polyline fill="none" stroke="black" points="378.179,-449 517.821,-449 "/>
<polyline fill="none" stroke="black" points="378.179,-425 517.821,-425 "/>
<polyline fill="none" stroke="black" points="378.179,-401 517.821,-401 "/>
<text text-anchor="start" x="386.179" y="-385.8" font-family="Times,serif" font-size="14.00">_layout</text>
</g>
</g>
</svg>
