<?xml version="1.0" encoding="UTF-8" standalone="no"?>
<!DOCTYPE svg PUBLIC "-//W3C//DTD SVG 1.1//EN"
 "http://www.w3.org/Graphics/SVG/1.1/DTD/svg11.dtd">
<!-- Generated by graphviz version 2.38.0 (20140413.2041)
 -->
<!-- Title: controllers_diagram Pages: 1 -->
<svg width="886pt" height="831pt"
 viewBox="0.00 0.00 885.76 831.00" xmlns="http://www.w3.org/2000/svg" xmlns:xlink="http://www.w3.org/1999/xlink">
<g id="graph0" class="graph" transform="scale(1 1) rotate(0) translate(346.052 503.5)">
<title>controllers_diagram</title>
<polygon fill="white" stroke="none" points="-346.052,327.5 -346.052,-503.5 539.707,-503.5 539.707,327.5 -346.052,327.5"/>
<!-- _diagram_info -->
<g id="node1" class="node"><title>_diagram_info</title>
<text text-anchor="start" x="-315.688" y="48.9" font-family="Times,serif" font-size="13.00">Controllers diagram</text>
<text text-anchor="start" x="-315.688" y="61.9" font-family="Times,serif" font-size="13.00">Date: Jun 26 2015 &#45; 17:01</text>
<text text-anchor="start" x="-315.688" y="74.9" font-family="Times,serif" font-size="13.00">Migration version: 20150623183346</text>
<text text-anchor="start" x="-315.688" y="87.9" font-family="Times,serif" font-size="13.00">Generated by RailRoady 1.3.0</text>
<text text-anchor="start" x="-315.688" y="100.9" font-family="Times,serif" font-size="13.00">http://railroady.prestonlee.com</text>
</g>
<!-- Api::V1::AssetsController -->
<g id="node2" class="node"><title>Api::V1::AssetsController</title>
<path fill="none" stroke="black" d="M372.114,-1C372.114,-1 511.886,-1 511.886,-1 517.886,-1 523.886,-7 523.886,-13 523.886,-13 523.886,-109 523.886,-109 523.886,-115 517.886,-121 511.886,-121 511.886,-121 372.114,-121 372.114,-121 366.114,-121 360.114,-115 360.114,-109 360.114,-109 360.114,-13 360.114,-13 360.114,-7 366.114,-1 372.114,-1"/>
<text text-anchor="middle" x="442" y="-105.8" font-family="Times,serif" font-size="14.00">Api::V1::AssetsController</text>
<polyline fill="none" stroke="black" points="360.114,-99 523.886,-99 "/>
<polyline fill="none" stroke="black" points="360.114,-75 523.886,-75 "/>
<polyline fill="none" stroke="black" points="360.114,-51 523.886,-51 "/>
<text text-anchor="start" x="368.114" y="-35.8" font-family="Times,serif" font-size="14.00">_layout</text>
<text text-anchor="start" x="368.114" y="-21.8" font-family="Times,serif" font-size="14.00">asset_params</text>
<text text-anchor="start" x="368.114" y="-7.8" font-family="Times,serif" font-size="14.00">query_params</text>
</g>
<!-- Api::V1::BaseController -->
<g id="node3" class="node"><title>Api::V1::BaseController</title>
<path fill="none" stroke="black" d="M-78.2139,125C-78.2139,125 52.2139,125 52.2139,125 58.2139,125 64.2139,119 64.2139,113 64.2139,113 64.2139,-107 64.2139,-107 64.2139,-113 58.2139,-119 52.2139,-119 52.2139,-119 -78.2139,-119 -78.2139,-119 -84.2139,-119 -90.2139,-113 -90.2139,-107 -90.2139,-107 -90.2139,113 -90.2139,113 -90.2139,119 -84.2139,125 -78.2139,125"/>
<text text-anchor="middle" x="-13" y="-103.8" font-family="Times,serif" font-size="14.00">Api::V1::BaseController</text>
<polyline fill="none" stroke="black" points="-90.2139,-97 64.2139,-97 "/>
<text text-anchor="start" x="-82.2139" y="-81.8" font-family="Times,serif" font-size="14.00">create</text>
<text text-anchor="start" x="-82.2139" y="-67.8" font-family="Times,serif" font-size="14.00">destroy</text>
<text text-anchor="start" x="-82.2139" y="-53.8" font-family="Times,serif" font-size="14.00">index</text>
<text text-anchor="start" x="-82.2139" y="-39.8" font-family="Times,serif" font-size="14.00">show</text>
<text text-anchor="start" x="-82.2139" y="-25.8" font-family="Times,serif" font-size="14.00">update</text>
<polyline fill="none" stroke="black" points="-90.2139,-19 64.2139,-19 "/>
<polyline fill="none" stroke="black" points="-90.2139,5 64.2139,5 "/>
<text text-anchor="start" x="-82.2139" y="20.2" font-family="Times,serif" font-size="14.00">_layout</text>
<text text-anchor="start" x="-82.2139" y="34.2" font-family="Times,serif" font-size="14.00">get_resource</text>
<text text-anchor="start" x="-82.2139" y="48.2" font-family="Times,serif" font-size="14.00">page_params</text>
<text text-anchor="start" x="-82.2139" y="62.2" font-family="Times,serif" font-size="14.00">query_params</text>
<text text-anchor="start" x="-82.2139" y="76.2" font-family="Times,serif" font-size="14.00">resource_class</text>
<text text-anchor="start" x="-82.2139" y="90.2" font-family="Times,serif" font-size="14.00">resource_name</text>
<text text-anchor="start" x="-82.2139" y="104.2" font-family="Times,serif" font-size="14.00">resource_params</text>
<text text-anchor="start" x="-82.2139" y="118.2" font-family="Times,serif" font-size="14.00">set_resource</text>
</g>
<!-- Api::V1::CabletypesController -->
<g id="node4" class="node"><title>Api::V1::CabletypesController</title>
<path fill="none" stroke="black" d="M-275.71,287C-275.71,287 -110.29,287 -110.29,287 -104.29,287 -98.2896,281 -98.2896,275 -98.2896,275 -98.2896,179 -98.2896,179 -98.2896,173 -104.29,167 -110.29,167 -110.29,167 -275.71,167 -275.71,167 -281.71,167 -287.71,173 -287.71,179 -287.71,179 -287.71,275 -287.71,275 -287.71,281 -281.71,287 -275.71,287"/>
<text text-anchor="middle" x="-193" y="182.2" font-family="Times,serif" font-size="14.00">Api::V1::CabletypesController</text>
<polyline fill="none" stroke="black" points="-287.71,189 -98.2896,189 "/>
<polyline fill="none" stroke="black" points="-287.71,213 -98.2896,213 "/>
<polyline fill="none" stroke="black" points="-287.71,237 -98.2896,237 "/>
<text text-anchor="start" x="-279.71" y="252.2" font-family="Times,serif" font-size="14.00">_layout</text>
<text text-anchor="start" x="-279.71" y="266.2" font-family="Times,serif" font-size="14.00">cabletype_params</text>
<text text-anchor="start" x="-279.71" y="280.2" font-family="Times,serif" font-size="14.00">query_params</text>
</g>
<!-- Api::V1::ConnectionsController -->
<g id="node5" class="node"><title>Api::V1::ConnectionsController</title>
<path fill="none" stroke="black" d="M228.396,-217C228.396,-217 401.604,-217 401.604,-217 407.604,-217 413.604,-223 413.604,-229 413.604,-229 413.604,-325 413.604,-325 413.604,-331 407.604,-337 401.604,-337 401.604,-337 228.396,-337 228.396,-337 222.396,-337 216.396,-331 216.396,-325 216.396,-325 216.396,-229 216.396,-229 216.396,-223 222.396,-217 228.396,-217"/>
<text text-anchor="middle" x="315" y="-321.8" font-family="Times,serif" font-size="14.00">Api::V1::ConnectionsController</text>
<polyline fill="none" stroke="black" points="216.396,-315 413.604,-315 "/>
<polyline fill="none" stroke="black" points="216.396,-291 413.604,-291 "/>
<polyline fill="none" stroke="black" points="216.396,-267 413.604,-267 "/>
<text text-anchor="start" x="224.396" y="-251.8" font-family="Times,serif" font-size="14.00">_layout</text>
<text text-anchor="start" x="224.396" y="-237.8" font-family="Times,serif" font-size="14.00">connection_params</text>
<text text-anchor="start" x="224.396" y="-223.8" font-family="Times,serif" font-size="14.00">query_params</text>
</g>
<!-- Api::V1::ConnectortypesController -->
<g id="node6" class="node"><title>Api::V1::ConnectortypesController</title>
<path fill="none" stroke="black" d="M120.458,-55C120.458,-55 311.542,-55 311.542,-55 317.542,-55 323.542,-61 323.542,-67 323.542,-67 323.542,-163 323.542,-163 323.542,-169 317.542,-175 311.542,-175 311.542,-175 120.458,-175 120.458,-175 114.458,-175 108.458,-169 108.458,-163 108.458,-163 108.458,-67 108.458,-67 108.458,-61 114.458,-55 120.458,-55"/>
<text text-anchor="middle" x="216" y="-159.8" font-family="Times,serif" font-size="14.00">Api::V1::ConnectortypesController</text>
<polyline fill="none" stroke="black" points="108.458,-153 323.542,-153 "/>
<polyline fill="none" stroke="black" points="108.458,-129 323.542,-129 "/>
<polyline fill="none" stroke="black" points="108.458,-105 323.542,-105 "/>
<text text-anchor="start" x="116.458" y="-89.8" font-family="Times,serif" font-size="14.00">_layout</text>
<text text-anchor="start" x="116.458" y="-75.8" font-family="Times,serif" font-size="14.00">connectortype_params</text>
<text text-anchor="start" x="116.458" y="-61.8" font-family="Times,serif" font-size="14.00">query_params</text>
</g>
<!-- Api::V1::DevicesController -->
<g id="node7" class="node"><title>Api::V1::DevicesController</title>
<path fill="none" stroke="black" d="M-222.152,-325C-222.152,-325 -73.8481,-325 -73.8481,-325 -67.8481,-325 -61.8481,-331 -61.8481,-337 -61.8481,-337 -61.8481,-433 -61.8481,-433 -61.8481,-439 -67.8481,-445 -73.8481,-445 -73.8481,-445 -222.152,-445 -222.152,-445 -228.152,-445 -234.152,-439 -234.152,-433 -234.152,-433 -234.152,-337 -234.152,-337 -234.152,-331 -228.152,-325 -222.152,-325"/>
<text text-anchor="middle" x="-148" y="-429.8" font-family="Times,serif" font-size="14.00">Api::V1::DevicesController</text>
<polyline fill="none" stroke="black" points="-234.152,-423 -61.8481,-423 "/>
<polyline fill="none" stroke="black" points="-234.152,-399 -61.8481,-399 "/>
<polyline fill="none" stroke="black" points="-234.152,-375 -61.8481,-375 "/>
<text text-anchor="start" x="-226.152" y="-359.8" font-family="Times,serif" font-size="14.00">_layout</text>
<text text-anchor="start" x="-226.152" y="-345.8" font-family="Times,serif" font-size="14.00">device_params</text>
<text text-anchor="start" x="-226.152" y="-331.8" font-family="Times,serif" font-size="14.00">query_params</text>
</g>
<!-- Api::V1::DevicetypesController -->
<g id="node8" class="node"><title>Api::V1::DevicetypesController</title>
<path fill="none" stroke="black" d="M335.796,323C335.796,323 508.204,323 508.204,323 514.204,323 520.204,317 520.204,311 520.204,311 520.204,215 520.204,215 520.204,209 514.204,203 508.204,203 508.204,203 335.796,203 335.796,203 329.796,203 323.796,209 323.796,215 323.796,215 323.796,311 323.796,311 323.796,317 329.796,323 335.796,323"/>
<text text-anchor="middle" x="422" y="218.2" font-family="Times,serif" font-size="14.00">Api::V1::DevicetypesController</text>
<polyline fill="none" stroke="black" points="323.796,225 520.204,225 "/>
<polyline fill="none" stroke="black" points="323.796,249 520.204,249 "/>
<polyline fill="none" stroke="black" points="323.796,273 520.204,273 "/>
<text text-anchor="start" x="331.796" y="288.2" font-family="Times,serif" font-size="14.00">_layout</text>
<text text-anchor="start" x="331.796" y="302.2" font-family="Times,serif" font-size="14.00">devicetype_params</text>
<text text-anchor="start" x="331.796" y="316.2" font-family="Times,serif" font-size="14.00">query_params</text>
</g>
<!-- Api::V1::InterfacesController -->
<g id="node9" class="node"><title>Api::V1::InterfacesController</title>
<path fill="none" stroke="black" d="M-294.197,-1C-294.197,-1 -135.803,-1 -135.803,-1 -129.803,-1 -123.803,-7 -123.803,-13 -123.803,-13 -123.803,-109 -123.803,-109 -123.803,-115 -129.803,-121 -135.803,-121 -135.803,-121 -294.197,-121 -294.197,-121 -300.197,-121 -306.197,-115 -306.197,-109 -306.197,-109 -306.197,-13 -306.197,-13 -306.197,-7 -300.197,-1 -294.197,-1"/>
<text text-anchor="middle" x="-215" y="-105.8" font-family="Times,serif" font-size="14.00">Api::V1::InterfacesController</text>
<polyline fill="none" stroke="black" points="-306.197,-99 -123.803,-99 "/>
<polyline fill="none" stroke="black" points="-306.197,-75 -123.803,-75 "/>
<polyline fill="none" stroke="black" points="-306.197,-51 -123.803,-51 "/>
<text text-anchor="start" x="-298.197" y="-35.8" font-family="Times,serif" font-size="14.00">_layout</text>
<text text-anchor="start" x="-298.197" y="-21.8" font-family="Times,serif" font-size="14.00">interface_params</text>
<text text-anchor="start" x="-298.197" y="-7.8" font-family="Times,serif" font-size="14.00">query_params</text>
</g>
<!-- Api::V1::IpaddressesController -->
<g id="node10" class="node"><title>Api::V1::IpaddressesController</title>
<path fill="none" stroke="black" d="M-6.26221,-325C-6.26221,-325 162.262,-325 162.262,-325 168.262,-325 174.262,-331 174.262,-337 174.262,-337 174.262,-433 174.262,-433 174.262,-439 168.262,-445 162.262,-445 162.262,-445 -6.26221,-445 -6.26221,-445 -12.2622,-445 -18.2622,-439 -18.2622,-433 -18.2622,-433 -18.2622,-337 -18.2622,-337 -18.2622,-331 -12.2622,-325 -6.26221,-325"/>
<text text-anchor="middle" x="78" y="-429.8" font-family="Times,serif" font-size="14.00">Api::V1::IpaddressesController</text>
<polyline fill="none" stroke="black" points="-18.2622,-423 174.262,-423 "/>
<polyline fill="none" stroke="black" points="-18.2622,-399 174.262,-399 "/>
<polyline fill="none" stroke="black" points="-18.2622,-375 174.262,-375 "/>
<text text-anchor="start" x="-10.2622" y="-359.8" font-family="Times,serif" font-size="14.00">_layout</text>
<text text-anchor="start" x="-10.2622" y="-345.8" font-family="Times,serif" font-size="14.00">ipaddress_params</text>
<text text-anchor="start" x="-10.2622" y="-331.8" font-family="Times,serif" font-size="14.00">query_params</text>
</g>
<!-- Api::V1::IprangesController -->
<g id="node11" class="node"><title>Api::V1::IprangesController</title>
<path fill="none" stroke="black" d="M372.293,161C372.293,161 523.707,161 523.707,161 529.707,161 535.707,155 535.707,149 535.707,149 535.707,53 535.707,53 535.707,47 529.707,41 523.707,41 523.707,41 372.293,41 372.293,41 366.293,41 360.293,47 360.293,53 360.293,53 360.293,149 360.293,149 360.293,155 366.293,161 372.293,161"/>
<text text-anchor="middle" x="448" y="56.2" font-family="Times,serif" font-size="14.00">Api::V1::IprangesController</text>
<polyline fill="none" stroke="black" points="360.293,63 535.707,63 "/>
<polyline fill="none" stroke="black" points="360.293,87 535.707,87 "/>
<polyline fill="none" stroke="black" points="360.293,111 535.707,111 "/>
<text text-anchor="start" x="368.293" y="126.2" font-family="Times,serif" font-size="14.00">_layout</text>
<text text-anchor="start" x="368.293" y="140.2" font-family="Times,serif" font-size="14.00">iprange_params</text>
<text text-anchor="start" x="368.293" y="154.2" font-family="Times,serif" font-size="14.00">query_params</text>
</g>
<!-- Api::V1::LocationsController -->
<g id="node12" class="node"><title>Api::V1::LocationsController</title>
<path fill="none" stroke="black" d="M119.79,269C119.79,269 278.21,269 278.21,269 284.21,269 290.21,263 290.21,257 290.21,257 290.21,161 290.21,161 290.21,155 284.21,149 278.21,149 278.21,149 119.79,149 119.79,149 113.79,149 107.79,155 107.79,161 107.79,161 107.79,257 107.79,257 107.79,263 113.79,269 119.79,269"/>
<text text-anchor="middle" x="199" y="164.2" font-family="Times,serif" font-size="14.00">Api::V1::LocationsController</text>
<polyline fill="none" stroke="black" points="107.79,171 290.21,171 "/>
<polyline fill="none" stroke="black" points="107.79,195 290.21,195 "/>
<polyline fill="none" stroke="black" points="107.79,219 290.21,219 "/>
<text text-anchor="start" x="115.79" y="234.2" font-family="Times,serif" font-size="14.00">_layout</text>
<text text-anchor="start" x="115.79" y="248.2" font-family="Times,serif" font-size="14.00">location_params</text>
<text text-anchor="start" x="115.79" y="262.2" font-family="Times,serif" font-size="14.00">query_params</text>
</g>
<!-- Api::V1::PortsController -->
<g id="node13" class="node"><title>Api::V1::PortsController</title>
<path fill="none" stroke="black" d="M390,-379C390,-379 522,-379 522,-379 528,-379 534,-385 534,-391 534,-391 534,-487 534,-487 534,-493 528,-499 522,-499 522,-499 390,-499 390,-499 384,-499 378,-493 378,-487 378,-487 378,-391 378,-391 378,-385 384,-379 390,-379"/>
<text text-anchor="middle" x="456" y="-483.8" font-family="Times,serif" font-size="14.00">Api::V1::PortsController</text>
<polyline fill="none" stroke="black" points="378,-477 534,-477 "/>
<polyline fill="none" stroke="black" points="378,-453 534,-453 "/>
<polyline fill="none" stroke="black" points="378,-429 534,-429 "/>
<text text-anchor="start" x="386" y="-413.8" font-family="Times,serif" font-size="14.00">_layout</text>
<text text-anchor="start" x="386" y="-399.8" font-family="Times,serif" font-size="14.00">port_params</text>
<text text-anchor="start" x="386" y="-385.8" font-family="Times,serif" font-size="14.00">query_params</text>
</g>
<!-- Api::V1::PorttypesController -->
<g id="node14" class="node"><title>Api::V1::PorttypesController</title>
<path fill="none" stroke="black" d="M-330.052,-163C-330.052,-163 -173.948,-163 -173.948,-163 -167.948,-163 -161.948,-169 -161.948,-175 -161.948,-175 -161.948,-271 -161.948,-271 -161.948,-277 -167.948,-283 -173.948,-283 -173.948,-283 -330.052,-283 -330.052,-283 -336.052,-283 -342.052,-277 -342.052,-271 -342.052,-271 -342.052,-175 -342.052,-175 -342.052,-169 -336.052,-163 -330.052,-163"/>
<text text-anchor="middle" x="-252" y="-267.8" font-family="Times,serif" font-size="14.00">Api::V1::PorttypesController</text>
<polyline fill="none" stroke="black" points="-342.052,-261 -161.948,-261 "/>
<polyline fill="none" stroke="black" points="-342.052,-237 -161.948,-237 "/>
<polyline fill="none" stroke="black" points="-342.052,-213 -161.948,-213 "/>
<text text-anchor="start" x="-334.052" y="-197.8" font-family="Times,serif" font-size="14.00">_layout</text>
<text text-anchor="start" x="-334.052" y="-183.8" font-family="Times,serif" font-size="14.00">porttype_params</text>
<text text-anchor="start" x="-334.052" y="-169.8" font-family="Times,serif" font-size="14.00">query_params</text>
</g>
<!-- Api::V1::VifmembersController -->
<g id="node15" class="node"><title>Api::V1::VifmembersController</title>
<path fill="none" stroke="black" d="M-114.18,-163C-114.18,-163 58.1797,-163 58.1797,-163 64.1797,-163 70.1797,-169 70.1797,-175 70.1797,-175 70.1797,-271 70.1797,-271 70.1797,-277 64.1797,-283 58.1797,-283 58.1797,-283 -114.18,-283 -114.18,-283 -120.18,-283 -126.18,-277 -126.18,-271 -126.18,-271 -126.18,-175 -126.18,-175 -126.18,-169 -120.18,-163 -114.18,-163"/>
<text text-anchor="middle" x="-28" y="-267.8" font-family="Times,serif" font-size="14.00">Api::V1::VifmembersController</text>
<polyline fill="none" stroke="black" points="-126.18,-261 70.1797,-261 "/>
<polyline fill="none" stroke="black" points="-126.18,-237 70.1797,-237 "/>
<polyline fill="none" stroke="black" points="-126.18,-213 70.1797,-213 "/>
<text text-anchor="start" x="-118.18" y="-197.8" font-family="Times,serif" font-size="14.00">_layout</text>
<text text-anchor="start" x="-118.18" y="-183.8" font-family="Times,serif" font-size="14.00">query_params</text>
<text text-anchor="start" x="-118.18" y="-169.8" font-family="Times,serif" font-size="14.00">vifmember_params</text>
</g>
<!-- Api::V1::VirtualinterfacesController -->
<g id="node16" class="node"><title>Api::V1::VirtualinterfacesController</title>
<path fill="none" stroke="black" d="M119.779,107C119.779,107 316.221,107 316.221,107 322.221,107 328.221,101 328.221,95 328.221,95 328.221,-1 328.221,-1 328.221,-7 322.221,-13 316.221,-13 316.221,-13 119.779,-13 119.779,-13 113.779,-13 107.779,-7 107.779,-1 107.779,-1 107.779,95 107.779,95 107.779,101 113.779,107 119.779,107"/>
<text text-anchor="middle" x="218" y="2.2" font-family="Times,serif" font-size="14.00">Api::V1::VirtualinterfacesController</text>
<polyline fill="none" stroke="black" points="107.779,9 328.221,9 "/>
<polyline fill="none" stroke="black" points="107.779,33 328.221,33 "/>
<polyline fill="none" stroke="black" points="107.779,57 328.221,57 "/>
<text text-anchor="start" x="115.779" y="72.2" font-family="Times,serif" font-size="14.00">_layout</text>
<text text-anchor="start" x="115.779" y="86.2" font-family="Times,serif" font-size="14.00">query_params</text>
<text text-anchor="start" x="115.779" y="100.2" font-family="Times,serif" font-size="14.00">virtualinterface_params</text>
</g>
<!-- ApplicationController -->
<g id="node17" class="node"><title>ApplicationController</title>
<path fill="none" stroke="black" d="M-59.8208,251C-59.8208,251 55.8208,251 55.8208,251 61.8208,251 67.8208,245 67.8208,239 67.8208,239 67.8208,171 67.8208,171 67.8208,165 61.8208,159 55.8208,159 55.8208,159 -59.8208,159 -59.8208,159 -65.8208,159 -71.8208,165 -71.8208,171 -71.8208,171 -71.8208,239 -71.8208,239 -71.8208,245 -65.8208,251 -59.8208,251"/>
<text text-anchor="middle" x="-2" y="174.2" font-family="Times,serif" font-size="14.00">ApplicationController</text>
<polyline fill="none" stroke="black" points="-71.8208,181 67.8208,181 "/>
<polyline fill="none" stroke="black" points="-71.8208,205 67.8208,205 "/>
<polyline fill="none" stroke="black" points="-71.8208,229 67.8208,229 "/>
<text text-anchor="start" x="-63.8208" y="244.2" font-family="Times,serif" font-size="14.00">_layout</text>
</g>
</g>
</svg>
