<?xml version="1.0" encoding="UTF-8" standalone="no"?>
<!DOCTYPE svg PUBLIC "-//W3C//DTD SVG 1.1//EN"
 "http://www.w3.org/Graphics/SVG/1.1/DTD/svg11.dtd">
<!-- Generated by graphviz version 2.38.0 (20140413.2041)
 -->
<!-- Title: models_diagram Pages: 1 -->
<svg width="852pt" height="408pt"
 viewBox="0.00 0.00 851.67 408.00" xmlns="http://www.w3.org/2000/svg" xmlns:xlink="http://www.w3.org/1999/xlink">
<g id="graph0" class="graph" transform="scale(1 1) rotate(0) translate(4 404)">
<title>models_diagram</title>
<polygon fill="white" stroke="none" points="-4,4 -4,-404 847.669,-404 847.669,4 -4,4"/>
<!-- _diagram_info -->
<g id="node1" class="node"><title>_diagram_info</title>
<text text-anchor="start" x="8" y="-385.6" font-family="Times,serif" font-size="13.00">Models diagram</text>
<text text-anchor="start" x="8" y="-372.6" font-family="Times,serif" font-size="13.00">Date: Jun 23 2015 &#45; 16:23</text>
<text text-anchor="start" x="8" y="-359.6" font-family="Times,serif" font-size="13.00">Migration version: 20150623144500</text>
<text text-anchor="start" x="8" y="-346.6" font-family="Times,serif" font-size="13.00">Generated by RailRoady 1.3.0</text>
<text text-anchor="start" x="8" y="-333.6" font-family="Times,serif" font-size="13.00">http://railroady.prestonlee.com</text>
</g>
<!-- Asset -->
<g id="node2" class="node"><title>Asset</title>
<ellipse fill="none" stroke="black" cx="526.688" cy="-363.5" rx="29.5189" ry="18"/>
<text text-anchor="middle" x="526.688" y="-359.3" font-family="Times,serif" font-size="14.00">Asset</text>
</g>
<!-- Device -->
<g id="node7" class="node"><title>Device</title>
<ellipse fill="none" stroke="black" cx="422.688" cy="-272" rx="35.2956" ry="18"/>
<text text-anchor="middle" x="422.688" y="-267.8" font-family="Times,serif" font-size="14.00">Device</text>
</g>
<!-- Asset&#45;&gt;Device -->
<g id="edge1" class="edge"><title>Asset&#45;&gt;Device</title>
<path fill="none" stroke="#c49d4c" d="M505.31,-342.069C499.946,-337.07 494.159,-331.784 488.688,-327 475.307,-315.298 459.959,-302.694 447.433,-292.608"/>
<ellipse fill="none" stroke="#c49d4c" cx="508.453" cy="-345.02" rx="4.00002" ry="4.00002"/>
<ellipse fill="#c49d4c" stroke="#c49d4c" cx="444.285" cy="-290.084" rx="4.00002" ry="4.00002"/>
</g>
<!-- Cabletype -->
<g id="node3" class="node"><title>Cabletype</title>
<ellipse fill="none" stroke="black" cx="636.688" cy="-218" rx="45.92" ry="18"/>
<text text-anchor="middle" x="636.688" y="-213.8" font-family="Times,serif" font-size="14.00">Cabletype</text>
</g>
<!-- Connection -->
<g id="node4" class="node"><title>Connection</title>
<ellipse fill="none" stroke="black" cx="636.688" cy="-91" rx="50.7569" ry="18"/>
<text text-anchor="middle" x="636.688" y="-86.8" font-family="Times,serif" font-size="14.00">Connection</text>
</g>
<!-- Cabletype&#45;&gt;Connection -->
<g id="edge2" class="edge"><title>Cabletype&#45;&gt;Connection</title>
<path fill="none" stroke="#be133d" d="M636.688,-191.759C636.688,-170.791 636.688,-141.012 636.688,-119.454"/>
<ellipse fill="none" stroke="#be133d" cx="636.688" cy="-195.881" rx="4" ry="4"/>
<polygon fill="#be133d" stroke="#be133d" points="636.688,-119.313 641.188,-109.313 636.688,-114.313 636.688,-109.313 636.688,-109.313 636.688,-109.313 636.688,-114.313 632.188,-109.313 636.688,-119.313 636.688,-119.313"/>
</g>
<!-- Connectortype -->
<g id="node5" class="node"><title>Connectortype</title>
<ellipse fill="none" stroke="black" cx="636.688" cy="-363.5" rx="62.3407" ry="18"/>
<text text-anchor="middle" x="636.688" y="-359.3" font-family="Times,serif" font-size="14.00">Connectortype</text>
</g>
<!-- Connectortype&#45;&gt;Cabletype -->
<g id="edge4" class="edge"><title>Connectortype&#45;&gt;Cabletype</title>
<path fill="none" stroke="#a44c29" d="M636.688,-337.425C636.688,-311.848 636.688,-272.292 636.688,-246.029"/>
<ellipse fill="none" stroke="#a44c29" cx="636.688" cy="-341.475" rx="4" ry="4"/>
<polygon fill="#a44c29" stroke="#a44c29" points="636.688,-246.003 641.188,-236.003 636.688,-241.003 636.688,-236.003 636.688,-236.003 636.688,-236.003 636.688,-241.003 632.188,-236.003 636.688,-246.003 636.688,-246.003"/>
</g>
<!-- Porttype -->
<g id="node14" class="node"><title>Porttype</title>
<ellipse fill="none" stroke="black" cx="560.688" cy="-272" rx="40.149" ry="18"/>
<text text-anchor="middle" x="560.688" y="-267.8" font-family="Times,serif" font-size="14.00">Porttype</text>
</g>
<!-- Connectortype&#45;&gt;Porttype -->
<g id="edge3" class="edge"><title>Connectortype&#45;&gt;Porttype</title>
<path fill="none" stroke="#531958" d="M616.937,-339.24C605.874,-326.213 592.106,-309.999 580.96,-296.873"/>
<ellipse fill="none" stroke="#531958" cx="619.804" cy="-342.617" rx="4.00002" ry="4.00002"/>
<polygon fill="#531958" stroke="#531958" points="580.88,-296.779 577.837,-286.243 577.643,-292.967 574.407,-289.156 574.407,-289.156 574.407,-289.156 577.643,-292.967 570.977,-292.069 580.88,-296.779 580.88,-296.779"/>
</g>
<!-- Contact -->
<g id="node6" class="node"><title>Contact</title>
<ellipse fill="none" stroke="black" cx="754.688" cy="-363.5" rx="37.7266" ry="18"/>
<text text-anchor="middle" x="754.688" y="-359.3" font-family="Times,serif" font-size="14.00">Contact</text>
</g>
<!-- Port -->
<g id="node13" class="node"><title>Port</title>
<ellipse fill="none" stroke="black" cx="548.688" cy="-164" rx="27" ry="18"/>
<text text-anchor="middle" x="548.688" y="-159.8" font-family="Times,serif" font-size="14.00">Port</text>
</g>
<!-- Device&#45;&gt;Port -->
<g id="edge5" class="edge"><title>Device&#45;&gt;Port</title>
<path fill="none" stroke="#260665" d="M446.605,-250.879C469.029,-232.014 502.372,-203.964 524.789,-185.105"/>
<ellipse fill="none" stroke="#260665" cx="443.268" cy="-253.686" rx="4.00002" ry="4.00002"/>
<polygon fill="#260665" stroke="#260665" points="524.861,-185.045 535.41,-182.05 528.687,-181.826 532.514,-178.607 532.514,-178.607 532.514,-178.607 528.687,-181.826 529.617,-175.163 524.861,-185.045 524.861,-185.045"/>
</g>
<!-- Devicetype -->
<g id="node8" class="node"><title>Devicetype</title>
<ellipse fill="none" stroke="black" cx="275.688" cy="-363.5" rx="50.2465" ry="18"/>
<text text-anchor="middle" x="275.688" y="-359.3" font-family="Times,serif" font-size="14.00">Devicetype</text>
</g>
<!-- Devicetype&#45;&gt;Device -->
<g id="edge6" class="edge"><title>Devicetype&#45;&gt;Device</title>
<path fill="none" stroke="#1cfa9f" d="M306.843,-343.531C331.964,-328.236 367.101,-306.844 392.075,-291.638"/>
<ellipse fill="none" stroke="#1cfa9f" cx="303.378" cy="-345.641" rx="4.00002" ry="4.00002"/>
<polygon fill="#1cfa9f" stroke="#1cfa9f" points="392.238,-291.539 403.12,-290.182 396.509,-288.939 400.78,-286.339 400.78,-286.339 400.78,-286.339 396.509,-288.939 398.439,-282.495 392.238,-291.539 392.238,-291.539"/>
</g>
<!-- Interface -->
<g id="node9" class="node"><title>Interface</title>
<ellipse fill="none" stroke="black" cx="526.688" cy="-91" rx="41.542" ry="18"/>
<text text-anchor="middle" x="526.688" y="-86.8" font-family="Times,serif" font-size="14.00">Interface</text>
</g>
<!-- Ipaddress -->
<g id="node10" class="node"><title>Ipaddress</title>
<ellipse fill="none" stroke="black" cx="657.688" cy="-18" rx="43.9905" ry="18"/>
<text text-anchor="middle" x="657.688" y="-13.8" font-family="Times,serif" font-size="14.00">Ipaddress</text>
</g>
<!-- Interface&#45;&gt;Ipaddress -->
<g id="edge7" class="edge"><title>Interface&#45;&gt;Ipaddress</title>
<path fill="none" stroke="#eaa564" d="M558.673,-72.6645C578.113,-62.1283 602.944,-48.6702 622.876,-37.8672"/>
<ellipse fill="none" stroke="#eaa564" cx="555.153" cy="-74.5723" rx="4.00002" ry="4.00002"/>
<polygon fill="#eaa564" stroke="#eaa564" points="623.145,-37.7215 634.081,-36.9128 627.541,-35.339 631.937,-32.9565 631.937,-32.9565 631.937,-32.9565 627.541,-35.339 629.793,-29.0002 623.145,-37.7215 623.145,-37.7215"/>
</g>
<!-- Iprange -->
<g id="node11" class="node"><title>Iprange</title>
<ellipse fill="none" stroke="black" cx="742.688" cy="-91" rx="37.2248" ry="18"/>
<text text-anchor="middle" x="742.688" y="-86.8" font-family="Times,serif" font-size="14.00">Iprange</text>
</g>
<!-- Iprange&#45;&gt;Ipaddress -->
<g id="edge9" class="edge"><title>Iprange&#45;&gt;Ipaddress</title>
<path fill="none" stroke="#2789d3" d="M718.359,-69.6786C707.693,-60.7695 695.146,-50.2891 684.239,-41.178"/>
<ellipse fill="none" stroke="#2789d3" cx="721.591" cy="-72.3784" rx="4.00002" ry="4.00002"/>
<polygon fill="#2789d3" stroke="#2789d3" points="683.951,-40.9372 679.161,-31.0727 680.113,-37.7318 676.276,-34.5264 676.276,-34.5264 676.276,-34.5264 680.113,-37.7318 673.391,-37.9801 683.951,-40.9372 683.951,-40.9372"/>
</g>
<!-- Iprange&#45;&gt;Iprange -->
<g id="edge8" class="edge"><title>Iprange&#45;&gt;Iprange</title>
<path fill="none" stroke="#6a3e76" d="M785.206,-97.3281C792.633,-96.4844 797.8,-94.375 797.8,-91 797.8,-87.9766 793.654,-85.9688 787.45,-84.9767"/>
<ellipse fill="none" stroke="#6a3e76" cx="781.127" cy="-97.5412" rx="4" ry="4"/>
<polygon fill="#6a3e76" stroke="#6a3e76" points="787.108,-84.9527 777.449,-79.7611 782.121,-84.6014 777.133,-84.25 777.133,-84.25 777.133,-84.25 782.121,-84.6014 776.817,-88.7389 787.108,-84.9527 787.108,-84.9527"/>
<text text-anchor="middle" x="820.735" y="-86.8" font-family="Times,serif" font-size="14.00">children</text>
</g>
<!-- Location -->
<g id="node12" class="node"><title>Location</title>
<ellipse fill="none" stroke="black" cx="385.688" cy="-363.5" rx="41.5766" ry="18"/>
<text text-anchor="middle" x="385.688" y="-359.3" font-family="Times,serif" font-size="14.00">Location</text>
</g>
<!-- Location&#45;&gt;Device -->
<g id="edge11" class="edge"><title>Location&#45;&gt;Device</title>
<path fill="none" stroke="#71f7c9" d="M395.788,-338.068C400.79,-325.97 406.831,-311.356 411.92,-299.046"/>
<ellipse fill="none" stroke="#71f7c9" cx="394.175" cy="-341.969" rx="4.00001" ry="4.00001"/>
<polygon fill="#71f7c9" stroke="#71f7c9" points="411.939,-299 419.918,-291.478 413.849,-294.379 415.76,-289.759 415.76,-289.759 415.76,-289.759 413.849,-294.379 411.601,-288.04 411.939,-299 411.939,-299"/>
</g>
<!-- Location&#45;&gt;Location -->
<g id="edge10" class="edge"><title>Location&#45;&gt;Location</title>
<path fill="none" stroke="#0b4210" d="M428.476,-373.38C438.148,-372.494 445.226,-369.201 445.226,-363.5 445.226,-357.799 438.148,-354.506 428.476,-353.62"/>
<ellipse fill="none" stroke="#0b4210" cx="424.247" cy="-373.48" rx="4" ry="4"/>
<ellipse fill="#0b4210" stroke="#0b4210" cx="424.247" cy="-353.52" rx="4" ry="4"/>
<text text-anchor="middle" x="462.716" y="-359.3" font-family="Times,serif" font-size="14.00">parent</text>
</g>
<!-- Port&#45;&gt;Connection -->
<g id="edge13" class="edge"><title>Port&#45;&gt;Connection</title>
<path fill="none" stroke="#d72c47" d="M571.827,-144.331C583.834,-134.643 598.538,-122.78 610.908,-112.8"/>
<ellipse fill="none" stroke="#d72c47" cx="568.353" cy="-147.134" rx="4.00002" ry="4.00002"/>
<ellipse fill="#d72c47" stroke="#d72c47" cx="614.024" cy="-110.285" rx="4.00002" ry="4.00002"/>
</g>
<!-- Port&#45;&gt;Interface -->
<g id="edge12" class="edge"><title>Port&#45;&gt;Interface</title>
<path fill="none" stroke="#a41c56" d="M541.075,-138.432C539.116,-132.109 536.998,-125.273 535.005,-118.841"/>
<ellipse fill="none" stroke="#a41c56" cx="542.29" cy="-142.353" rx="4.00001" ry="4.00001"/>
<polygon fill="#a41c56" stroke="#a41c56" points="534.977,-118.75 536.315,-107.867 533.497,-113.974 532.017,-109.198 532.017,-109.198 532.017,-109.198 533.497,-113.974 527.718,-110.53 534.977,-118.75 534.977,-118.75"/>
</g>
<!-- Porttype&#45;&gt;Port -->
<g id="edge14" class="edge"><title>Porttype&#45;&gt;Port</title>
<path fill="none" stroke="#fddc18" d="M557.858,-246.008C556.026,-229.823 553.64,-208.748 551.762,-192.152"/>
<ellipse fill="none" stroke="#fddc18" cx="558.31" cy="-249.995" rx="4.00001" ry="4.00001"/>
<polygon fill="#fddc18" stroke="#fddc18" points="551.736,-191.925 555.082,-181.482 551.173,-186.957 550.611,-181.988 550.611,-181.988 550.611,-181.988 551.173,-186.957 546.14,-182.495 551.736,-191.925 551.736,-191.925"/>
</g>
</g>
</svg>
