<?xml version="1.0" encoding="UTF-8" standalone="no"?>
<!DOCTYPE svg PUBLIC "-//W3C//DTD SVG 1.1//EN"
 "http://www.w3.org/Graphics/SVG/1.1/DTD/svg11.dtd">
<!-- Generated by graphviz version 2.38.0 (20140413.2041)
 -->
<!-- Title: models_diagram Pages: 1 -->
<svg width="800pt" height="481pt"
 viewBox="0.00 0.00 800.30 481.00" xmlns="http://www.w3.org/2000/svg" xmlns:xlink="http://www.w3.org/1999/xlink">
<g id="graph0" class="graph" transform="scale(1 1) rotate(0) translate(4 477)">
<title>models_diagram</title>
<polygon fill="white" stroke="none" points="-4,4 -4,-477 796.301,-477 796.301,4 -4,4"/>
<!-- _diagram_info -->
<g id="node1" class="node"><title>_diagram_info</title>
<text text-anchor="start" x="8" y="-458.6" font-family="Times,serif" font-size="13.00">Models diagram</text>
<text text-anchor="start" x="8" y="-445.6" font-family="Times,serif" font-size="13.00">Date: Jun 26 2015 &#45; 17:01</text>
<text text-anchor="start" x="8" y="-432.6" font-family="Times,serif" font-size="13.00">Migration version: 20150623183346</text>
<text text-anchor="start" x="8" y="-419.6" font-family="Times,serif" font-size="13.00">Generated by RailRoady 1.3.0</text>
<text text-anchor="start" x="8" y="-406.6" font-family="Times,serif" font-size="13.00">http://railroady.prestonlee.com</text>
</g>
<!-- Asset -->
<g id="node2" class="node"><title>Asset</title>
<ellipse fill="none" stroke="black" cx="526.688" cy="-436.5" rx="29.5189" ry="18"/>
<text text-anchor="middle" x="526.688" y="-432.3" font-family="Times,serif" font-size="14.00">Asset</text>
</g>
<!-- Device -->
<g id="node7" class="node"><title>Device</title>
<ellipse fill="none" stroke="black" cx="407.688" cy="-345" rx="35.2956" ry="18"/>
<text text-anchor="middle" x="407.688" y="-340.8" font-family="Times,serif" font-size="14.00">Device</text>
</g>
<!-- Asset&#45;&gt;Device -->
<g id="edge1" class="edge"><title>Asset&#45;&gt;Device</title>
<path fill="none" stroke="#fe656c" d="M505.918,-414.951C500.467,-409.881 494.487,-404.592 488.688,-400 472.141,-386.899 452.464,-373.73 436.647,-363.677"/>
<ellipse fill="none" stroke="#fe656c" cx="509.128" cy="-417.995" rx="4.00002" ry="4.00002"/>
<ellipse fill="#fe656c" stroke="#fe656c" cx="433.062" cy="-361.42" rx="4.00002" ry="4.00002"/>
</g>
<!-- Cabletype -->
<g id="node3" class="node"><title>Cabletype</title>
<ellipse fill="none" stroke="black" cx="636.688" cy="-291" rx="45.92" ry="18"/>
<text text-anchor="middle" x="636.688" y="-286.8" font-family="Times,serif" font-size="14.00">Cabletype</text>
</g>
<!-- Connection -->
<g id="node4" class="node"><title>Connection</title>
<ellipse fill="none" stroke="black" cx="608.688" cy="-164" rx="50.7569" ry="18"/>
<text text-anchor="middle" x="608.688" y="-159.8" font-family="Times,serif" font-size="14.00">Connection</text>
</g>
<!-- Cabletype&#45;&gt;Connection -->
<g id="edge2" class="edge"><title>Cabletype&#45;&gt;Connection</title>
<path fill="none" stroke="#22a8d1" d="M631.034,-264.759C626.315,-243.695 619.605,-213.74 614.771,-192.159"/>
<ellipse fill="none" stroke="#22a8d1" cx="631.979" cy="-268.978" rx="4.00001" ry="4.00001"/>
<polygon fill="#22a8d1" stroke="#22a8d1" points="614.752,-192.071 616.957,-181.329 613.659,-187.192 612.566,-182.313 612.566,-182.313 612.566,-182.313 613.659,-187.192 608.175,-183.297 614.752,-192.071 614.752,-192.071"/>
</g>
<!-- Connectortype -->
<g id="node5" class="node"><title>Connectortype</title>
<ellipse fill="none" stroke="black" cx="636.688" cy="-436.5" rx="62.3407" ry="18"/>
<text text-anchor="middle" x="636.688" y="-432.3" font-family="Times,serif" font-size="14.00">Connectortype</text>
</g>
<!-- Connectortype&#45;&gt;Cabletype -->
<g id="edge4" class="edge"><title>Connectortype&#45;&gt;Cabletype</title>
<path fill="none" stroke="#41b10a" d="M636.688,-410.425C636.688,-384.848 636.688,-345.292 636.688,-319.029"/>
<ellipse fill="none" stroke="#41b10a" cx="636.688" cy="-414.475" rx="4" ry="4"/>
<polygon fill="#41b10a" stroke="#41b10a" points="636.688,-319.003 641.188,-309.003 636.688,-314.003 636.688,-309.003 636.688,-309.003 636.688,-309.003 636.688,-314.003 632.188,-309.003 636.688,-319.003 636.688,-319.003"/>
</g>
<!-- Porttype -->
<g id="node14" class="node"><title>Porttype</title>
<ellipse fill="none" stroke="black" cx="566.688" cy="-345" rx="40.149" ry="18"/>
<text text-anchor="middle" x="566.688" y="-340.8" font-family="Times,serif" font-size="14.00">Porttype</text>
</g>
<!-- Connectortype&#45;&gt;Porttype -->
<g id="edge3" class="edge"><title>Connectortype&#45;&gt;Porttype</title>
<path fill="none" stroke="#1579d9" d="M618.496,-412.24C608.403,-399.336 595.865,-383.305 585.651,-370.246"/>
<ellipse fill="none" stroke="#1579d9" cx="621.057" cy="-415.515" rx="4.00002" ry="4.00002"/>
<polygon fill="#1579d9" stroke="#1579d9" points="585.484,-370.033 582.868,-359.384 582.404,-366.094 579.324,-362.156 579.324,-362.156 579.324,-362.156 582.404,-366.094 575.779,-364.928 585.484,-370.033 585.484,-370.033"/>
</g>
<!-- Contact -->
<g id="node6" class="node"><title>Contact</title>
<ellipse fill="none" stroke="black" cx="754.688" cy="-436.5" rx="37.7266" ry="18"/>
<text text-anchor="middle" x="754.688" y="-432.3" font-family="Times,serif" font-size="14.00">Contact</text>
</g>
<!-- Port -->
<g id="node13" class="node"><title>Port</title>
<ellipse fill="none" stroke="black" cx="470.688" cy="-237" rx="27" ry="18"/>
<text text-anchor="middle" x="470.688" y="-232.8" font-family="Times,serif" font-size="14.00">Port</text>
</g>
<!-- Device&#45;&gt;Port -->
<g id="edge5" class="edge"><title>Device&#45;&gt;Port</title>
<path fill="none" stroke="#dcbe63" d="M421.704,-320.418C431.82,-303.397 445.457,-280.452 455.773,-263.095"/>
<ellipse fill="none" stroke="#dcbe63" cx="419.575" cy="-323.999" rx="4.00002" ry="4.00002"/>
<polygon fill="#dcbe63" stroke="#dcbe63" points="456.01,-262.695 464.988,-256.398 458.565,-258.397 461.119,-254.099 461.119,-254.099 461.119,-254.099 458.565,-258.397 457.251,-251.8 456.01,-262.695 456.01,-262.695"/>
</g>
<!-- Devicetype -->
<g id="node8" class="node"><title>Devicetype</title>
<ellipse fill="none" stroke="black" cx="275.688" cy="-436.5" rx="50.2465" ry="18"/>
<text text-anchor="middle" x="275.688" y="-432.3" font-family="Times,serif" font-size="14.00">Devicetype</text>
</g>
<!-- Devicetype&#45;&gt;Device -->
<g id="edge6" class="edge"><title>Devicetype&#45;&gt;Device</title>
<path fill="none" stroke="#8eb2c9" d="M304.843,-415.732C326.837,-400.819 356.865,-380.459 378.795,-365.59"/>
<ellipse fill="none" stroke="#8eb2c9" cx="301.39" cy="-418.073" rx="4.00002" ry="4.00002"/>
<polygon fill="#8eb2c9" stroke="#8eb2c9" points="379.08,-365.397 389.882,-363.51 383.218,-362.591 387.357,-359.785 387.357,-359.785 387.357,-359.785 383.218,-362.591 384.831,-356.061 379.08,-365.397 379.08,-365.397"/>
</g>
<!-- Interface -->
<g id="node9" class="node"><title>Interface</title>
<ellipse fill="none" stroke="black" cx="470.688" cy="-164" rx="41.542" ry="18"/>
<text text-anchor="middle" x="470.688" y="-159.8" font-family="Times,serif" font-size="14.00">Interface</text>
</g>
<!-- Ipaddress -->
<g id="node10" class="node"><title>Ipaddress</title>
<ellipse fill="none" stroke="black" cx="591.688" cy="-18" rx="43.9905" ry="18"/>
<text text-anchor="middle" x="591.688" y="-13.8" font-family="Times,serif" font-size="14.00">Ipaddress</text>
</g>
<!-- Interface&#45;&gt;Ipaddress -->
<g id="edge7" class="edge"><title>Interface&#45;&gt;Ipaddress</title>
<path fill="none" stroke="#638720" d="M515.238,-153.268C581.285,-138.738 697.772,-112.68 700.688,-109 710.625,-96.4598 709.124,-86.5949 700.688,-73 687.241,-51.3325 662.229,-38.0912 639.554,-30.1479"/>
<ellipse fill="none" stroke="#638720" cx="510.96" cy="-154.208" rx="4.00001" ry="4.00001"/>
<polygon fill="#638720" stroke="#638720" points="639.532,-30.141 631.406,-22.7779 634.776,-28.5999 630.019,-27.0588 630.019,-27.0588 630.019,-27.0588 634.776,-28.5999 628.632,-31.3397 639.532,-30.141 639.532,-30.141"/>
</g>
<!-- Vifmember -->
<g id="node15" class="node"><title>Vifmember</title>
<ellipse fill="none" stroke="black" cx="400.688" cy="-18" rx="50.1862" ry="18"/>
<text text-anchor="middle" x="400.688" y="-13.8" font-family="Times,serif" font-size="14.00">Vifmember</text>
</g>
<!-- Interface&#45;&gt;Vifmember -->
<g id="edge8" class="edge"><title>Interface&#45;&gt;Vifmember</title>
<path fill="none" stroke="#f1657b" d="M434.874,-146.684C419.894,-137.833 404.048,-125.322 395.688,-109 385.741,-89.5822 388.111,-64.6221 392.333,-45.915"/>
<ellipse fill="none" stroke="#f1657b" cx="438.63" cy="-148.783" rx="4.00002" ry="4.00002"/>
<polygon fill="#f1657b" stroke="#f1657b" points="392.397,-45.6643 399.236,-37.0929 393.637,-40.8205 394.877,-35.9767 394.877,-35.9767 394.877,-35.9767 393.637,-40.8205 390.518,-34.8606 392.397,-45.6643 392.397,-45.6643"/>
</g>
<!-- Virtualinterface -->
<g id="node16" class="node"><title>Virtualinterface</title>
<ellipse fill="none" stroke="black" cx="470.688" cy="-91" rx="65.6111" ry="18"/>
<text text-anchor="middle" x="470.688" y="-86.8" font-family="Times,serif" font-size="14.00">Virtualinterface</text>
</g>
<!-- Interface&#45;&gt;Virtualinterface -->
<g id="edge9" class="edge"><title>Interface&#45;&gt;Virtualinterface</title>
<path fill="none" stroke="#93799f" d="M470.688,-135.753C470.688,-130.276 470.688,-124.521 470.688,-119.051"/>
<polygon fill="#93799f" stroke="#93799f" points="470.688,-135.813 466.188,-145.813 470.688,-140.813 470.688,-145.813 470.688,-145.813 470.688,-145.813 470.688,-140.813 475.188,-145.813 470.688,-135.813 470.688,-135.813"/>
<polygon fill="#93799f" stroke="#93799f" points="470.688,-119.029 475.188,-109.029 470.688,-114.029 470.688,-109.029 470.688,-109.029 470.688,-109.029 470.688,-114.029 466.188,-109.029 470.688,-119.029 470.688,-119.029"/>
</g>
<!-- Iprange -->
<g id="node11" class="node"><title>Iprange</title>
<ellipse fill="none" stroke="black" cx="591.688" cy="-91" rx="37.2248" ry="18"/>
<text text-anchor="middle" x="591.688" y="-86.8" font-family="Times,serif" font-size="14.00">Iprange</text>
</g>
<!-- Iprange&#45;&gt;Ipaddress -->
<g id="edge11" class="edge"><title>Iprange&#45;&gt;Ipaddress</title>
<path fill="none" stroke="#12d98c" d="M591.688,-64.791C591.688,-58.832 591.688,-52.4496 591.688,-46.3988"/>
<ellipse fill="none" stroke="#12d98c" cx="591.688" cy="-68.8129" rx="4" ry="4"/>
<polygon fill="#12d98c" stroke="#12d98c" points="591.688,-46.0288 596.188,-36.0288 591.688,-41.0288 591.688,-36.0288 591.688,-36.0288 591.688,-36.0288 591.688,-41.0288 587.188,-36.0289 591.688,-46.0288 591.688,-46.0288"/>
</g>
<!-- Iprange&#45;&gt;Iprange -->
<g id="edge10" class="edge"><title>Iprange&#45;&gt;Iprange</title>
<path fill="none" stroke="#0d7111" d="M634.206,-97.3281C641.633,-96.4844 646.8,-94.375 646.8,-91 646.8,-87.9766 642.654,-85.9688 636.45,-84.9767"/>
<ellipse fill="none" stroke="#0d7111" cx="630.127" cy="-97.5412" rx="4" ry="4"/>
<polygon fill="#0d7111" stroke="#0d7111" points="636.108,-84.9527 626.449,-79.7611 631.121,-84.6014 626.133,-84.25 626.133,-84.25 626.133,-84.25 631.121,-84.6014 625.817,-88.7389 636.108,-84.9527 636.108,-84.9527"/>
<text text-anchor="middle" x="669.735" y="-86.8" font-family="Times,serif" font-size="14.00">children</text>
</g>
<!-- Location -->
<g id="node12" class="node"><title>Location</title>
<ellipse fill="none" stroke="black" cx="385.688" cy="-436.5" rx="41.5766" ry="18"/>
<text text-anchor="middle" x="385.688" y="-432.3" font-family="Times,serif" font-size="14.00">Location</text>
</g>
<!-- Location&#45;&gt;Device -->
<g id="edge13" class="edge"><title>Location&#45;&gt;Device</title>
<path fill="none" stroke="#5c7fa1" d="M391.89,-410.268C394.77,-398.552 398.196,-384.616 401.119,-372.721"/>
<ellipse fill="none" stroke="#5c7fa1" cx="390.884" cy="-414.359" rx="4.00001" ry="4.00001"/>
<polygon fill="#5c7fa1" stroke="#5c7fa1" points="401.146,-372.611 407.903,-363.974 402.34,-367.755 403.534,-362.9 403.534,-362.9 403.534,-362.9 402.34,-367.755 399.164,-361.826 401.146,-372.611 401.146,-372.611"/>
</g>
<!-- Location&#45;&gt;Location -->
<g id="edge12" class="edge"><title>Location&#45;&gt;Location</title>
<path fill="none" stroke="#195657" d="M428.476,-446.38C438.148,-445.494 445.226,-442.201 445.226,-436.5 445.226,-430.799 438.148,-427.506 428.476,-426.62"/>
<ellipse fill="none" stroke="#195657" cx="424.247" cy="-446.48" rx="4" ry="4"/>
<ellipse fill="#195657" stroke="#195657" cx="424.247" cy="-426.52" rx="4" ry="4"/>
<text text-anchor="middle" x="462.716" y="-432.3" font-family="Times,serif" font-size="14.00">parent</text>
</g>
<!-- Port&#45;&gt;Connection -->
<g id="edge16" class="edge"><title>Port&#45;&gt;Connection</title>
<path fill="none" stroke="#99a671" d="M498.747,-221.564C520.394,-210.427 550.463,-194.956 573.684,-183.009"/>
<ellipse fill="none" stroke="#99a671" cx="494.905" cy="-223.541" rx="4.00002" ry="4.00002"/>
<ellipse fill="#99a671" stroke="#99a671" cx="577.406" cy="-181.094" rx="4.00002" ry="4.00002"/>
</g>
<!-- Port&#45;&gt;Interface -->
<g id="edge14" class="edge"><title>Port&#45;&gt;Interface</title>
<path fill="none" stroke="#22af4b" d="M470.688,-210.791C470.688,-204.832 470.688,-198.45 470.688,-192.399"/>
<ellipse fill="none" stroke="#22af4b" cx="470.688" cy="-214.813" rx="4" ry="4"/>
<polygon fill="#22af4b" stroke="#22af4b" points="470.688,-192.029 475.188,-182.029 470.688,-187.029 470.688,-182.029 470.688,-182.029 470.688,-182.029 470.688,-187.029 466.188,-182.029 470.688,-192.029 470.688,-192.029"/>
</g>
<!-- Port&#45;&gt;Port -->
<g id="edge15" class="edge"><title>Port&#45;&gt;Port</title>
<path fill="none" stroke="#892d80" d="M504.515,-243.441C511.053,-242.685 515.688,-240.538 515.688,-237 515.688,-233.462 511.053,-231.315 504.515,-230.559"/>
<ellipse fill="none" stroke="#892d80" cx="500.129" cy="-243.572" rx="4" ry="4"/>
<ellipse fill="#892d80" stroke="#892d80" cx="500.129" cy="-230.428" rx="4" ry="4"/>
<text text-anchor="middle" x="562.326" y="-232.8" font-family="Times,serif" font-size="14.00">connecteddevice</text>
</g>
<!-- Porttype&#45;&gt;Port -->
<g id="edge17" class="edge"><title>Porttype&#45;&gt;Port</title>
<path fill="none" stroke="#91f237" d="M546.591,-321.81C530.336,-303.862 507.54,-278.691 491.18,-260.627"/>
<ellipse fill="none" stroke="#91f237" cx="549.422" cy="-324.936" rx="4.00002" ry="4.00002"/>
<polygon fill="#91f237" stroke="#91f237" points="490.875,-260.29 487.498,-249.858 487.519,-256.584 484.163,-252.878 484.163,-252.878 484.163,-252.878 487.519,-256.584 480.827,-255.899 490.875,-260.29 490.875,-260.29"/>
</g>
<!-- Virtualinterface&#45;&gt;Ipaddress -->
<g id="edge18" class="edge"><title>Virtualinterface&#45;&gt;Ipaddress</title>
<path fill="none" stroke="#c69bb6" d="M504.403,-70.2166C521.367,-60.2627 541.851,-48.2432 558.711,-38.3503"/>
<ellipse fill="none" stroke="#c69bb6" cx="500.692" cy="-72.3944" rx="4.00002" ry="4.00002"/>
<polygon fill="#c69bb6" stroke="#c69bb6" points="559.034,-38.1605 569.936,-36.9808 563.346,-35.63 567.659,-33.0996 567.659,-33.0996 567.659,-33.0996 563.346,-35.63 565.381,-29.2184 559.034,-38.1605 559.034,-38.1605"/>
</g>
<!-- Virtualinterface&#45;&gt;Vifmember -->
<g id="edge19" class="edge"><title>Virtualinterface&#45;&gt;Vifmember</title>
<path fill="none" stroke="#c2544c" d="M448.62,-67.6166C440.892,-59.7784 432.185,-50.9475 424.334,-42.9838"/>
<ellipse fill="none" stroke="#c2544c" cx="451.644" cy="-70.6843" rx="4.00002" ry="4.00002"/>
<polygon fill="#c2544c" stroke="#c2544c" points="423.856,-42.499 420.04,-32.2186 420.345,-38.9385 416.835,-35.378 416.835,-35.378 416.835,-35.378 420.345,-38.9385 413.631,-38.5373 423.856,-42.499 423.856,-42.499"/>
</g>
</g>
</svg>
