<?xml version="1.0" encoding="UTF-8" standalone="no"?>
<!DOCTYPE svg PUBLIC "-//W3C//DTD SVG 1.1//EN"
 "http://www.w3.org/Graphics/SVG/1.1/DTD/svg11.dtd">
<!-- Generated by graphviz version 2.38.0 (20140413.2041)
 -->
<!-- Title: models_diagram Pages: 1 -->
<svg width="1022pt" height="1067pt"
 viewBox="0.00 0.00 1022.19 1067.00" xmlns="http://www.w3.org/2000/svg" xmlns:xlink="http://www.w3.org/1999/xlink">
<g id="graph0" class="graph" transform="scale(1 1) rotate(0) translate(4 1063)">
<title>models_diagram</title>
<polygon fill="white" stroke="none" points="-4,4 -4,-1063 1018.19,-1063 1018.19,4 -4,4"/>
<!-- _diagram_info -->
<g id="node1" class="node"><title>_diagram_info</title>
<text text-anchor="start" x="8" y="-1023.6" font-family="Times,serif" font-size="13.00">Models diagram</text>
<text text-anchor="start" x="8" y="-1010.6" font-family="Times,serif" font-size="13.00">Date: Jun 24 2015 &#45; 01:19</text>
<text text-anchor="start" x="8" y="-997.6" font-family="Times,serif" font-size="13.00">Migration version: 20150623183346</text>
<text text-anchor="start" x="8" y="-984.6" font-family="Times,serif" font-size="13.00">Generated by RailRoady 1.3.0</text>
<text text-anchor="start" x="8" y="-971.6" font-family="Times,serif" font-size="13.00">http://railroady.prestonlee.com</text>
</g>
<!-- Asset -->
<g id="node2" class="node"><title>Asset</title>
<path fill="none" stroke="black" d="M591.182,-951.5C591.182,-951.5 700.193,-951.5 700.193,-951.5 706.193,-951.5 712.193,-957.5 712.193,-963.5 712.193,-963.5 712.193,-1039.5 712.193,-1039.5 712.193,-1045.5 706.193,-1051.5 700.193,-1051.5 700.193,-1051.5 591.182,-1051.5 591.182,-1051.5 585.182,-1051.5 579.182,-1045.5 579.182,-1039.5 579.182,-1039.5 579.182,-963.5 579.182,-963.5 579.182,-957.5 585.182,-951.5 591.182,-951.5"/>
<text text-anchor="middle" x="645.688" y="-1036.3" font-family="Times,serif" font-size="14.00">Asset</text>
<polyline fill="none" stroke="black" points="579.182,-1029.5 712.193,-1029.5 "/>
<text text-anchor="start" x="587.182" y="-1014.3" font-family="Times,serif" font-size="14.00">id :integer</text>
<text text-anchor="start" x="587.182" y="-1000.3" font-family="Times,serif" font-size="14.00">serial :string</text>
<text text-anchor="start" x="587.182" y="-986.3" font-family="Times,serif" font-size="14.00">description :text</text>
<text text-anchor="start" x="587.182" y="-972.3" font-family="Times,serif" font-size="14.00">created_at :datetime</text>
<text text-anchor="start" x="587.182" y="-958.3" font-family="Times,serif" font-size="14.00">updated_at :datetime</text>
</g>
<!-- Device -->
<g id="node7" class="node"><title>Device</title>
<path fill="none" stroke="black" d="M414.296,-764.5C414.296,-764.5 531.079,-764.5 531.079,-764.5 537.079,-764.5 543.079,-770.5 543.079,-776.5 543.079,-776.5 543.079,-894.5 543.079,-894.5 543.079,-900.5 537.079,-906.5 531.079,-906.5 531.079,-906.5 414.296,-906.5 414.296,-906.5 408.296,-906.5 402.296,-900.5 402.296,-894.5 402.296,-894.5 402.296,-776.5 402.296,-776.5 402.296,-770.5 408.296,-764.5 414.296,-764.5"/>
<text text-anchor="middle" x="472.688" y="-891.3" font-family="Times,serif" font-size="14.00">Device</text>
<polyline fill="none" stroke="black" points="402.296,-884.5 543.079,-884.5 "/>
<text text-anchor="start" x="410.296" y="-869.3" font-family="Times,serif" font-size="14.00">id :integer</text>
<text text-anchor="start" x="410.296" y="-855.3" font-family="Times,serif" font-size="14.00">name :string</text>
<text text-anchor="start" x="410.296" y="-841.3" font-family="Times,serif" font-size="14.00">description :text</text>
<text text-anchor="start" x="410.296" y="-827.3" font-family="Times,serif" font-size="14.00">devicetype_id :integer</text>
<text text-anchor="start" x="410.296" y="-813.3" font-family="Times,serif" font-size="14.00">asset_id :integer</text>
<text text-anchor="start" x="410.296" y="-799.3" font-family="Times,serif" font-size="14.00">location_id :integer</text>
<text text-anchor="start" x="410.296" y="-785.3" font-family="Times,serif" font-size="14.00">created_at :datetime</text>
<text text-anchor="start" x="410.296" y="-771.3" font-family="Times,serif" font-size="14.00">updated_at :datetime</text>
</g>
<!-- Asset&#45;&gt;Device -->
<g id="edge1" class="edge"><title>Asset&#45;&gt;Device</title>
<path fill="none" stroke="#4418db" d="M587.728,-945.555C575.322,-933.795 562.033,-921.197 549.054,-908.893"/>
<ellipse fill="none" stroke="#4418db" cx="590.879" cy="-948.543" rx="4.00002" ry="4.00002"/>
<ellipse fill="#4418db" stroke="#4418db" cx="546.019" cy="-906.016" rx="4.00002" ry="4.00002"/>
</g>
<!-- Cabletype -->
<g id="node3" class="node"><title>Cabletype</title>
<path fill="none" stroke="black" d="M742.182,-631.5C742.182,-631.5 851.193,-631.5 851.193,-631.5 857.193,-631.5 863.193,-637.5 863.193,-643.5 863.193,-643.5 863.193,-733.5 863.193,-733.5 863.193,-739.5 857.193,-745.5 851.193,-745.5 851.193,-745.5 742.182,-745.5 742.182,-745.5 736.182,-745.5 730.182,-739.5 730.182,-733.5 730.182,-733.5 730.182,-643.5 730.182,-643.5 730.182,-637.5 736.182,-631.5 742.182,-631.5"/>
<text text-anchor="middle" x="796.688" y="-730.3" font-family="Times,serif" font-size="14.00">Cabletype</text>
<polyline fill="none" stroke="black" points="730.182,-723.5 863.193,-723.5 "/>
<text text-anchor="start" x="738.182" y="-708.3" font-family="Times,serif" font-size="14.00">id :integer</text>
<text text-anchor="start" x="738.182" y="-694.3" font-family="Times,serif" font-size="14.00">name :string</text>
<text text-anchor="start" x="738.182" y="-680.3" font-family="Times,serif" font-size="14.00">conn1_id :integer</text>
<text text-anchor="start" x="738.182" y="-666.3" font-family="Times,serif" font-size="14.00">conn2_id :integer</text>
<text text-anchor="start" x="738.182" y="-652.3" font-family="Times,serif" font-size="14.00">created_at :datetime</text>
<text text-anchor="start" x="738.182" y="-638.3" font-family="Times,serif" font-size="14.00">updated_at :datetime</text>
</g>
<!-- Connection -->
<g id="node4" class="node"><title>Connection</title>
<path fill="none" stroke="black" d="M741.796,-346.5C741.796,-346.5 851.579,-346.5 851.579,-346.5 857.579,-346.5 863.579,-352.5 863.579,-358.5 863.579,-358.5 863.579,-448.5 863.579,-448.5 863.579,-454.5 857.579,-460.5 851.579,-460.5 851.579,-460.5 741.796,-460.5 741.796,-460.5 735.796,-460.5 729.796,-454.5 729.796,-448.5 729.796,-448.5 729.796,-358.5 729.796,-358.5 729.796,-352.5 735.796,-346.5 741.796,-346.5"/>
<text text-anchor="middle" x="796.688" y="-445.3" font-family="Times,serif" font-size="14.00">Connection</text>
<polyline fill="none" stroke="black" points="729.796,-438.5 863.579,-438.5 "/>
<text text-anchor="start" x="737.796" y="-423.3" font-family="Times,serif" font-size="14.00">id :integer</text>
<text text-anchor="start" x="737.796" y="-409.3" font-family="Times,serif" font-size="14.00">porta_id :integer</text>
<text text-anchor="start" x="737.796" y="-395.3" font-family="Times,serif" font-size="14.00">portb_id :integer</text>
<text text-anchor="start" x="737.796" y="-381.3" font-family="Times,serif" font-size="14.00">cabletype_id :integer</text>
<text text-anchor="start" x="737.796" y="-367.3" font-family="Times,serif" font-size="14.00">created_at :datetime</text>
<text text-anchor="start" x="737.796" y="-353.3" font-family="Times,serif" font-size="14.00">updated_at :datetime</text>
</g>
<!-- Cabletype&#45;&gt;Connection -->
<g id="edge2" class="edge"><title>Cabletype&#45;&gt;Connection</title>
<path fill="none" stroke="#eb3874" d="M796.688,-623.242C796.688,-577.71 796.688,-516.793 796.688,-470.808"/>
<ellipse fill="none" stroke="#eb3874" cx="796.688" cy="-627.25" rx="4" ry="4"/>
<polygon fill="#eb3874" stroke="#eb3874" points="796.688,-470.644 801.188,-460.644 796.688,-465.644 796.688,-460.644 796.688,-460.644 796.688,-460.644 796.688,-465.644 792.188,-460.644 796.688,-470.644 796.688,-470.644"/>
</g>
<!-- Connectortype -->
<g id="node5" class="node"><title>Connectortype</title>
<path fill="none" stroke="black" d="M742.182,-958.5C742.182,-958.5 851.193,-958.5 851.193,-958.5 857.193,-958.5 863.193,-964.5 863.193,-970.5 863.193,-970.5 863.193,-1032.5 863.193,-1032.5 863.193,-1038.5 857.193,-1044.5 851.193,-1044.5 851.193,-1044.5 742.182,-1044.5 742.182,-1044.5 736.182,-1044.5 730.182,-1038.5 730.182,-1032.5 730.182,-1032.5 730.182,-970.5 730.182,-970.5 730.182,-964.5 736.182,-958.5 742.182,-958.5"/>
<text text-anchor="middle" x="796.688" y="-1029.3" font-family="Times,serif" font-size="14.00">Connectortype</text>
<polyline fill="none" stroke="black" points="730.182,-1022.5 863.193,-1022.5 "/>
<text text-anchor="start" x="738.182" y="-1007.3" font-family="Times,serif" font-size="14.00">id :integer</text>
<text text-anchor="start" x="738.182" y="-993.3" font-family="Times,serif" font-size="14.00">name :string</text>
<text text-anchor="start" x="738.182" y="-979.3" font-family="Times,serif" font-size="14.00">created_at :datetime</text>
<text text-anchor="start" x="738.182" y="-965.3" font-family="Times,serif" font-size="14.00">updated_at :datetime</text>
</g>
<!-- Connectortype&#45;&gt;Cabletype -->
<g id="edge4" class="edge"><title>Connectortype&#45;&gt;Cabletype</title>
<path fill="none" stroke="#05d72c" d="M796.688,-950.227C796.688,-897.389 796.688,-814.016 796.688,-755.819"/>
<ellipse fill="none" stroke="#05d72c" cx="796.688" cy="-954.233" rx="4" ry="4"/>
<polygon fill="#05d72c" stroke="#05d72c" points="796.688,-755.621 801.188,-745.621 796.688,-750.621 796.688,-745.621 796.688,-745.621 796.688,-745.621 796.688,-750.621 792.188,-745.621 796.688,-755.621 796.688,-755.621"/>
</g>
<!-- Porttype -->
<g id="node14" class="node"><title>Porttype</title>
<path fill="none" stroke="black" d="M611.965,-785.5C611.965,-785.5 747.41,-785.5 747.41,-785.5 753.41,-785.5 759.41,-791.5 759.41,-797.5 759.41,-797.5 759.41,-873.5 759.41,-873.5 759.41,-879.5 753.41,-885.5 747.41,-885.5 747.41,-885.5 611.965,-885.5 611.965,-885.5 605.965,-885.5 599.965,-879.5 599.965,-873.5 599.965,-873.5 599.965,-797.5 599.965,-797.5 599.965,-791.5 605.965,-785.5 611.965,-785.5"/>
<text text-anchor="middle" x="679.688" y="-870.3" font-family="Times,serif" font-size="14.00">Porttype</text>
<polyline fill="none" stroke="black" points="599.965,-863.5 759.41,-863.5 "/>
<text text-anchor="start" x="607.965" y="-848.3" font-family="Times,serif" font-size="14.00">id :integer</text>
<text text-anchor="start" x="607.965" y="-834.3" font-family="Times,serif" font-size="14.00">name :string</text>
<text text-anchor="start" x="607.965" y="-820.3" font-family="Times,serif" font-size="14.00">connectortype_id :integer</text>
<text text-anchor="start" x="607.965" y="-806.3" font-family="Times,serif" font-size="14.00">created_at :datetime</text>
<text text-anchor="start" x="607.965" y="-792.3" font-family="Times,serif" font-size="14.00">updated_at :datetime</text>
</g>
<!-- Connectortype&#45;&gt;Porttype -->
<g id="edge3" class="edge"><title>Connectortype&#45;&gt;Porttype</title>
<path fill="none" stroke="#1b9acb" d="M761.817,-951.621C748.851,-933.447 734.024,-912.663 720.568,-893.802"/>
<ellipse fill="none" stroke="#1b9acb" cx="764.234" cy="-955.01" rx="4.00002" ry="4.00002"/>
<polygon fill="#1b9acb" stroke="#1b9acb" points="720.503,-893.711 718.358,-882.957 717.599,-889.64 714.695,-885.57 714.695,-885.57 714.695,-885.57 717.599,-889.64 711.032,-888.183 720.503,-893.711 720.503,-893.711"/>
</g>
<!-- Contact -->
<g id="node6" class="node"><title>Contact</title>
<path fill="none" stroke="black" d="M893.182,-944.5C893.182,-944.5 1002.19,-944.5 1002.19,-944.5 1008.19,-944.5 1014.19,-950.5 1014.19,-956.5 1014.19,-956.5 1014.19,-1046.5 1014.19,-1046.5 1014.19,-1052.5 1008.19,-1058.5 1002.19,-1058.5 1002.19,-1058.5 893.182,-1058.5 893.182,-1058.5 887.182,-1058.5 881.182,-1052.5 881.182,-1046.5 881.182,-1046.5 881.182,-956.5 881.182,-956.5 881.182,-950.5 887.182,-944.5 893.182,-944.5"/>
<text text-anchor="middle" x="947.688" y="-1043.3" font-family="Times,serif" font-size="14.00">Contact</text>
<polyline fill="none" stroke="black" points="881.182,-1036.5 1014.19,-1036.5 "/>
<text text-anchor="start" x="889.182" y="-1021.3" font-family="Times,serif" font-size="14.00">id :integer</text>
<text text-anchor="start" x="889.182" y="-1007.3" font-family="Times,serif" font-size="14.00">name :string</text>
<text text-anchor="start" x="889.182" y="-993.3" font-family="Times,serif" font-size="14.00">email :string</text>
<text text-anchor="start" x="889.182" y="-979.3" font-family="Times,serif" font-size="14.00">phone :string</text>
<text text-anchor="start" x="889.182" y="-965.3" font-family="Times,serif" font-size="14.00">created_at :datetime</text>
<text text-anchor="start" x="889.182" y="-951.3" font-family="Times,serif" font-size="14.00">updated_at :datetime</text>
</g>
<!-- Port -->
<g id="node13" class="node"><title>Port</title>
<path fill="none" stroke="black" d="M613.182,-498.5C613.182,-498.5 722.193,-498.5 722.193,-498.5 728.193,-498.5 734.193,-504.5 734.193,-510.5 734.193,-510.5 734.193,-600.5 734.193,-600.5 734.193,-606.5 728.193,-612.5 722.193,-612.5 722.193,-612.5 613.182,-612.5 613.182,-612.5 607.182,-612.5 601.182,-606.5 601.182,-600.5 601.182,-600.5 601.182,-510.5 601.182,-510.5 601.182,-504.5 607.182,-498.5 613.182,-498.5"/>
<text text-anchor="middle" x="667.688" y="-597.3" font-family="Times,serif" font-size="14.00">Port</text>
<polyline fill="none" stroke="black" points="601.182,-590.5 734.193,-590.5 "/>
<text text-anchor="start" x="609.182" y="-575.3" font-family="Times,serif" font-size="14.00">id :integer</text>
<text text-anchor="start" x="609.182" y="-561.3" font-family="Times,serif" font-size="14.00">name :string</text>
<text text-anchor="start" x="609.182" y="-547.3" font-family="Times,serif" font-size="14.00">porttype_id :integer</text>
<text text-anchor="start" x="609.182" y="-533.3" font-family="Times,serif" font-size="14.00">device_id :integer</text>
<text text-anchor="start" x="609.182" y="-519.3" font-family="Times,serif" font-size="14.00">created_at :datetime</text>
<text text-anchor="start" x="609.182" y="-505.3" font-family="Times,serif" font-size="14.00">updated_at :datetime</text>
</g>
<!-- Device&#45;&gt;Port -->
<g id="edge5" class="edge"><title>Device&#45;&gt;Port</title>
<path fill="none" stroke="#cf27e0" d="M526.59,-757.655C556.747,-714.662 593.911,-661.678 622.527,-620.883"/>
<ellipse fill="none" stroke="#cf27e0" cx="524.192" cy="-761.074" rx="4.00002" ry="4.00002"/>
<polygon fill="#cf27e0" stroke="#cf27e0" points="622.572,-620.819 631.999,-615.216 625.443,-616.725 628.315,-612.632 628.315,-612.632 628.315,-612.632 625.443,-616.725 624.631,-610.048 622.572,-620.819 622.572,-620.819"/>
</g>
<!-- Devicetype -->
<g id="node8" class="node"><title>Devicetype</title>
<path fill="none" stroke="black" d="M237.182,-958.5C237.182,-958.5 346.193,-958.5 346.193,-958.5 352.193,-958.5 358.193,-964.5 358.193,-970.5 358.193,-970.5 358.193,-1032.5 358.193,-1032.5 358.193,-1038.5 352.193,-1044.5 346.193,-1044.5 346.193,-1044.5 237.182,-1044.5 237.182,-1044.5 231.182,-1044.5 225.182,-1038.5 225.182,-1032.5 225.182,-1032.5 225.182,-970.5 225.182,-970.5 225.182,-964.5 231.182,-958.5 237.182,-958.5"/>
<text text-anchor="middle" x="291.688" y="-1029.3" font-family="Times,serif" font-size="14.00">Devicetype</text>
<polyline fill="none" stroke="black" points="225.182,-1022.5 358.193,-1022.5 "/>
<text text-anchor="start" x="233.182" y="-1007.3" font-family="Times,serif" font-size="14.00">id :integer</text>
<text text-anchor="start" x="233.182" y="-993.3" font-family="Times,serif" font-size="14.00">name :string</text>
<text text-anchor="start" x="233.182" y="-979.3" font-family="Times,serif" font-size="14.00">created_at :datetime</text>
<text text-anchor="start" x="233.182" y="-965.3" font-family="Times,serif" font-size="14.00">updated_at :datetime</text>
</g>
<!-- Devicetype&#45;&gt;Device -->
<g id="edge6" class="edge"><title>Devicetype&#45;&gt;Device</title>
<path fill="none" stroke="#7ff9aa" d="M344.308,-952.822C359.925,-938.672 377.379,-922.857 394.261,-907.561"/>
<ellipse fill="none" stroke="#7ff9aa" cx="341.264" cy="-955.58" rx="4.00002" ry="4.00002"/>
<polygon fill="#7ff9aa" stroke="#7ff9aa" points="394.559,-907.291 404.991,-903.911 398.264,-903.934 401.969,-900.576 401.969,-900.576 401.969,-900.576 398.264,-903.934 398.948,-897.242 394.559,-907.291 394.559,-907.291"/>
</g>
<!-- Interface -->
<g id="node9" class="node"><title>Interface</title>
<path fill="none" stroke="black" d="M591.182,-353.5C591.182,-353.5 700.193,-353.5 700.193,-353.5 706.193,-353.5 712.193,-359.5 712.193,-365.5 712.193,-365.5 712.193,-441.5 712.193,-441.5 712.193,-447.5 706.193,-453.5 700.193,-453.5 700.193,-453.5 591.182,-453.5 591.182,-453.5 585.182,-453.5 579.182,-447.5 579.182,-441.5 579.182,-441.5 579.182,-365.5 579.182,-365.5 579.182,-359.5 585.182,-353.5 591.182,-353.5"/>
<text text-anchor="middle" x="645.688" y="-438.3" font-family="Times,serif" font-size="14.00">Interface</text>
<polyline fill="none" stroke="black" points="579.182,-431.5 712.193,-431.5 "/>
<text text-anchor="start" x="587.182" y="-416.3" font-family="Times,serif" font-size="14.00">id :integer</text>
<text text-anchor="start" x="587.182" y="-402.3" font-family="Times,serif" font-size="14.00">name :string</text>
<text text-anchor="start" x="587.182" y="-388.3" font-family="Times,serif" font-size="14.00">port_id :integer</text>
<text text-anchor="start" x="587.182" y="-374.3" font-family="Times,serif" font-size="14.00">created_at :datetime</text>
<text text-anchor="start" x="587.182" y="-360.3" font-family="Times,serif" font-size="14.00">updated_at :datetime</text>
</g>
<!-- Ipaddress -->
<g id="node10" class="node"><title>Ipaddress</title>
<path fill="none" stroke="black" d="M725.862,-0.5C725.862,-0.5 867.514,-0.5 867.514,-0.5 873.514,-0.5 879.514,-6.5 879.514,-12.5 879.514,-12.5 879.514,-116.5 879.514,-116.5 879.514,-122.5 873.514,-128.5 867.514,-128.5 867.514,-128.5 725.862,-128.5 725.862,-128.5 719.862,-128.5 713.862,-122.5 713.862,-116.5 713.862,-116.5 713.862,-12.5 713.862,-12.5 713.862,-6.5 719.862,-0.5 725.862,-0.5"/>
<text text-anchor="middle" x="796.688" y="-113.3" font-family="Times,serif" font-size="14.00">Ipaddress</text>
<polyline fill="none" stroke="black" points="713.862,-106.5 879.514,-106.5 "/>
<text text-anchor="start" x="721.862" y="-91.3" font-family="Times,serif" font-size="14.00">id :integer</text>
<text text-anchor="start" x="721.862" y="-77.3" font-family="Times,serif" font-size="14.00">address :string</text>
<text text-anchor="start" x="721.862" y="-63.3" font-family="Times,serif" font-size="14.00">parent_id :integer</text>
<text text-anchor="start" x="721.862" y="-49.3" font-family="Times,serif" font-size="14.00">interface_id :integer</text>
<text text-anchor="start" x="721.862" y="-35.3" font-family="Times,serif" font-size="14.00">virtualinterface_id :integer</text>
<text text-anchor="start" x="721.862" y="-21.3" font-family="Times,serif" font-size="14.00">created_at :datetime</text>
<text text-anchor="start" x="721.862" y="-7.3" font-family="Times,serif" font-size="14.00">updated_at :datetime</text>
</g>
<!-- Interface&#45;&gt;Ipaddress -->
<g id="edge7" class="edge"><title>Interface&#45;&gt;Ipaddress</title>
<path fill="none" stroke="#59686d" d="M713.31,-349.476C715.756,-348.232 718.219,-347.067 720.688,-346 809.688,-307.526 873.21,-383.148 935.688,-309 976.64,-260.398 964.607,-222.595 935.688,-166 924.839,-144.769 907.181,-126.988 888.033,-112.576"/>
<ellipse fill="none" stroke="#59686d" cx="709.544" cy="-351.524" rx="4.00002" ry="4.00002"/>
<polygon fill="#59686d" stroke="#59686d" points="887.863,-112.453 882.383,-102.955 883.807,-109.529 879.752,-106.605 879.752,-106.605 879.752,-106.605 883.807,-109.529 877.12,-110.256 887.863,-112.453 887.863,-112.453"/>
</g>
<!-- Vifmember -->
<g id="node15" class="node"><title>Vifmember</title>
<path fill="none" stroke="black" d="M510.862,-14.5C510.862,-14.5 652.514,-14.5 652.514,-14.5 658.514,-14.5 664.514,-20.5 664.514,-26.5 664.514,-26.5 664.514,-102.5 664.514,-102.5 664.514,-108.5 658.514,-114.5 652.514,-114.5 652.514,-114.5 510.862,-114.5 510.862,-114.5 504.862,-114.5 498.862,-108.5 498.862,-102.5 498.862,-102.5 498.862,-26.5 498.862,-26.5 498.862,-20.5 504.862,-14.5 510.862,-14.5"/>
<text text-anchor="middle" x="581.688" y="-99.3" font-family="Times,serif" font-size="14.00">Vifmember</text>
<polyline fill="none" stroke="black" points="498.862,-92.5 664.514,-92.5 "/>
<text text-anchor="start" x="506.862" y="-77.3" font-family="Times,serif" font-size="14.00">id :integer</text>
<text text-anchor="start" x="506.862" y="-63.3" font-family="Times,serif" font-size="14.00">virtualinterface_id :integer</text>
<text text-anchor="start" x="506.862" y="-49.3" font-family="Times,serif" font-size="14.00">interface_id :integer</text>
<text text-anchor="start" x="506.862" y="-35.3" font-family="Times,serif" font-size="14.00">created_at :datetime</text>
<text text-anchor="start" x="506.862" y="-21.3" font-family="Times,serif" font-size="14.00">updated_at :datetime</text>
</g>
<!-- Interface&#45;&gt;Vifmember -->
<g id="edge8" class="edge"><title>Interface&#45;&gt;Vifmember</title>
<path fill="none" stroke="#2a8989" d="M590.203,-346.393C581.792,-334.858 574.37,-322.183 569.688,-309 548.352,-248.924 556.277,-175.247 566.416,-124.771"/>
<ellipse fill="none" stroke="#2a8989" cx="592.837" cy="-349.861" rx="4.00002" ry="4.00002"/>
<polygon fill="#2a8989" stroke="#2a8989" points="566.48,-124.468 572.939,-115.606 567.507,-119.574 568.535,-114.681 568.535,-114.681 568.535,-114.681 567.507,-119.574 564.131,-113.756 566.48,-124.468 566.48,-124.468"/>
</g>
<!-- Virtualinterface -->
<g id="node16" class="node"><title>Virtualinterface</title>
<path fill="none" stroke="black" d="M591.182,-194.5C591.182,-194.5 700.193,-194.5 700.193,-194.5 706.193,-194.5 712.193,-200.5 712.193,-206.5 712.193,-206.5 712.193,-268.5 712.193,-268.5 712.193,-274.5 706.193,-280.5 700.193,-280.5 700.193,-280.5 591.182,-280.5 591.182,-280.5 585.182,-280.5 579.182,-274.5 579.182,-268.5 579.182,-268.5 579.182,-206.5 579.182,-206.5 579.182,-200.5 585.182,-194.5 591.182,-194.5"/>
<text text-anchor="middle" x="645.688" y="-265.3" font-family="Times,serif" font-size="14.00">Virtualinterface</text>
<polyline fill="none" stroke="black" points="579.182,-258.5 712.193,-258.5 "/>
<text text-anchor="start" x="587.182" y="-243.3" font-family="Times,serif" font-size="14.00">id :integer</text>
<text text-anchor="start" x="587.182" y="-229.3" font-family="Times,serif" font-size="14.00">name :string</text>
<text text-anchor="start" x="587.182" y="-215.3" font-family="Times,serif" font-size="14.00">created_at :datetime</text>
<text text-anchor="start" x="587.182" y="-201.3" font-family="Times,serif" font-size="14.00">updated_at :datetime</text>
</g>
<!-- Interface&#45;&gt;Virtualinterface -->
<g id="edge9" class="edge"><title>Interface&#45;&gt;Virtualinterface</title>
<path fill="none" stroke="#8f5e43" d="M645.688,-343.039C645.688,-325.948 645.688,-307.44 645.688,-290.815"/>
<polygon fill="#8f5e43" stroke="#8f5e43" points="645.688,-343.295 641.188,-353.295 645.688,-348.295 645.688,-353.295 645.688,-353.295 645.688,-353.295 645.688,-348.295 650.188,-353.295 645.688,-343.295 645.688,-343.295"/>
<polygon fill="#8f5e43" stroke="#8f5e43" points="645.688,-290.736 650.188,-280.736 645.688,-285.736 645.688,-280.736 645.688,-280.736 645.688,-280.736 645.688,-285.736 641.188,-280.736 645.688,-290.736 645.688,-290.736"/>
</g>
<!-- Iprange -->
<g id="node11" class="node"><title>Iprange</title>
<path fill="none" stroke="black" d="M742.182,-166.5C742.182,-166.5 851.193,-166.5 851.193,-166.5 857.193,-166.5 863.193,-172.5 863.193,-178.5 863.193,-178.5 863.193,-296.5 863.193,-296.5 863.193,-302.5 857.193,-308.5 851.193,-308.5 851.193,-308.5 742.182,-308.5 742.182,-308.5 736.182,-308.5 730.182,-302.5 730.182,-296.5 730.182,-296.5 730.182,-178.5 730.182,-178.5 730.182,-172.5 736.182,-166.5 742.182,-166.5"/>
<text text-anchor="middle" x="796.688" y="-293.3" font-family="Times,serif" font-size="14.00">Iprange</text>
<polyline fill="none" stroke="black" points="730.182,-286.5 863.193,-286.5 "/>
<text text-anchor="start" x="738.182" y="-271.3" font-family="Times,serif" font-size="14.00">id :integer</text>
<text text-anchor="start" x="738.182" y="-257.3" font-family="Times,serif" font-size="14.00">name :string</text>
<text text-anchor="start" x="738.182" y="-243.3" font-family="Times,serif" font-size="14.00">description :string</text>
<text text-anchor="start" x="738.182" y="-229.3" font-family="Times,serif" font-size="14.00">address :string</text>
<text text-anchor="start" x="738.182" y="-215.3" font-family="Times,serif" font-size="14.00">prefix :integer</text>
<text text-anchor="start" x="738.182" y="-201.3" font-family="Times,serif" font-size="14.00">parent_id :integer</text>
<text text-anchor="start" x="738.182" y="-187.3" font-family="Times,serif" font-size="14.00">created_at :datetime</text>
<text text-anchor="start" x="738.182" y="-173.3" font-family="Times,serif" font-size="14.00">updated_at :datetime</text>
</g>
<!-- Iprange&#45;&gt;Ipaddress -->
<g id="edge11" class="edge"><title>Iprange&#45;&gt;Ipaddress</title>
<path fill="none" stroke="#72f842" d="M796.688,-158.168C796.688,-151.662 796.688,-145.1 796.688,-138.634"/>
<ellipse fill="none" stroke="#72f842" cx="796.688" cy="-162.454" rx="4" ry="4"/>
<polygon fill="#72f842" stroke="#72f842" points="796.688,-138.574 801.188,-128.574 796.688,-133.574 796.688,-128.574 796.688,-128.574 796.688,-128.574 796.688,-133.574 792.188,-128.575 796.688,-138.574 796.688,-138.574"/>
</g>
<!-- Iprange&#45;&gt;Iprange -->
<g id="edge10" class="edge"><title>Iprange&#45;&gt;Iprange</title>
<path fill="none" stroke="#49d925" d="M870.975,-250.613C877.269,-247.809 881.193,-243.438 881.193,-237.5 881.193,-232.194 878.06,-228.139 872.901,-225.335"/>
<ellipse fill="none" stroke="#49d925" cx="867.102" cy="-251.836" rx="4.00001" ry="4.00001"/>
<polygon fill="#49d925" stroke="#49d925" points="872.723,-225.273 864.778,-217.714 868.005,-223.616 863.287,-221.96 863.287,-221.96 863.287,-221.96 868.005,-223.616 861.797,-226.206 872.723,-225.273 872.723,-225.273"/>
<text text-anchor="middle" x="904.128" y="-233.3" font-family="Times,serif" font-size="14.00">children</text>
</g>
<!-- Location -->
<g id="node12" class="node"><title>Location</title>
<path fill="none" stroke="black" d="M388.182,-951.5C388.182,-951.5 497.193,-951.5 497.193,-951.5 503.193,-951.5 509.193,-957.5 509.193,-963.5 509.193,-963.5 509.193,-1039.5 509.193,-1039.5 509.193,-1045.5 503.193,-1051.5 497.193,-1051.5 497.193,-1051.5 388.182,-1051.5 388.182,-1051.5 382.182,-1051.5 376.182,-1045.5 376.182,-1039.5 376.182,-1039.5 376.182,-963.5 376.182,-963.5 376.182,-957.5 382.182,-951.5 388.182,-951.5"/>
<text text-anchor="middle" x="442.688" y="-1036.3" font-family="Times,serif" font-size="14.00">Location</text>
<polyline fill="none" stroke="black" points="376.182,-1029.5 509.193,-1029.5 "/>
<text text-anchor="start" x="384.182" y="-1014.3" font-family="Times,serif" font-size="14.00">id :integer</text>
<text text-anchor="start" x="384.182" y="-1000.3" font-family="Times,serif" font-size="14.00">name :string</text>
<text text-anchor="start" x="384.182" y="-986.3" font-family="Times,serif" font-size="14.00">parent_id :integer</text>
<text text-anchor="start" x="384.182" y="-972.3" font-family="Times,serif" font-size="14.00">created_at :datetime</text>
<text text-anchor="start" x="384.182" y="-958.3" font-family="Times,serif" font-size="14.00">updated_at :datetime</text>
</g>
<!-- Location&#45;&gt;Device -->
<g id="edge13" class="edge"><title>Location&#45;&gt;Device</title>
<path fill="none" stroke="#d96601" d="M453.162,-943.238C454.735,-934.642 456.381,-925.645 458.021,-916.677"/>
<ellipse fill="none" stroke="#d96601" cx="452.409" cy="-947.36" rx="4.00001" ry="4.00001"/>
<polygon fill="#d96601" stroke="#d96601" points="458.067,-916.425 464.293,-907.398 458.967,-911.506 459.867,-906.588 459.867,-906.588 459.867,-906.588 458.967,-911.506 455.44,-905.778 458.067,-916.425 458.067,-916.425"/>
</g>
<!-- Location&#45;&gt;Location -->
<g id="edge12" class="edge"><title>Location&#45;&gt;Location</title>
<path fill="none" stroke="#3f3e52" d="M517.373,-1012.42C523.434,-1010.05 527.193,-1006.41 527.193,-1001.5 527.193,-996.592 523.434,-992.952 517.373,-990.58"/>
<ellipse fill="none" stroke="#3f3e52" cx="513.147" cy="-1013.57" rx="4.00001" ry="4.00001"/>
<ellipse fill="#3f3e52" stroke="#3f3e52" cx="513.147" cy="-989.429" rx="4.00001" ry="4.00001"/>
<text text-anchor="middle" x="544.683" y="-997.3" font-family="Times,serif" font-size="14.00">parent</text>
</g>
<!-- Port&#45;&gt;Connection -->
<g id="edge15" class="edge"><title>Port&#45;&gt;Connection</title>
<path fill="none" stroke="#412c90" d="M721.342,-492.112C728.503,-483.785 735.848,-475.244 743.009,-466.917"/>
<ellipse fill="none" stroke="#412c90" cx="718.698" cy="-495.186" rx="4.00002" ry="4.00002"/>
<ellipse fill="#412c90" stroke="#412c90" cx="745.835" cy="-463.631" rx="4.00002" ry="4.00002"/>
</g>
<!-- Port&#45;&gt;Interface -->
<g id="edge14" class="edge"><title>Port&#45;&gt;Interface</title>
<path fill="none" stroke="#335a7d" d="M658.264,-490.247C656.974,-481.452 655.655,-472.455 654.378,-463.755"/>
<ellipse fill="none" stroke="#335a7d" cx="658.853" cy="-494.261" rx="4.00001" ry="4.00001"/>
<polygon fill="#335a7d" stroke="#335a7d" points="654.356,-463.601 657.357,-453.053 653.63,-458.654 652.905,-453.706 652.905,-453.706 652.905,-453.706 653.63,-458.654 648.452,-454.36 654.356,-463.601 654.356,-463.601"/>
</g>
<!-- Porttype&#45;&gt;Port -->
<g id="edge16" class="edge"><title>Porttype&#45;&gt;Port</title>
<path fill="none" stroke="#c72d2e" d="M677.218,-777.291C675.281,-732.415 672.582,-669.884 670.55,-622.82"/>
<ellipse fill="none" stroke="#c72d2e" cx="677.397" cy="-781.443" rx="4" ry="4"/>
<polygon fill="#c72d2e" stroke="#c72d2e" points="670.546,-622.714 674.61,-612.529 670.33,-617.719 670.115,-612.723 670.115,-612.723 670.115,-612.723 670.33,-617.719 665.619,-612.918 670.546,-622.714 670.546,-622.714"/>
</g>
<!-- Virtualinterface&#45;&gt;Ipaddress -->
<g id="edge17" class="edge"><title>Virtualinterface&#45;&gt;Ipaddress</title>
<path fill="none" stroke="#46d542" d="M688.444,-188.08C702.594,-172.057 718.646,-153.878 733.975,-136.52"/>
<ellipse fill="none" stroke="#46d542" cx="685.661" cy="-191.232" rx="4.00002" ry="4.00002"/>
<polygon fill="#46d542" stroke="#46d542" points="734.338,-136.108 744.33,-131.591 737.647,-132.36 740.957,-128.612 740.957,-128.612 740.957,-128.612 737.647,-132.36 737.584,-125.634 734.338,-136.108 734.338,-136.108"/>
</g>
<!-- Virtualinterface&#45;&gt;Vifmember -->
<g id="edge18" class="edge"><title>Virtualinterface&#45;&gt;Vifmember</title>
<path fill="none" stroke="#033bc6" d="M627.048,-186.697C619.709,-167.089 611.228,-144.428 603.599,-124.044"/>
<ellipse fill="none" stroke="#033bc6" cx="628.465" cy="-190.484" rx="4.00001" ry="4.00001"/>
<polygon fill="#033bc6" stroke="#033bc6" points="603.552,-123.917 604.261,-112.974 601.799,-119.235 600.046,-114.552 600.046,-114.552 600.046,-114.552 601.799,-119.235 595.832,-116.129 603.552,-123.917 603.552,-123.917"/>
</g>
</g>
</svg>
