<?xml version="1.0" encoding="UTF-8" standalone="no"?>
<!DOCTYPE svg PUBLIC "-//W3C//DTD SVG 1.1//EN"
 "http://www.w3.org/Graphics/SVG/1.1/DTD/svg11.dtd">
<!-- Generated by graphviz version 2.38.0 (20140413.2041)
 -->
<!-- Title: models_diagram Pages: 1 -->
<svg width="1022pt" height="1081pt"
 viewBox="0.00 0.00 1022.19 1081.00" xmlns="http://www.w3.org/2000/svg" xmlns:xlink="http://www.w3.org/1999/xlink">
<g id="graph0" class="graph" transform="scale(1 1) rotate(0) translate(4 1077)">
<title>models_diagram</title>
<polygon fill="white" stroke="none" points="-4,4 -4,-1077 1018.19,-1077 1018.19,4 -4,4"/>
<!-- _diagram_info -->
<g id="node1" class="node"><title>_diagram_info</title>
<text text-anchor="start" x="8" y="-1037.6" font-family="Times,serif" font-size="13.00">Models diagram</text>
<text text-anchor="start" x="8" y="-1024.6" font-family="Times,serif" font-size="13.00">Date: Jun 26 2015 &#45; 17:01</text>
<text text-anchor="start" x="8" y="-1011.6" font-family="Times,serif" font-size="13.00">Migration version: 20150623183346</text>
<text text-anchor="start" x="8" y="-998.6" font-family="Times,serif" font-size="13.00">Generated by RailRoady 1.3.0</text>
<text text-anchor="start" x="8" y="-985.6" font-family="Times,serif" font-size="13.00">http://railroady.prestonlee.com</text>
</g>
<!-- Asset -->
<g id="node2" class="node"><title>Asset</title>
<path fill="none" stroke="black" d="M591.182,-965.5C591.182,-965.5 700.193,-965.5 700.193,-965.5 706.193,-965.5 712.193,-971.5 712.193,-977.5 712.193,-977.5 712.193,-1053.5 712.193,-1053.5 712.193,-1059.5 706.193,-1065.5 700.193,-1065.5 700.193,-1065.5 591.182,-1065.5 591.182,-1065.5 585.182,-1065.5 579.182,-1059.5 579.182,-1053.5 579.182,-1053.5 579.182,-977.5 579.182,-977.5 579.182,-971.5 585.182,-965.5 591.182,-965.5"/>
<text text-anchor="middle" x="645.688" y="-1050.3" font-family="Times,serif" font-size="14.00">Asset</text>
<polyline fill="none" stroke="black" points="579.182,-1043.5 712.193,-1043.5 "/>
<text text-anchor="start" x="587.182" y="-1028.3" font-family="Times,serif" font-size="14.00">id :integer</text>
<text text-anchor="start" x="587.182" y="-1014.3" font-family="Times,serif" font-size="14.00">serial :string</text>
<text text-anchor="start" x="587.182" y="-1000.3" font-family="Times,serif" font-size="14.00">description :text</text>
<text text-anchor="start" x="587.182" y="-986.3" font-family="Times,serif" font-size="14.00">created_at :datetime</text>
<text text-anchor="start" x="587.182" y="-972.3" font-family="Times,serif" font-size="14.00">updated_at :datetime</text>
</g>
<!-- Device -->
<g id="node7" class="node"><title>Device</title>
<path fill="none" stroke="black" d="M404.296,-778.5C404.296,-778.5 521.079,-778.5 521.079,-778.5 527.079,-778.5 533.079,-784.5 533.079,-790.5 533.079,-790.5 533.079,-908.5 533.079,-908.5 533.079,-914.5 527.079,-920.5 521.079,-920.5 521.079,-920.5 404.296,-920.5 404.296,-920.5 398.296,-920.5 392.296,-914.5 392.296,-908.5 392.296,-908.5 392.296,-790.5 392.296,-790.5 392.296,-784.5 398.296,-778.5 404.296,-778.5"/>
<text text-anchor="middle" x="462.688" y="-905.3" font-family="Times,serif" font-size="14.00">Device</text>
<polyline fill="none" stroke="black" points="392.296,-898.5 533.079,-898.5 "/>
<text text-anchor="start" x="400.296" y="-883.3" font-family="Times,serif" font-size="14.00">id :integer</text>
<text text-anchor="start" x="400.296" y="-869.3" font-family="Times,serif" font-size="14.00">name :string</text>
<text text-anchor="start" x="400.296" y="-855.3" font-family="Times,serif" font-size="14.00">description :text</text>
<text text-anchor="start" x="400.296" y="-841.3" font-family="Times,serif" font-size="14.00">devicetype_id :integer</text>
<text text-anchor="start" x="400.296" y="-827.3" font-family="Times,serif" font-size="14.00">asset_id :integer</text>
<text text-anchor="start" x="400.296" y="-813.3" font-family="Times,serif" font-size="14.00">location_id :integer</text>
<text text-anchor="start" x="400.296" y="-799.3" font-family="Times,serif" font-size="14.00">created_at :datetime</text>
<text text-anchor="start" x="400.296" y="-785.3" font-family="Times,serif" font-size="14.00">updated_at :datetime</text>
</g>
<!-- Asset&#45;&gt;Device -->
<g id="edge1" class="edge"><title>Asset&#45;&gt;Device</title>
<path fill="none" stroke="#cd5b27" d="M584.762,-959.9C570.165,-946.818 554.394,-932.685 539.191,-919.06"/>
<ellipse fill="none" stroke="#cd5b27" cx="587.803" cy="-962.625" rx="4.00002" ry="4.00002"/>
<ellipse fill="#cd5b27" stroke="#cd5b27" cx="536.149" cy="-916.334" rx="4.00002" ry="4.00002"/>
</g>
<!-- Cabletype -->
<g id="node3" class="node"><title>Cabletype</title>
<path fill="none" stroke="black" d="M742.182,-645.5C742.182,-645.5 851.193,-645.5 851.193,-645.5 857.193,-645.5 863.193,-651.5 863.193,-657.5 863.193,-657.5 863.193,-747.5 863.193,-747.5 863.193,-753.5 857.193,-759.5 851.193,-759.5 851.193,-759.5 742.182,-759.5 742.182,-759.5 736.182,-759.5 730.182,-753.5 730.182,-747.5 730.182,-747.5 730.182,-657.5 730.182,-657.5 730.182,-651.5 736.182,-645.5 742.182,-645.5"/>
<text text-anchor="middle" x="796.688" y="-744.3" font-family="Times,serif" font-size="14.00">Cabletype</text>
<polyline fill="none" stroke="black" points="730.182,-737.5 863.193,-737.5 "/>
<text text-anchor="start" x="738.182" y="-722.3" font-family="Times,serif" font-size="14.00">id :integer</text>
<text text-anchor="start" x="738.182" y="-708.3" font-family="Times,serif" font-size="14.00">name :string</text>
<text text-anchor="start" x="738.182" y="-694.3" font-family="Times,serif" font-size="14.00">conn1_id :integer</text>
<text text-anchor="start" x="738.182" y="-680.3" font-family="Times,serif" font-size="14.00">conn2_id :integer</text>
<text text-anchor="start" x="738.182" y="-666.3" font-family="Times,serif" font-size="14.00">created_at :datetime</text>
<text text-anchor="start" x="738.182" y="-652.3" font-family="Times,serif" font-size="14.00">updated_at :datetime</text>
</g>
<!-- Connection -->
<g id="node4" class="node"><title>Connection</title>
<path fill="none" stroke="black" d="M713.796,-346.5C713.796,-346.5 823.579,-346.5 823.579,-346.5 829.579,-346.5 835.579,-352.5 835.579,-358.5 835.579,-358.5 835.579,-462.5 835.579,-462.5 835.579,-468.5 829.579,-474.5 823.579,-474.5 823.579,-474.5 713.796,-474.5 713.796,-474.5 707.796,-474.5 701.796,-468.5 701.796,-462.5 701.796,-462.5 701.796,-358.5 701.796,-358.5 701.796,-352.5 707.796,-346.5 713.796,-346.5"/>
<text text-anchor="middle" x="768.688" y="-459.3" font-family="Times,serif" font-size="14.00">Connection</text>
<polyline fill="none" stroke="black" points="701.796,-452.5 835.579,-452.5 "/>
<text text-anchor="start" x="709.796" y="-437.3" font-family="Times,serif" font-size="14.00">id :integer</text>
<text text-anchor="start" x="709.796" y="-423.3" font-family="Times,serif" font-size="14.00">cabletype_id :integer</text>
<text text-anchor="start" x="709.796" y="-409.3" font-family="Times,serif" font-size="14.00">porta_id :integer</text>
<text text-anchor="start" x="709.796" y="-395.3" font-family="Times,serif" font-size="14.00">portb_id :integer</text>
<text text-anchor="start" x="709.796" y="-381.3" font-family="Times,serif" font-size="14.00">inverse_id :integer</text>
<text text-anchor="start" x="709.796" y="-367.3" font-family="Times,serif" font-size="14.00">created_at :datetime</text>
<text text-anchor="start" x="709.796" y="-353.3" font-family="Times,serif" font-size="14.00">updated_at :datetime</text>
</g>
<!-- Cabletype&#45;&gt;Connection -->
<g id="edge2" class="edge"><title>Cabletype&#45;&gt;Connection</title>
<path fill="none" stroke="#29001e" d="M790.463,-637.026C786.11,-591.943 780.289,-531.653 775.76,-484.752"/>
<ellipse fill="none" stroke="#29001e" cx="790.871" cy="-641.26" rx="4" ry="4"/>
<polygon fill="#29001e" stroke="#29001e" points="775.747,-484.609 779.265,-474.223 775.266,-479.632 774.786,-474.655 774.786,-474.655 774.786,-474.655 775.266,-479.632 770.306,-475.088 775.747,-484.609 775.747,-484.609"/>
</g>
<!-- Connectortype -->
<g id="node5" class="node"><title>Connectortype</title>
<path fill="none" stroke="black" d="M742.182,-972.5C742.182,-972.5 851.193,-972.5 851.193,-972.5 857.193,-972.5 863.193,-978.5 863.193,-984.5 863.193,-984.5 863.193,-1046.5 863.193,-1046.5 863.193,-1052.5 857.193,-1058.5 851.193,-1058.5 851.193,-1058.5 742.182,-1058.5 742.182,-1058.5 736.182,-1058.5 730.182,-1052.5 730.182,-1046.5 730.182,-1046.5 730.182,-984.5 730.182,-984.5 730.182,-978.5 736.182,-972.5 742.182,-972.5"/>
<text text-anchor="middle" x="796.688" y="-1043.3" font-family="Times,serif" font-size="14.00">Connectortype</text>
<polyline fill="none" stroke="black" points="730.182,-1036.5 863.193,-1036.5 "/>
<text text-anchor="start" x="738.182" y="-1021.3" font-family="Times,serif" font-size="14.00">id :integer</text>
<text text-anchor="start" x="738.182" y="-1007.3" font-family="Times,serif" font-size="14.00">name :string</text>
<text text-anchor="start" x="738.182" y="-993.3" font-family="Times,serif" font-size="14.00">created_at :datetime</text>
<text text-anchor="start" x="738.182" y="-979.3" font-family="Times,serif" font-size="14.00">updated_at :datetime</text>
</g>
<!-- Connectortype&#45;&gt;Cabletype -->
<g id="edge4" class="edge"><title>Connectortype&#45;&gt;Cabletype</title>
<path fill="none" stroke="#17edce" d="M796.688,-964.227C796.688,-911.389 796.688,-828.016 796.688,-769.819"/>
<ellipse fill="none" stroke="#17edce" cx="796.688" cy="-968.233" rx="4" ry="4"/>
<polygon fill="#17edce" stroke="#17edce" points="796.688,-769.621 801.188,-759.621 796.688,-764.621 796.688,-759.621 796.688,-759.621 796.688,-759.621 796.688,-764.621 792.188,-759.621 796.688,-769.621 796.688,-769.621"/>
</g>
<!-- Porttype -->
<g id="node14" class="node"><title>Porttype</title>
<path fill="none" stroke="black" d="M601.965,-799.5C601.965,-799.5 737.41,-799.5 737.41,-799.5 743.41,-799.5 749.41,-805.5 749.41,-811.5 749.41,-811.5 749.41,-887.5 749.41,-887.5 749.41,-893.5 743.41,-899.5 737.41,-899.5 737.41,-899.5 601.965,-899.5 601.965,-899.5 595.965,-899.5 589.965,-893.5 589.965,-887.5 589.965,-887.5 589.965,-811.5 589.965,-811.5 589.965,-805.5 595.965,-799.5 601.965,-799.5"/>
<text text-anchor="middle" x="669.688" y="-884.3" font-family="Times,serif" font-size="14.00">Porttype</text>
<polyline fill="none" stroke="black" points="589.965,-877.5 749.41,-877.5 "/>
<text text-anchor="start" x="597.965" y="-862.3" font-family="Times,serif" font-size="14.00">id :integer</text>
<text text-anchor="start" x="597.965" y="-848.3" font-family="Times,serif" font-size="14.00">name :string</text>
<text text-anchor="start" x="597.965" y="-834.3" font-family="Times,serif" font-size="14.00">connectortype_id :integer</text>
<text text-anchor="start" x="597.965" y="-820.3" font-family="Times,serif" font-size="14.00">created_at :datetime</text>
<text text-anchor="start" x="597.965" y="-806.3" font-family="Times,serif" font-size="14.00">updated_at :datetime</text>
</g>
<!-- Connectortype&#45;&gt;Porttype -->
<g id="edge3" class="edge"><title>Connectortype&#45;&gt;Porttype</title>
<path fill="none" stroke="#74fd47" d="M759.046,-965.892C744.868,-947.584 728.616,-926.596 713.893,-907.584"/>
<ellipse fill="none" stroke="#74fd47" cx="761.533" cy="-969.103" rx="4.00002" ry="4.00002"/>
<polygon fill="#74fd47" stroke="#74fd47" points="713.81,-907.477 711.245,-896.815 710.748,-903.523 707.687,-899.57 707.687,-899.57 707.687,-899.57 710.748,-903.523 704.129,-902.325 713.81,-907.477 713.81,-907.477"/>
</g>
<!-- Contact -->
<g id="node6" class="node"><title>Contact</title>
<path fill="none" stroke="black" d="M893.182,-958.5C893.182,-958.5 1002.19,-958.5 1002.19,-958.5 1008.19,-958.5 1014.19,-964.5 1014.19,-970.5 1014.19,-970.5 1014.19,-1060.5 1014.19,-1060.5 1014.19,-1066.5 1008.19,-1072.5 1002.19,-1072.5 1002.19,-1072.5 893.182,-1072.5 893.182,-1072.5 887.182,-1072.5 881.182,-1066.5 881.182,-1060.5 881.182,-1060.5 881.182,-970.5 881.182,-970.5 881.182,-964.5 887.182,-958.5 893.182,-958.5"/>
<text text-anchor="middle" x="947.688" y="-1057.3" font-family="Times,serif" font-size="14.00">Contact</text>
<polyline fill="none" stroke="black" points="881.182,-1050.5 1014.19,-1050.5 "/>
<text text-anchor="start" x="889.182" y="-1035.3" font-family="Times,serif" font-size="14.00">id :integer</text>
<text text-anchor="start" x="889.182" y="-1021.3" font-family="Times,serif" font-size="14.00">name :string</text>
<text text-anchor="start" x="889.182" y="-1007.3" font-family="Times,serif" font-size="14.00">email :string</text>
<text text-anchor="start" x="889.182" y="-993.3" font-family="Times,serif" font-size="14.00">phone :string</text>
<text text-anchor="start" x="889.182" y="-979.3" font-family="Times,serif" font-size="14.00">created_at :datetime</text>
<text text-anchor="start" x="889.182" y="-965.3" font-family="Times,serif" font-size="14.00">updated_at :datetime</text>
</g>
<!-- Port -->
<g id="node13" class="node"><title>Port</title>
<path fill="none" stroke="black" d="M536.182,-512.5C536.182,-512.5 645.193,-512.5 645.193,-512.5 651.193,-512.5 657.193,-518.5 657.193,-524.5 657.193,-524.5 657.193,-614.5 657.193,-614.5 657.193,-620.5 651.193,-626.5 645.193,-626.5 645.193,-626.5 536.182,-626.5 536.182,-626.5 530.182,-626.5 524.182,-620.5 524.182,-614.5 524.182,-614.5 524.182,-524.5 524.182,-524.5 524.182,-518.5 530.182,-512.5 536.182,-512.5"/>
<text text-anchor="middle" x="590.688" y="-611.3" font-family="Times,serif" font-size="14.00">Port</text>
<polyline fill="none" stroke="black" points="524.182,-604.5 657.193,-604.5 "/>
<text text-anchor="start" x="532.182" y="-589.3" font-family="Times,serif" font-size="14.00">id :integer</text>
<text text-anchor="start" x="532.182" y="-575.3" font-family="Times,serif" font-size="14.00">name :string</text>
<text text-anchor="start" x="532.182" y="-561.3" font-family="Times,serif" font-size="14.00">porttype_id :integer</text>
<text text-anchor="start" x="532.182" y="-547.3" font-family="Times,serif" font-size="14.00">device_id :integer</text>
<text text-anchor="start" x="532.182" y="-533.3" font-family="Times,serif" font-size="14.00">created_at :datetime</text>
<text text-anchor="start" x="532.182" y="-519.3" font-family="Times,serif" font-size="14.00">updated_at :datetime</text>
</g>
<!-- Device&#45;&gt;Port -->
<g id="edge5" class="edge"><title>Device&#45;&gt;Port</title>
<path fill="none" stroke="#677b71" d="M498.461,-770.806C518.029,-728.306 542,-676.243 560.599,-635.849"/>
<ellipse fill="none" stroke="#677b71" cx="496.66" cy="-774.715" rx="4.00002" ry="4.00002"/>
<polygon fill="#677b71" stroke="#677b71" points="560.66,-635.715 568.93,-628.514 562.752,-631.174 564.843,-626.632 564.843,-626.632 564.843,-626.632 562.752,-631.174 560.755,-624.75 560.66,-635.715 560.66,-635.715"/>
</g>
<!-- Devicetype -->
<g id="node8" class="node"><title>Devicetype</title>
<path fill="none" stroke="black" d="M237.182,-972.5C237.182,-972.5 346.193,-972.5 346.193,-972.5 352.193,-972.5 358.193,-978.5 358.193,-984.5 358.193,-984.5 358.193,-1046.5 358.193,-1046.5 358.193,-1052.5 352.193,-1058.5 346.193,-1058.5 346.193,-1058.5 237.182,-1058.5 237.182,-1058.5 231.182,-1058.5 225.182,-1052.5 225.182,-1046.5 225.182,-1046.5 225.182,-984.5 225.182,-984.5 225.182,-978.5 231.182,-972.5 237.182,-972.5"/>
<text text-anchor="middle" x="291.688" y="-1043.3" font-family="Times,serif" font-size="14.00">Devicetype</text>
<polyline fill="none" stroke="black" points="225.182,-1036.5 358.193,-1036.5 "/>
<text text-anchor="start" x="233.182" y="-1021.3" font-family="Times,serif" font-size="14.00">id :integer</text>
<text text-anchor="start" x="233.182" y="-1007.3" font-family="Times,serif" font-size="14.00">name :string</text>
<text text-anchor="start" x="233.182" y="-993.3" font-family="Times,serif" font-size="14.00">created_at :datetime</text>
<text text-anchor="start" x="233.182" y="-979.3" font-family="Times,serif" font-size="14.00">updated_at :datetime</text>
</g>
<!-- Devicetype&#45;&gt;Device -->
<g id="edge6" class="edge"><title>Devicetype&#45;&gt;Device</title>
<path fill="none" stroke="#4d52c2" d="M341.893,-966.35C355.318,-953.474 370.151,-939.249 384.692,-925.303"/>
<ellipse fill="none" stroke="#4d52c2" cx="338.611" cy="-969.497" rx="4.00002" ry="4.00002"/>
<polygon fill="#4d52c2" stroke="#4d52c2" points="385.043,-924.966 395.375,-921.292 388.652,-921.505 392.26,-918.045 392.26,-918.045 392.26,-918.045 388.652,-921.505 389.145,-914.797 385.043,-924.966 385.043,-924.966"/>
</g>
<!-- Interface -->
<g id="node9" class="node"><title>Interface</title>
<path fill="none" stroke="black" d="M536.182,-360.5C536.182,-360.5 645.193,-360.5 645.193,-360.5 651.193,-360.5 657.193,-366.5 657.193,-372.5 657.193,-372.5 657.193,-448.5 657.193,-448.5 657.193,-454.5 651.193,-460.5 645.193,-460.5 645.193,-460.5 536.182,-460.5 536.182,-460.5 530.182,-460.5 524.182,-454.5 524.182,-448.5 524.182,-448.5 524.182,-372.5 524.182,-372.5 524.182,-366.5 530.182,-360.5 536.182,-360.5"/>
<text text-anchor="middle" x="590.688" y="-445.3" font-family="Times,serif" font-size="14.00">Interface</text>
<polyline fill="none" stroke="black" points="524.182,-438.5 657.193,-438.5 "/>
<text text-anchor="start" x="532.182" y="-423.3" font-family="Times,serif" font-size="14.00">id :integer</text>
<text text-anchor="start" x="532.182" y="-409.3" font-family="Times,serif" font-size="14.00">name :string</text>
<text text-anchor="start" x="532.182" y="-395.3" font-family="Times,serif" font-size="14.00">port_id :integer</text>
<text text-anchor="start" x="532.182" y="-381.3" font-family="Times,serif" font-size="14.00">created_at :datetime</text>
<text text-anchor="start" x="532.182" y="-367.3" font-family="Times,serif" font-size="14.00">updated_at :datetime</text>
</g>
<!-- Ipaddress -->
<g id="node10" class="node"><title>Ipaddress</title>
<path fill="none" stroke="black" d="M670.862,-0.5C670.862,-0.5 812.514,-0.5 812.514,-0.5 818.514,-0.5 824.514,-6.5 824.514,-12.5 824.514,-12.5 824.514,-116.5 824.514,-116.5 824.514,-122.5 818.514,-128.5 812.514,-128.5 812.514,-128.5 670.862,-128.5 670.862,-128.5 664.862,-128.5 658.862,-122.5 658.862,-116.5 658.862,-116.5 658.862,-12.5 658.862,-12.5 658.862,-6.5 664.862,-0.5 670.862,-0.5"/>
<text text-anchor="middle" x="741.688" y="-113.3" font-family="Times,serif" font-size="14.00">Ipaddress</text>
<polyline fill="none" stroke="black" points="658.862,-106.5 824.514,-106.5 "/>
<text text-anchor="start" x="666.862" y="-91.3" font-family="Times,serif" font-size="14.00">id :integer</text>
<text text-anchor="start" x="666.862" y="-77.3" font-family="Times,serif" font-size="14.00">address :string</text>
<text text-anchor="start" x="666.862" y="-63.3" font-family="Times,serif" font-size="14.00">parent_id :integer</text>
<text text-anchor="start" x="666.862" y="-49.3" font-family="Times,serif" font-size="14.00">interface_id :integer</text>
<text text-anchor="start" x="666.862" y="-35.3" font-family="Times,serif" font-size="14.00">virtualinterface_id :integer</text>
<text text-anchor="start" x="666.862" y="-21.3" font-family="Times,serif" font-size="14.00">created_at :datetime</text>
<text text-anchor="start" x="666.862" y="-7.3" font-family="Times,serif" font-size="14.00">updated_at :datetime</text>
</g>
<!-- Interface&#45;&gt;Ipaddress -->
<g id="edge7" class="edge"><title>Interface&#45;&gt;Ipaddress</title>
<path fill="none" stroke="#57e286" d="M664.479,-359.322C673.727,-354.316 683.255,-349.719 692.688,-346 771.91,-314.763 826.597,-374.774 880.688,-309 921.057,-259.912 909.607,-222.595 880.688,-166 869.839,-144.769 852.181,-126.988 833.033,-112.576"/>
<ellipse fill="none" stroke="#57e286" cx="660.964" cy="-361.278" rx="4.00002" ry="4.00002"/>
<polygon fill="#57e286" stroke="#57e286" points="832.863,-112.453 827.383,-102.955 828.807,-109.529 824.752,-106.605 824.752,-106.605 824.752,-106.605 828.807,-109.529 822.12,-110.256 832.863,-112.453 832.863,-112.453"/>
</g>
<!-- Vifmember -->
<g id="node15" class="node"><title>Vifmember</title>
<path fill="none" stroke="black" d="M455.862,-14.5C455.862,-14.5 597.514,-14.5 597.514,-14.5 603.514,-14.5 609.514,-20.5 609.514,-26.5 609.514,-26.5 609.514,-102.5 609.514,-102.5 609.514,-108.5 603.514,-114.5 597.514,-114.5 597.514,-114.5 455.862,-114.5 455.862,-114.5 449.862,-114.5 443.862,-108.5 443.862,-102.5 443.862,-102.5 443.862,-26.5 443.862,-26.5 443.862,-20.5 449.862,-14.5 455.862,-14.5"/>
<text text-anchor="middle" x="526.688" y="-99.3" font-family="Times,serif" font-size="14.00">Vifmember</text>
<polyline fill="none" stroke="black" points="443.862,-92.5 609.514,-92.5 "/>
<text text-anchor="start" x="451.862" y="-77.3" font-family="Times,serif" font-size="14.00">id :integer</text>
<text text-anchor="start" x="451.862" y="-63.3" font-family="Times,serif" font-size="14.00">virtualinterface_id :integer</text>
<text text-anchor="start" x="451.862" y="-49.3" font-family="Times,serif" font-size="14.00">interface_id :integer</text>
<text text-anchor="start" x="451.862" y="-35.3" font-family="Times,serif" font-size="14.00">created_at :datetime</text>
<text text-anchor="start" x="451.862" y="-21.3" font-family="Times,serif" font-size="14.00">updated_at :datetime</text>
</g>
<!-- Interface&#45;&gt;Vifmember -->
<g id="edge8" class="edge"><title>Interface&#45;&gt;Vifmember</title>
<path fill="none" stroke="#62d4f3" d="M538.67,-353.72C528.836,-340.044 519.98,-324.773 514.688,-309 494.408,-248.56 502.146,-174.947 511.953,-124.586"/>
<ellipse fill="none" stroke="#62d4f3" cx="541.178" cy="-357.091" rx="4.00002" ry="4.00002"/>
<polygon fill="#62d4f3" stroke="#62d4f3" points="512.007,-124.319 518.411,-115.417 513.004,-119.42 514.001,-114.52 514.001,-114.52 514.001,-114.52 513.004,-119.42 509.591,-113.623 512.007,-124.319 512.007,-124.319"/>
</g>
<!-- Virtualinterface -->
<g id="node16" class="node"><title>Virtualinterface</title>
<path fill="none" stroke="black" d="M536.182,-194.5C536.182,-194.5 645.193,-194.5 645.193,-194.5 651.193,-194.5 657.193,-200.5 657.193,-206.5 657.193,-206.5 657.193,-268.5 657.193,-268.5 657.193,-274.5 651.193,-280.5 645.193,-280.5 645.193,-280.5 536.182,-280.5 536.182,-280.5 530.182,-280.5 524.182,-274.5 524.182,-268.5 524.182,-268.5 524.182,-206.5 524.182,-206.5 524.182,-200.5 530.182,-194.5 536.182,-194.5"/>
<text text-anchor="middle" x="590.688" y="-265.3" font-family="Times,serif" font-size="14.00">Virtualinterface</text>
<polyline fill="none" stroke="black" points="524.182,-258.5 657.193,-258.5 "/>
<text text-anchor="start" x="532.182" y="-243.3" font-family="Times,serif" font-size="14.00">id :integer</text>
<text text-anchor="start" x="532.182" y="-229.3" font-family="Times,serif" font-size="14.00">name :string</text>
<text text-anchor="start" x="532.182" y="-215.3" font-family="Times,serif" font-size="14.00">created_at :datetime</text>
<text text-anchor="start" x="532.182" y="-201.3" font-family="Times,serif" font-size="14.00">updated_at :datetime</text>
</g>
<!-- Interface&#45;&gt;Virtualinterface -->
<g id="edge9" class="edge"><title>Interface&#45;&gt;Virtualinterface</title>
<path fill="none" stroke="#e35fbb" d="M590.688,-350.492C590.688,-331.071 590.688,-309.628 590.688,-290.747"/>
<polygon fill="#e35fbb" stroke="#e35fbb" points="590.688,-350.498 586.188,-360.498 590.688,-355.498 590.688,-360.498 590.688,-360.498 590.688,-360.498 590.688,-355.498 595.188,-360.498 590.688,-350.498 590.688,-350.498"/>
<polygon fill="#e35fbb" stroke="#e35fbb" points="590.688,-290.55 595.188,-280.55 590.688,-285.55 590.688,-280.55 590.688,-280.55 590.688,-280.55 590.688,-285.55 586.188,-280.55 590.688,-290.55 590.688,-290.55"/>
</g>
<!-- Iprange -->
<g id="node11" class="node"><title>Iprange</title>
<path fill="none" stroke="black" d="M687.182,-166.5C687.182,-166.5 796.193,-166.5 796.193,-166.5 802.193,-166.5 808.193,-172.5 808.193,-178.5 808.193,-178.5 808.193,-296.5 808.193,-296.5 808.193,-302.5 802.193,-308.5 796.193,-308.5 796.193,-308.5 687.182,-308.5 687.182,-308.5 681.182,-308.5 675.182,-302.5 675.182,-296.5 675.182,-296.5 675.182,-178.5 675.182,-178.5 675.182,-172.5 681.182,-166.5 687.182,-166.5"/>
<text text-anchor="middle" x="741.688" y="-293.3" font-family="Times,serif" font-size="14.00">Iprange</text>
<polyline fill="none" stroke="black" points="675.182,-286.5 808.193,-286.5 "/>
<text text-anchor="start" x="683.182" y="-271.3" font-family="Times,serif" font-size="14.00">id :integer</text>
<text text-anchor="start" x="683.182" y="-257.3" font-family="Times,serif" font-size="14.00">name :string</text>
<text text-anchor="start" x="683.182" y="-243.3" font-family="Times,serif" font-size="14.00">description :string</text>
<text text-anchor="start" x="683.182" y="-229.3" font-family="Times,serif" font-size="14.00">address :string</text>
<text text-anchor="start" x="683.182" y="-215.3" font-family="Times,serif" font-size="14.00">prefix :integer</text>
<text text-anchor="start" x="683.182" y="-201.3" font-family="Times,serif" font-size="14.00">parent_id :integer</text>
<text text-anchor="start" x="683.182" y="-187.3" font-family="Times,serif" font-size="14.00">created_at :datetime</text>
<text text-anchor="start" x="683.182" y="-173.3" font-family="Times,serif" font-size="14.00">updated_at :datetime</text>
</g>
<!-- Iprange&#45;&gt;Ipaddress -->
<g id="edge11" class="edge"><title>Iprange&#45;&gt;Ipaddress</title>
<path fill="none" stroke="#78ade5" d="M741.688,-158.168C741.688,-151.662 741.688,-145.1 741.688,-138.634"/>
<ellipse fill="none" stroke="#78ade5" cx="741.688" cy="-162.454" rx="4" ry="4"/>
<polygon fill="#78ade5" stroke="#78ade5" points="741.688,-138.574 746.188,-128.574 741.688,-133.574 741.688,-128.574 741.688,-128.574 741.688,-128.574 741.688,-133.574 737.188,-128.575 741.688,-138.574 741.688,-138.574"/>
</g>
<!-- Iprange&#45;&gt;Iprange -->
<g id="edge10" class="edge"><title>Iprange&#45;&gt;Iprange</title>
<path fill="none" stroke="#af5741" d="M815.975,-250.613C822.269,-247.809 826.193,-243.438 826.193,-237.5 826.193,-232.194 823.06,-228.139 817.901,-225.335"/>
<ellipse fill="none" stroke="#af5741" cx="812.102" cy="-251.836" rx="4.00001" ry="4.00001"/>
<polygon fill="#af5741" stroke="#af5741" points="817.723,-225.273 809.778,-217.714 813.005,-223.616 808.287,-221.96 808.287,-221.96 808.287,-221.96 813.005,-223.616 806.797,-226.206 817.723,-225.273 817.723,-225.273"/>
<text text-anchor="middle" x="849.128" y="-233.3" font-family="Times,serif" font-size="14.00">children</text>
</g>
<!-- Location -->
<g id="node12" class="node"><title>Location</title>
<path fill="none" stroke="black" d="M388.182,-965.5C388.182,-965.5 497.193,-965.5 497.193,-965.5 503.193,-965.5 509.193,-971.5 509.193,-977.5 509.193,-977.5 509.193,-1053.5 509.193,-1053.5 509.193,-1059.5 503.193,-1065.5 497.193,-1065.5 497.193,-1065.5 388.182,-1065.5 388.182,-1065.5 382.182,-1065.5 376.182,-1059.5 376.182,-1053.5 376.182,-1053.5 376.182,-977.5 376.182,-977.5 376.182,-971.5 382.182,-965.5 388.182,-965.5"/>
<text text-anchor="middle" x="442.688" y="-1050.3" font-family="Times,serif" font-size="14.00">Location</text>
<polyline fill="none" stroke="black" points="376.182,-1043.5 509.193,-1043.5 "/>
<text text-anchor="start" x="384.182" y="-1028.3" font-family="Times,serif" font-size="14.00">id :integer</text>
<text text-anchor="start" x="384.182" y="-1014.3" font-family="Times,serif" font-size="14.00">name :string</text>
<text text-anchor="start" x="384.182" y="-1000.3" font-family="Times,serif" font-size="14.00">parent_id :integer</text>
<text text-anchor="start" x="384.182" y="-986.3" font-family="Times,serif" font-size="14.00">created_at :datetime</text>
<text text-anchor="start" x="384.182" y="-972.3" font-family="Times,serif" font-size="14.00">updated_at :datetime</text>
</g>
<!-- Location&#45;&gt;Device -->
<g id="edge13" class="edge"><title>Location&#45;&gt;Device</title>
<path fill="none" stroke="#12a8be" d="M449.671,-957.238C450.719,-948.642 451.816,-939.645 452.91,-930.677"/>
<ellipse fill="none" stroke="#12a8be" cx="449.173" cy="-961.324" rx="4.00001" ry="4.00001"/>
<polygon fill="#12a8be" stroke="#12a8be" points="452.93,-930.514 458.607,-921.133 453.535,-925.551 454.14,-920.588 454.14,-920.588 454.14,-920.588 453.535,-925.551 449.674,-920.043 452.93,-930.514 452.93,-930.514"/>
</g>
<!-- Location&#45;&gt;Location -->
<g id="edge12" class="edge"><title>Location&#45;&gt;Location</title>
<path fill="none" stroke="#86c5fa" d="M517.373,-1026.42C523.434,-1024.05 527.193,-1020.41 527.193,-1015.5 527.193,-1010.59 523.434,-1006.95 517.373,-1004.58"/>
<ellipse fill="none" stroke="#86c5fa" cx="513.147" cy="-1027.57" rx="4.00001" ry="4.00001"/>
<ellipse fill="#86c5fa" stroke="#86c5fa" cx="513.147" cy="-1003.43" rx="4.00001" ry="4.00001"/>
<text text-anchor="middle" x="544.683" y="-1011.3" font-family="Times,serif" font-size="14.00">parent</text>
</g>
<!-- Port&#45;&gt;Connection -->
<g id="edge16" class="edge"><title>Port&#45;&gt;Connection</title>
<path fill="none" stroke="#da6183" d="M660.376,-507.033C671.921,-496.85 683.922,-486.266 695.549,-476.01"/>
<ellipse fill="none" stroke="#da6183" cx="657.196" cy="-509.838" rx="4.00002" ry="4.00002"/>
<ellipse fill="#da6183" stroke="#da6183" cx="698.591" cy="-473.327" rx="4.00002" ry="4.00002"/>
</g>
<!-- Port&#45;&gt;Interface -->
<g id="edge14" class="edge"><title>Port&#45;&gt;Interface</title>
<path fill="none" stroke="#0fa024" d="M590.688,-504.248C590.688,-493.201 590.688,-481.764 590.688,-470.854"/>
<ellipse fill="none" stroke="#0fa024" cx="590.688" cy="-508.263" rx="4" ry="4"/>
<polygon fill="#0fa024" stroke="#0fa024" points="590.688,-470.584 595.188,-460.584 590.688,-465.584 590.688,-460.584 590.688,-460.584 590.688,-460.584 590.688,-465.584 586.188,-460.584 590.688,-470.584 590.688,-470.584"/>
</g>
<!-- Port&#45;&gt;Port -->
<g id="edge15" class="edge"><title>Port&#45;&gt;Port</title>
<path fill="none" stroke="#6f763c" d="M665.373,-580.42C671.434,-578.048 675.193,-574.408 675.193,-569.5 675.193,-564.592 671.434,-560.952 665.373,-558.58"/>
<ellipse fill="none" stroke="#6f763c" cx="661.147" cy="-581.571" rx="4.00001" ry="4.00001"/>
<ellipse fill="#6f763c" stroke="#6f763c" cx="661.147" cy="-557.429" rx="4.00001" ry="4.00001"/>
<text text-anchor="middle" x="721.831" y="-565.3" font-family="Times,serif" font-size="14.00">connecteddevice</text>
</g>
<!-- Porttype&#45;&gt;Port -->
<g id="edge17" class="edge"><title>Porttype&#45;&gt;Port</title>
<path fill="none" stroke="#577c4d" d="M653.515,-791.59C640.732,-746.605 622.869,-683.745 609.456,-636.545"/>
<ellipse fill="none" stroke="#577c4d" cx="654.653" cy="-795.591" rx="4.00001" ry="4.00001"/>
<polygon fill="#577c4d" stroke="#577c4d" points="609.398,-636.343 610.994,-625.493 608.032,-631.533 606.665,-626.723 606.665,-626.723 606.665,-626.723 608.032,-631.533 602.336,-627.954 609.398,-636.343 609.398,-636.343"/>
</g>
<!-- Virtualinterface&#45;&gt;Ipaddress -->
<g id="edge18" class="edge"><title>Virtualinterface&#45;&gt;Ipaddress</title>
<path fill="none" stroke="#010971" d="M633.444,-188.08C647.594,-172.057 663.646,-153.878 678.975,-136.52"/>
<ellipse fill="none" stroke="#010971" cx="630.661" cy="-191.232" rx="4.00002" ry="4.00002"/>
<polygon fill="#010971" stroke="#010971" points="679.338,-136.108 689.33,-131.591 682.647,-132.36 685.957,-128.612 685.957,-128.612 685.957,-128.612 682.647,-132.36 682.584,-125.634 679.338,-136.108 679.338,-136.108"/>
</g>
<!-- Virtualinterface&#45;&gt;Vifmember -->
<g id="edge19" class="edge"><title>Virtualinterface&#45;&gt;Vifmember</title>
<path fill="none" stroke="#fe2684" d="M572.048,-186.697C564.709,-167.089 556.228,-144.428 548.599,-124.044"/>
<ellipse fill="none" stroke="#fe2684" cx="573.465" cy="-190.484" rx="4.00001" ry="4.00001"/>
<polygon fill="#fe2684" stroke="#fe2684" points="548.552,-123.917 549.261,-112.974 546.799,-119.235 545.046,-114.552 545.046,-114.552 545.046,-114.552 546.799,-119.235 540.832,-116.129 548.552,-123.917 548.552,-123.917"/>
</g>
</g>
</svg>
