<?xml version="1.0" encoding="UTF-8" standalone="no"?>
<!DOCTYPE svg PUBLIC "-//W3C//DTD SVG 1.1//EN"
 "http://www.w3.org/Graphics/SVG/1.1/DTD/svg11.dtd">
<!-- Generated by graphviz version 2.38.0 (20140413.2041)
 -->
<!-- Title: models_diagram Pages: 1 -->
<svg width="800pt" height="481pt"
 viewBox="0.00 0.00 800.30 481.00" xmlns="http://www.w3.org/2000/svg" xmlns:xlink="http://www.w3.org/1999/xlink">
<g id="graph0" class="graph" transform="scale(1 1) rotate(0) translate(4 477)">
<title>models_diagram</title>
<polygon fill="white" stroke="none" points="-4,4 -4,-477 796.301,-477 796.301,4 -4,4"/>
<!-- _diagram_info -->
<g id="node1" class="node"><title>_diagram_info</title>
<text text-anchor="start" x="8" y="-458.6" font-family="Times,serif" font-size="13.00">Models diagram</text>
<text text-anchor="start" x="8" y="-445.6" font-family="Times,serif" font-size="13.00">Date: Jun 24 2015 &#45; 01:19</text>
<text text-anchor="start" x="8" y="-432.6" font-family="Times,serif" font-size="13.00">Migration version: 20150623183346</text>
<text text-anchor="start" x="8" y="-419.6" font-family="Times,serif" font-size="13.00">Generated by RailRoady 1.3.0</text>
<text text-anchor="start" x="8" y="-406.6" font-family="Times,serif" font-size="13.00">http://railroady.prestonlee.com</text>
</g>
<!-- Asset -->
<g id="node2" class="node"><title>Asset</title>
<ellipse fill="none" stroke="black" cx="526.688" cy="-436.5" rx="29.5189" ry="18"/>
<text text-anchor="middle" x="526.688" y="-432.3" font-family="Times,serif" font-size="14.00">Asset</text>
</g>
<!-- Device -->
<g id="node7" class="node"><title>Device</title>
<ellipse fill="none" stroke="black" cx="422.688" cy="-345" rx="35.2956" ry="18"/>
<text text-anchor="middle" x="422.688" y="-340.8" font-family="Times,serif" font-size="14.00">Device</text>
</g>
<!-- Asset&#45;&gt;Device -->
<g id="edge1" class="edge"><title>Asset&#45;&gt;Device</title>
<path fill="none" stroke="#75394c" d="M505.31,-415.069C499.946,-410.07 494.159,-404.784 488.688,-400 475.307,-388.298 459.959,-375.694 447.433,-365.608"/>
<ellipse fill="none" stroke="#75394c" cx="508.453" cy="-418.02" rx="4.00002" ry="4.00002"/>
<ellipse fill="#75394c" stroke="#75394c" cx="444.285" cy="-363.084" rx="4.00002" ry="4.00002"/>
</g>
<!-- Cabletype -->
<g id="node3" class="node"><title>Cabletype</title>
<ellipse fill="none" stroke="black" cx="636.688" cy="-291" rx="45.92" ry="18"/>
<text text-anchor="middle" x="636.688" y="-286.8" font-family="Times,serif" font-size="14.00">Cabletype</text>
</g>
<!-- Connection -->
<g id="node4" class="node"><title>Connection</title>
<ellipse fill="none" stroke="black" cx="636.688" cy="-164" rx="50.7569" ry="18"/>
<text text-anchor="middle" x="636.688" y="-159.8" font-family="Times,serif" font-size="14.00">Connection</text>
</g>
<!-- Cabletype&#45;&gt;Connection -->
<g id="edge2" class="edge"><title>Cabletype&#45;&gt;Connection</title>
<path fill="none" stroke="#1111e3" d="M636.688,-264.759C636.688,-243.791 636.688,-214.012 636.688,-192.454"/>
<ellipse fill="none" stroke="#1111e3" cx="636.688" cy="-268.881" rx="4" ry="4"/>
<polygon fill="#1111e3" stroke="#1111e3" points="636.688,-192.313 641.188,-182.313 636.688,-187.313 636.688,-182.313 636.688,-182.313 636.688,-182.313 636.688,-187.313 632.188,-182.313 636.688,-192.313 636.688,-192.313"/>
</g>
<!-- Connectortype -->
<g id="node5" class="node"><title>Connectortype</title>
<ellipse fill="none" stroke="black" cx="636.688" cy="-436.5" rx="62.3407" ry="18"/>
<text text-anchor="middle" x="636.688" y="-432.3" font-family="Times,serif" font-size="14.00">Connectortype</text>
</g>
<!-- Connectortype&#45;&gt;Cabletype -->
<g id="edge4" class="edge"><title>Connectortype&#45;&gt;Cabletype</title>
<path fill="none" stroke="#654888" d="M636.688,-410.425C636.688,-384.848 636.688,-345.292 636.688,-319.029"/>
<ellipse fill="none" stroke="#654888" cx="636.688" cy="-414.475" rx="4" ry="4"/>
<polygon fill="#654888" stroke="#654888" points="636.688,-319.003 641.188,-309.003 636.688,-314.003 636.688,-309.003 636.688,-309.003 636.688,-309.003 636.688,-314.003 632.188,-309.003 636.688,-319.003 636.688,-319.003"/>
</g>
<!-- Porttype -->
<g id="node14" class="node"><title>Porttype</title>
<ellipse fill="none" stroke="black" cx="560.688" cy="-345" rx="40.149" ry="18"/>
<text text-anchor="middle" x="560.688" y="-340.8" font-family="Times,serif" font-size="14.00">Porttype</text>
</g>
<!-- Connectortype&#45;&gt;Porttype -->
<g id="edge3" class="edge"><title>Connectortype&#45;&gt;Porttype</title>
<path fill="none" stroke="#df11db" d="M616.937,-412.24C605.874,-399.213 592.106,-382.999 580.96,-369.873"/>
<ellipse fill="none" stroke="#df11db" cx="619.804" cy="-415.617" rx="4.00002" ry="4.00002"/>
<polygon fill="#df11db" stroke="#df11db" points="580.88,-369.779 577.837,-359.243 577.643,-365.967 574.407,-362.156 574.407,-362.156 574.407,-362.156 577.643,-365.967 570.977,-365.069 580.88,-369.779 580.88,-369.779"/>
</g>
<!-- Contact -->
<g id="node6" class="node"><title>Contact</title>
<ellipse fill="none" stroke="black" cx="754.688" cy="-436.5" rx="37.7266" ry="18"/>
<text text-anchor="middle" x="754.688" y="-432.3" font-family="Times,serif" font-size="14.00">Contact</text>
</g>
<!-- Port -->
<g id="node13" class="node"><title>Port</title>
<ellipse fill="none" stroke="black" cx="548.688" cy="-237" rx="27" ry="18"/>
<text text-anchor="middle" x="548.688" y="-232.8" font-family="Times,serif" font-size="14.00">Port</text>
</g>
<!-- Device&#45;&gt;Port -->
<g id="edge5" class="edge"><title>Device&#45;&gt;Port</title>
<path fill="none" stroke="#d402cd" d="M446.605,-323.879C469.029,-305.014 502.372,-276.964 524.789,-258.105"/>
<ellipse fill="none" stroke="#d402cd" cx="443.268" cy="-326.686" rx="4.00002" ry="4.00002"/>
<polygon fill="#d402cd" stroke="#d402cd" points="524.861,-258.045 535.41,-255.05 528.687,-254.826 532.514,-251.607 532.514,-251.607 532.514,-251.607 528.687,-254.826 529.617,-248.163 524.861,-258.045 524.861,-258.045"/>
</g>
<!-- Devicetype -->
<g id="node8" class="node"><title>Devicetype</title>
<ellipse fill="none" stroke="black" cx="275.688" cy="-436.5" rx="50.2465" ry="18"/>
<text text-anchor="middle" x="275.688" y="-432.3" font-family="Times,serif" font-size="14.00">Devicetype</text>
</g>
<!-- Devicetype&#45;&gt;Device -->
<g id="edge6" class="edge"><title>Devicetype&#45;&gt;Device</title>
<path fill="none" stroke="#11cdd1" d="M306.843,-416.531C331.964,-401.236 367.101,-379.844 392.075,-364.638"/>
<ellipse fill="none" stroke="#11cdd1" cx="303.378" cy="-418.641" rx="4.00002" ry="4.00002"/>
<polygon fill="#11cdd1" stroke="#11cdd1" points="392.238,-364.539 403.12,-363.182 396.509,-361.939 400.78,-359.339 400.78,-359.339 400.78,-359.339 396.509,-361.939 398.439,-355.495 392.238,-364.539 392.238,-364.539"/>
</g>
<!-- Interface -->
<g id="node9" class="node"><title>Interface</title>
<ellipse fill="none" stroke="black" cx="526.688" cy="-164" rx="41.542" ry="18"/>
<text text-anchor="middle" x="526.688" y="-159.8" font-family="Times,serif" font-size="14.00">Interface</text>
</g>
<!-- Ipaddress -->
<g id="node10" class="node"><title>Ipaddress</title>
<ellipse fill="none" stroke="black" cx="647.688" cy="-18" rx="43.9905" ry="18"/>
<text text-anchor="middle" x="647.688" y="-13.8" font-family="Times,serif" font-size="14.00">Ipaddress</text>
</g>
<!-- Interface&#45;&gt;Ipaddress -->
<g id="edge7" class="edge"><title>Interface&#45;&gt;Ipaddress</title>
<path fill="none" stroke="#e8cc3e" d="M565.259,-149.352C569.1,-148.154 572.958,-147.013 576.688,-146 655.504,-124.591 705.077,-172.299 756.688,-109 766.799,-96.5995 765.124,-86.5949 756.688,-73 743.241,-51.3325 718.229,-38.0912 695.554,-30.1479"/>
<ellipse fill="none" stroke="#e8cc3e" cx="561.248" cy="-150.644" rx="4.00001" ry="4.00001"/>
<polygon fill="#e8cc3e" stroke="#e8cc3e" points="695.532,-30.141 687.406,-22.7779 690.776,-28.5999 686.019,-27.0588 686.019,-27.0588 686.019,-27.0588 690.776,-28.5999 684.632,-31.3397 695.532,-30.141 695.532,-30.141"/>
</g>
<!-- Vifmember -->
<g id="node15" class="node"><title>Vifmember</title>
<ellipse fill="none" stroke="black" cx="456.688" cy="-18" rx="50.1862" ry="18"/>
<text text-anchor="middle" x="456.688" y="-13.8" font-family="Times,serif" font-size="14.00">Vifmember</text>
</g>
<!-- Interface&#45;&gt;Vifmember -->
<g id="edge8" class="edge"><title>Interface&#45;&gt;Vifmember</title>
<path fill="none" stroke="#19ec1c" d="M490.874,-146.684C475.894,-137.833 460.048,-125.322 451.688,-109 441.741,-89.5822 444.111,-64.6221 448.333,-45.915"/>
<ellipse fill="none" stroke="#19ec1c" cx="494.63" cy="-148.783" rx="4.00002" ry="4.00002"/>
<polygon fill="#19ec1c" stroke="#19ec1c" points="448.397,-45.6643 455.236,-37.0929 449.637,-40.8205 450.877,-35.9767 450.877,-35.9767 450.877,-35.9767 449.637,-40.8205 446.518,-34.8606 448.397,-45.6643 448.397,-45.6643"/>
</g>
<!-- Virtualinterface -->
<g id="node16" class="node"><title>Virtualinterface</title>
<ellipse fill="none" stroke="black" cx="526.688" cy="-91" rx="65.6111" ry="18"/>
<text text-anchor="middle" x="526.688" y="-86.8" font-family="Times,serif" font-size="14.00">Virtualinterface</text>
</g>
<!-- Interface&#45;&gt;Virtualinterface -->
<g id="edge9" class="edge"><title>Interface&#45;&gt;Virtualinterface</title>
<path fill="none" stroke="#ae07f3" d="M526.688,-135.753C526.688,-130.276 526.688,-124.521 526.688,-119.051"/>
<polygon fill="#ae07f3" stroke="#ae07f3" points="526.688,-135.813 522.188,-145.813 526.688,-140.813 526.688,-145.813 526.688,-145.813 526.688,-145.813 526.688,-140.813 531.188,-145.813 526.688,-135.813 526.688,-135.813"/>
<polygon fill="#ae07f3" stroke="#ae07f3" points="526.688,-119.029 531.188,-109.029 526.688,-114.029 526.688,-109.029 526.688,-109.029 526.688,-109.029 526.688,-114.029 522.188,-109.029 526.688,-119.029 526.688,-119.029"/>
</g>
<!-- Iprange -->
<g id="node11" class="node"><title>Iprange</title>
<ellipse fill="none" stroke="black" cx="647.688" cy="-91" rx="37.2248" ry="18"/>
<text text-anchor="middle" x="647.688" y="-86.8" font-family="Times,serif" font-size="14.00">Iprange</text>
</g>
<!-- Iprange&#45;&gt;Ipaddress -->
<g id="edge11" class="edge"><title>Iprange&#45;&gt;Ipaddress</title>
<path fill="none" stroke="#93cb4e" d="M647.688,-64.791C647.688,-58.832 647.688,-52.4496 647.688,-46.3988"/>
<ellipse fill="none" stroke="#93cb4e" cx="647.688" cy="-68.8129" rx="4" ry="4"/>
<polygon fill="#93cb4e" stroke="#93cb4e" points="647.688,-46.0288 652.188,-36.0288 647.688,-41.0288 647.688,-36.0288 647.688,-36.0288 647.688,-36.0288 647.688,-41.0288 643.188,-36.0289 647.688,-46.0288 647.688,-46.0288"/>
</g>
<!-- Iprange&#45;&gt;Iprange -->
<g id="edge10" class="edge"><title>Iprange&#45;&gt;Iprange</title>
<path fill="none" stroke="#358e56" d="M690.206,-97.3281C697.633,-96.4844 702.8,-94.375 702.8,-91 702.8,-87.9766 698.654,-85.9688 692.45,-84.9767"/>
<ellipse fill="none" stroke="#358e56" cx="686.127" cy="-97.5412" rx="4" ry="4"/>
<polygon fill="#358e56" stroke="#358e56" points="692.108,-84.9527 682.449,-79.7611 687.121,-84.6014 682.133,-84.25 682.133,-84.25 682.133,-84.25 687.121,-84.6014 681.817,-88.7389 692.108,-84.9527 692.108,-84.9527"/>
<text text-anchor="middle" x="725.735" y="-86.8" font-family="Times,serif" font-size="14.00">children</text>
</g>
<!-- Location -->
<g id="node12" class="node"><title>Location</title>
<ellipse fill="none" stroke="black" cx="385.688" cy="-436.5" rx="41.5766" ry="18"/>
<text text-anchor="middle" x="385.688" y="-432.3" font-family="Times,serif" font-size="14.00">Location</text>
</g>
<!-- Location&#45;&gt;Device -->
<g id="edge13" class="edge"><title>Location&#45;&gt;Device</title>
<path fill="none" stroke="#583f1b" d="M395.788,-411.068C400.79,-398.97 406.831,-384.356 411.92,-372.046"/>
<ellipse fill="none" stroke="#583f1b" cx="394.175" cy="-414.969" rx="4.00001" ry="4.00001"/>
<polygon fill="#583f1b" stroke="#583f1b" points="411.939,-372 419.918,-364.478 413.849,-367.379 415.76,-362.759 415.76,-362.759 415.76,-362.759 413.849,-367.379 411.601,-361.04 411.939,-372 411.939,-372"/>
</g>
<!-- Location&#45;&gt;Location -->
<g id="edge12" class="edge"><title>Location&#45;&gt;Location</title>
<path fill="none" stroke="#5678bd" d="M428.476,-446.38C438.148,-445.494 445.226,-442.201 445.226,-436.5 445.226,-430.799 438.148,-427.506 428.476,-426.62"/>
<ellipse fill="none" stroke="#5678bd" cx="424.247" cy="-446.48" rx="4" ry="4"/>
<ellipse fill="#5678bd" stroke="#5678bd" cx="424.247" cy="-426.52" rx="4" ry="4"/>
<text text-anchor="middle" x="462.716" y="-432.3" font-family="Times,serif" font-size="14.00">parent</text>
</g>
<!-- Port&#45;&gt;Connection -->
<g id="edge15" class="edge"><title>Port&#45;&gt;Connection</title>
<path fill="none" stroke="#67ccd3" d="M571.827,-217.331C583.834,-207.643 598.538,-195.78 610.908,-185.8"/>
<ellipse fill="none" stroke="#67ccd3" cx="568.353" cy="-220.134" rx="4.00002" ry="4.00002"/>
<ellipse fill="#67ccd3" stroke="#67ccd3" cx="614.024" cy="-183.285" rx="4.00002" ry="4.00002"/>
</g>
<!-- Port&#45;&gt;Interface -->
<g id="edge14" class="edge"><title>Port&#45;&gt;Interface</title>
<path fill="none" stroke="#99590d" d="M541.075,-211.432C539.116,-205.109 536.998,-198.273 535.005,-191.841"/>
<ellipse fill="none" stroke="#99590d" cx="542.29" cy="-215.353" rx="4.00001" ry="4.00001"/>
<polygon fill="#99590d" stroke="#99590d" points="534.977,-191.75 536.315,-180.867 533.497,-186.974 532.017,-182.198 532.017,-182.198 532.017,-182.198 533.497,-186.974 527.718,-183.53 534.977,-191.75 534.977,-191.75"/>
</g>
<!-- Porttype&#45;&gt;Port -->
<g id="edge16" class="edge"><title>Porttype&#45;&gt;Port</title>
<path fill="none" stroke="#f1d78a" d="M557.858,-319.008C556.026,-302.823 553.64,-281.748 551.762,-265.152"/>
<ellipse fill="none" stroke="#f1d78a" cx="558.31" cy="-322.995" rx="4.00001" ry="4.00001"/>
<polygon fill="#f1d78a" stroke="#f1d78a" points="551.736,-264.925 555.082,-254.482 551.173,-259.957 550.611,-254.988 550.611,-254.988 550.611,-254.988 551.173,-259.957 546.14,-255.495 551.736,-264.925 551.736,-264.925"/>
</g>
<!-- Virtualinterface&#45;&gt;Ipaddress -->
<g id="edge17" class="edge"><title>Virtualinterface&#45;&gt;Ipaddress</title>
<path fill="none" stroke="#5074dd" d="M560.403,-70.2166C577.367,-60.2627 597.851,-48.2432 614.711,-38.3503"/>
<ellipse fill="none" stroke="#5074dd" cx="556.692" cy="-72.3944" rx="4.00002" ry="4.00002"/>
<polygon fill="#5074dd" stroke="#5074dd" points="615.034,-38.1605 625.936,-36.9808 619.346,-35.63 623.659,-33.0996 623.659,-33.0996 623.659,-33.0996 619.346,-35.63 621.381,-29.2184 615.034,-38.1605 615.034,-38.1605"/>
</g>
<!-- Virtualinterface&#45;&gt;Vifmember -->
<g id="edge18" class="edge"><title>Virtualinterface&#45;&gt;Vifmember</title>
<path fill="none" stroke="#08afa3" d="M504.62,-67.6166C496.892,-59.7784 488.185,-50.9475 480.334,-42.9838"/>
<ellipse fill="none" stroke="#08afa3" cx="507.644" cy="-70.6843" rx="4.00002" ry="4.00002"/>
<polygon fill="#08afa3" stroke="#08afa3" points="479.856,-42.499 476.04,-32.2186 476.345,-38.9385 472.835,-35.378 472.835,-35.378 472.835,-35.378 476.345,-38.9385 469.631,-38.5373 479.856,-42.499 479.856,-42.499"/>
</g>
</g>
</svg>
