<?xml version="1.0" encoding="UTF-8" standalone="no"?>
<!DOCTYPE svg PUBLIC "-//W3C//DTD SVG 1.1//EN"
 "http://www.w3.org/Graphics/SVG/1.1/DTD/svg11.dtd">
<!-- Generated by graphviz version 2.38.0 (20140413.2041)
 -->
<!-- Title: models_diagram Pages: 1 -->
<svg width="1086pt" height="901pt"
 viewBox="0.00 0.00 1086.06 901.00" xmlns="http://www.w3.org/2000/svg" xmlns:xlink="http://www.w3.org/1999/xlink">
<g id="graph0" class="graph" transform="scale(1 1) rotate(0) translate(4 897)">
<title>models_diagram</title>
<polygon fill="white" stroke="none" points="-4,4 -4,-897 1082.06,-897 1082.06,4 -4,4"/>
<!-- _diagram_info -->
<g id="node1" class="node"><title>_diagram_info</title>
<text text-anchor="start" x="8" y="-857.6" font-family="Times,serif" font-size="13.00">Models diagram</text>
<text text-anchor="start" x="8" y="-844.6" font-family="Times,serif" font-size="13.00">Date: Jun 23 2015 &#45; 16:23</text>
<text text-anchor="start" x="8" y="-831.6" font-family="Times,serif" font-size="13.00">Migration version: 20150623144500</text>
<text text-anchor="start" x="8" y="-818.6" font-family="Times,serif" font-size="13.00">Generated by RailRoady 1.3.0</text>
<text text-anchor="start" x="8" y="-805.6" font-family="Times,serif" font-size="13.00">http://railroady.prestonlee.com</text>
</g>
<!-- Asset -->
<g id="node2" class="node"><title>Asset</title>
<path fill="none" stroke="black" d="M591.182,-785.5C591.182,-785.5 700.193,-785.5 700.193,-785.5 706.193,-785.5 712.193,-791.5 712.193,-797.5 712.193,-797.5 712.193,-873.5 712.193,-873.5 712.193,-879.5 706.193,-885.5 700.193,-885.5 700.193,-885.5 591.182,-885.5 591.182,-885.5 585.182,-885.5 579.182,-879.5 579.182,-873.5 579.182,-873.5 579.182,-797.5 579.182,-797.5 579.182,-791.5 585.182,-785.5 591.182,-785.5"/>
<text text-anchor="middle" x="645.688" y="-870.3" font-family="Times,serif" font-size="14.00">Asset</text>
<polyline fill="none" stroke="black" points="579.182,-863.5 712.193,-863.5 "/>
<text text-anchor="start" x="587.182" y="-848.3" font-family="Times,serif" font-size="14.00">id :integer</text>
<text text-anchor="start" x="587.182" y="-834.3" font-family="Times,serif" font-size="14.00">serial :string</text>
<text text-anchor="start" x="587.182" y="-820.3" font-family="Times,serif" font-size="14.00">description :text</text>
<text text-anchor="start" x="587.182" y="-806.3" font-family="Times,serif" font-size="14.00">created_at :datetime</text>
<text text-anchor="start" x="587.182" y="-792.3" font-family="Times,serif" font-size="14.00">updated_at :datetime</text>
</g>
<!-- Device -->
<g id="node7" class="node"><title>Device</title>
<path fill="none" stroke="black" d="M414.296,-598.5C414.296,-598.5 531.079,-598.5 531.079,-598.5 537.079,-598.5 543.079,-604.5 543.079,-610.5 543.079,-610.5 543.079,-728.5 543.079,-728.5 543.079,-734.5 537.079,-740.5 531.079,-740.5 531.079,-740.5 414.296,-740.5 414.296,-740.5 408.296,-740.5 402.296,-734.5 402.296,-728.5 402.296,-728.5 402.296,-610.5 402.296,-610.5 402.296,-604.5 408.296,-598.5 414.296,-598.5"/>
<text text-anchor="middle" x="472.688" y="-725.3" font-family="Times,serif" font-size="14.00">Device</text>
<polyline fill="none" stroke="black" points="402.296,-718.5 543.079,-718.5 "/>
<text text-anchor="start" x="410.296" y="-703.3" font-family="Times,serif" font-size="14.00">id :integer</text>
<text text-anchor="start" x="410.296" y="-689.3" font-family="Times,serif" font-size="14.00">name :string</text>
<text text-anchor="start" x="410.296" y="-675.3" font-family="Times,serif" font-size="14.00">description :text</text>
<text text-anchor="start" x="410.296" y="-661.3" font-family="Times,serif" font-size="14.00">devicetype_id :integer</text>
<text text-anchor="start" x="410.296" y="-647.3" font-family="Times,serif" font-size="14.00">asset_id :integer</text>
<text text-anchor="start" x="410.296" y="-633.3" font-family="Times,serif" font-size="14.00">location_id :integer</text>
<text text-anchor="start" x="410.296" y="-619.3" font-family="Times,serif" font-size="14.00">created_at :datetime</text>
<text text-anchor="start" x="410.296" y="-605.3" font-family="Times,serif" font-size="14.00">updated_at :datetime</text>
</g>
<!-- Asset&#45;&gt;Device -->
<g id="edge1" class="edge"><title>Asset&#45;&gt;Device</title>
<path fill="none" stroke="#a23c2f" d="M587.728,-779.555C575.322,-767.795 562.033,-755.197 549.054,-742.893"/>
<ellipse fill="none" stroke="#a23c2f" cx="590.879" cy="-782.543" rx="4.00002" ry="4.00002"/>
<ellipse fill="#a23c2f" stroke="#a23c2f" cx="546.019" cy="-740.016" rx="4.00002" ry="4.00002"/>
</g>
<!-- Cabletype -->
<g id="node3" class="node"><title>Cabletype</title>
<path fill="none" stroke="black" d="M742.182,-465.5C742.182,-465.5 851.193,-465.5 851.193,-465.5 857.193,-465.5 863.193,-471.5 863.193,-477.5 863.193,-477.5 863.193,-567.5 863.193,-567.5 863.193,-573.5 857.193,-579.5 851.193,-579.5 851.193,-579.5 742.182,-579.5 742.182,-579.5 736.182,-579.5 730.182,-573.5 730.182,-567.5 730.182,-567.5 730.182,-477.5 730.182,-477.5 730.182,-471.5 736.182,-465.5 742.182,-465.5"/>
<text text-anchor="middle" x="796.688" y="-564.3" font-family="Times,serif" font-size="14.00">Cabletype</text>
<polyline fill="none" stroke="black" points="730.182,-557.5 863.193,-557.5 "/>
<text text-anchor="start" x="738.182" y="-542.3" font-family="Times,serif" font-size="14.00">id :integer</text>
<text text-anchor="start" x="738.182" y="-528.3" font-family="Times,serif" font-size="14.00">name :string</text>
<text text-anchor="start" x="738.182" y="-514.3" font-family="Times,serif" font-size="14.00">conn1_id :integer</text>
<text text-anchor="start" x="738.182" y="-500.3" font-family="Times,serif" font-size="14.00">conn2_id :integer</text>
<text text-anchor="start" x="738.182" y="-486.3" font-family="Times,serif" font-size="14.00">created_at :datetime</text>
<text text-anchor="start" x="738.182" y="-472.3" font-family="Times,serif" font-size="14.00">updated_at :datetime</text>
</g>
<!-- Connection -->
<g id="node4" class="node"><title>Connection</title>
<path fill="none" stroke="black" d="M741.796,-166.5C741.796,-166.5 851.579,-166.5 851.579,-166.5 857.579,-166.5 863.579,-172.5 863.579,-178.5 863.579,-178.5 863.579,-268.5 863.579,-268.5 863.579,-274.5 857.579,-280.5 851.579,-280.5 851.579,-280.5 741.796,-280.5 741.796,-280.5 735.796,-280.5 729.796,-274.5 729.796,-268.5 729.796,-268.5 729.796,-178.5 729.796,-178.5 729.796,-172.5 735.796,-166.5 741.796,-166.5"/>
<text text-anchor="middle" x="796.688" y="-265.3" font-family="Times,serif" font-size="14.00">Connection</text>
<polyline fill="none" stroke="black" points="729.796,-258.5 863.579,-258.5 "/>
<text text-anchor="start" x="737.796" y="-243.3" font-family="Times,serif" font-size="14.00">id :integer</text>
<text text-anchor="start" x="737.796" y="-229.3" font-family="Times,serif" font-size="14.00">porta_id :integer</text>
<text text-anchor="start" x="737.796" y="-215.3" font-family="Times,serif" font-size="14.00">portb_id :integer</text>
<text text-anchor="start" x="737.796" y="-201.3" font-family="Times,serif" font-size="14.00">cabletype_id :integer</text>
<text text-anchor="start" x="737.796" y="-187.3" font-family="Times,serif" font-size="14.00">created_at :datetime</text>
<text text-anchor="start" x="737.796" y="-173.3" font-family="Times,serif" font-size="14.00">updated_at :datetime</text>
</g>
<!-- Cabletype&#45;&gt;Connection -->
<g id="edge2" class="edge"><title>Cabletype&#45;&gt;Connection</title>
<path fill="none" stroke="#ae98d7" d="M796.688,-457.037C796.688,-407.956 796.688,-340.617 796.688,-291.033"/>
<ellipse fill="none" stroke="#ae98d7" cx="796.688" cy="-461.287" rx="4" ry="4"/>
<polygon fill="#ae98d7" stroke="#ae98d7" points="796.688,-290.735 801.188,-280.735 796.688,-285.735 796.688,-280.735 796.688,-280.735 796.688,-280.735 796.688,-285.735 792.188,-280.735 796.688,-290.735 796.688,-290.735"/>
</g>
<!-- Connectortype -->
<g id="node5" class="node"><title>Connectortype</title>
<path fill="none" stroke="black" d="M742.182,-792.5C742.182,-792.5 851.193,-792.5 851.193,-792.5 857.193,-792.5 863.193,-798.5 863.193,-804.5 863.193,-804.5 863.193,-866.5 863.193,-866.5 863.193,-872.5 857.193,-878.5 851.193,-878.5 851.193,-878.5 742.182,-878.5 742.182,-878.5 736.182,-878.5 730.182,-872.5 730.182,-866.5 730.182,-866.5 730.182,-804.5 730.182,-804.5 730.182,-798.5 736.182,-792.5 742.182,-792.5"/>
<text text-anchor="middle" x="796.688" y="-863.3" font-family="Times,serif" font-size="14.00">Connectortype</text>
<polyline fill="none" stroke="black" points="730.182,-856.5 863.193,-856.5 "/>
<text text-anchor="start" x="738.182" y="-841.3" font-family="Times,serif" font-size="14.00">id :integer</text>
<text text-anchor="start" x="738.182" y="-827.3" font-family="Times,serif" font-size="14.00">name :string</text>
<text text-anchor="start" x="738.182" y="-813.3" font-family="Times,serif" font-size="14.00">created_at :datetime</text>
<text text-anchor="start" x="738.182" y="-799.3" font-family="Times,serif" font-size="14.00">updated_at :datetime</text>
</g>
<!-- Connectortype&#45;&gt;Cabletype -->
<g id="edge4" class="edge"><title>Connectortype&#45;&gt;Cabletype</title>
<path fill="none" stroke="#eb4bc9" d="M796.688,-784.227C796.688,-731.389 796.688,-648.016 796.688,-589.819"/>
<ellipse fill="none" stroke="#eb4bc9" cx="796.688" cy="-788.233" rx="4" ry="4"/>
<polygon fill="#eb4bc9" stroke="#eb4bc9" points="796.688,-589.621 801.188,-579.621 796.688,-584.621 796.688,-579.621 796.688,-579.621 796.688,-579.621 796.688,-584.621 792.188,-579.621 796.688,-589.621 796.688,-589.621"/>
</g>
<!-- Porttype -->
<g id="node14" class="node"><title>Porttype</title>
<path fill="none" stroke="black" d="M611.965,-619.5C611.965,-619.5 747.41,-619.5 747.41,-619.5 753.41,-619.5 759.41,-625.5 759.41,-631.5 759.41,-631.5 759.41,-707.5 759.41,-707.5 759.41,-713.5 753.41,-719.5 747.41,-719.5 747.41,-719.5 611.965,-719.5 611.965,-719.5 605.965,-719.5 599.965,-713.5 599.965,-707.5 599.965,-707.5 599.965,-631.5 599.965,-631.5 599.965,-625.5 605.965,-619.5 611.965,-619.5"/>
<text text-anchor="middle" x="679.688" y="-704.3" font-family="Times,serif" font-size="14.00">Porttype</text>
<polyline fill="none" stroke="black" points="599.965,-697.5 759.41,-697.5 "/>
<text text-anchor="start" x="607.965" y="-682.3" font-family="Times,serif" font-size="14.00">id :integer</text>
<text text-anchor="start" x="607.965" y="-668.3" font-family="Times,serif" font-size="14.00">name :string</text>
<text text-anchor="start" x="607.965" y="-654.3" font-family="Times,serif" font-size="14.00">connectortype_id :integer</text>
<text text-anchor="start" x="607.965" y="-640.3" font-family="Times,serif" font-size="14.00">created_at :datetime</text>
<text text-anchor="start" x="607.965" y="-626.3" font-family="Times,serif" font-size="14.00">updated_at :datetime</text>
</g>
<!-- Connectortype&#45;&gt;Porttype -->
<g id="edge3" class="edge"><title>Connectortype&#45;&gt;Porttype</title>
<path fill="none" stroke="#ed2a7f" d="M761.817,-785.621C748.851,-767.447 734.024,-746.663 720.568,-727.802"/>
<ellipse fill="none" stroke="#ed2a7f" cx="764.234" cy="-789.01" rx="4.00002" ry="4.00002"/>
<polygon fill="#ed2a7f" stroke="#ed2a7f" points="720.503,-727.711 718.358,-716.957 717.599,-723.64 714.695,-719.57 714.695,-719.57 714.695,-719.57 717.599,-723.64 711.032,-722.183 720.503,-727.711 720.503,-727.711"/>
</g>
<!-- Contact -->
<g id="node6" class="node"><title>Contact</title>
<path fill="none" stroke="black" d="M893.182,-778.5C893.182,-778.5 1002.19,-778.5 1002.19,-778.5 1008.19,-778.5 1014.19,-784.5 1014.19,-790.5 1014.19,-790.5 1014.19,-880.5 1014.19,-880.5 1014.19,-886.5 1008.19,-892.5 1002.19,-892.5 1002.19,-892.5 893.182,-892.5 893.182,-892.5 887.182,-892.5 881.182,-886.5 881.182,-880.5 881.182,-880.5 881.182,-790.5 881.182,-790.5 881.182,-784.5 887.182,-778.5 893.182,-778.5"/>
<text text-anchor="middle" x="947.688" y="-877.3" font-family="Times,serif" font-size="14.00">Contact</text>
<polyline fill="none" stroke="black" points="881.182,-870.5 1014.19,-870.5 "/>
<text text-anchor="start" x="889.182" y="-855.3" font-family="Times,serif" font-size="14.00">id :integer</text>
<text text-anchor="start" x="889.182" y="-841.3" font-family="Times,serif" font-size="14.00">name :string</text>
<text text-anchor="start" x="889.182" y="-827.3" font-family="Times,serif" font-size="14.00">email :string</text>
<text text-anchor="start" x="889.182" y="-813.3" font-family="Times,serif" font-size="14.00">phone :string</text>
<text text-anchor="start" x="889.182" y="-799.3" font-family="Times,serif" font-size="14.00">created_at :datetime</text>
<text text-anchor="start" x="889.182" y="-785.3" font-family="Times,serif" font-size="14.00">updated_at :datetime</text>
</g>
<!-- Port -->
<g id="node13" class="node"><title>Port</title>
<path fill="none" stroke="black" d="M613.182,-332.5C613.182,-332.5 722.193,-332.5 722.193,-332.5 728.193,-332.5 734.193,-338.5 734.193,-344.5 734.193,-344.5 734.193,-434.5 734.193,-434.5 734.193,-440.5 728.193,-446.5 722.193,-446.5 722.193,-446.5 613.182,-446.5 613.182,-446.5 607.182,-446.5 601.182,-440.5 601.182,-434.5 601.182,-434.5 601.182,-344.5 601.182,-344.5 601.182,-338.5 607.182,-332.5 613.182,-332.5"/>
<text text-anchor="middle" x="667.688" y="-431.3" font-family="Times,serif" font-size="14.00">Port</text>
<polyline fill="none" stroke="black" points="601.182,-424.5 734.193,-424.5 "/>
<text text-anchor="start" x="609.182" y="-409.3" font-family="Times,serif" font-size="14.00">id :integer</text>
<text text-anchor="start" x="609.182" y="-395.3" font-family="Times,serif" font-size="14.00">name :string</text>
<text text-anchor="start" x="609.182" y="-381.3" font-family="Times,serif" font-size="14.00">porttype_id :integer</text>
<text text-anchor="start" x="609.182" y="-367.3" font-family="Times,serif" font-size="14.00">device_id :integer</text>
<text text-anchor="start" x="609.182" y="-353.3" font-family="Times,serif" font-size="14.00">created_at :datetime</text>
<text text-anchor="start" x="609.182" y="-339.3" font-family="Times,serif" font-size="14.00">updated_at :datetime</text>
</g>
<!-- Device&#45;&gt;Port -->
<g id="edge5" class="edge"><title>Device&#45;&gt;Port</title>
<path fill="none" stroke="#754ab0" d="M526.59,-591.655C556.747,-548.662 593.911,-495.678 622.527,-454.883"/>
<ellipse fill="none" stroke="#754ab0" cx="524.192" cy="-595.074" rx="4.00002" ry="4.00002"/>
<polygon fill="#754ab0" stroke="#754ab0" points="622.572,-454.819 631.999,-449.216 625.443,-450.725 628.315,-446.632 628.315,-446.632 628.315,-446.632 625.443,-450.725 624.631,-444.048 622.572,-454.819 622.572,-454.819"/>
</g>
<!-- Devicetype -->
<g id="node8" class="node"><title>Devicetype</title>
<path fill="none" stroke="black" d="M237.182,-792.5C237.182,-792.5 346.193,-792.5 346.193,-792.5 352.193,-792.5 358.193,-798.5 358.193,-804.5 358.193,-804.5 358.193,-866.5 358.193,-866.5 358.193,-872.5 352.193,-878.5 346.193,-878.5 346.193,-878.5 237.182,-878.5 237.182,-878.5 231.182,-878.5 225.182,-872.5 225.182,-866.5 225.182,-866.5 225.182,-804.5 225.182,-804.5 225.182,-798.5 231.182,-792.5 237.182,-792.5"/>
<text text-anchor="middle" x="291.688" y="-863.3" font-family="Times,serif" font-size="14.00">Devicetype</text>
<polyline fill="none" stroke="black" points="225.182,-856.5 358.193,-856.5 "/>
<text text-anchor="start" x="233.182" y="-841.3" font-family="Times,serif" font-size="14.00">id :integer</text>
<text text-anchor="start" x="233.182" y="-827.3" font-family="Times,serif" font-size="14.00">name :string</text>
<text text-anchor="start" x="233.182" y="-813.3" font-family="Times,serif" font-size="14.00">created_at :datetime</text>
<text text-anchor="start" x="233.182" y="-799.3" font-family="Times,serif" font-size="14.00">updated_at :datetime</text>
</g>
<!-- Devicetype&#45;&gt;Device -->
<g id="edge6" class="edge"><title>Devicetype&#45;&gt;Device</title>
<path fill="none" stroke="#72710c" d="M344.308,-786.822C359.925,-772.672 377.379,-756.857 394.261,-741.561"/>
<ellipse fill="none" stroke="#72710c" cx="341.264" cy="-789.58" rx="4.00002" ry="4.00002"/>
<polygon fill="#72710c" stroke="#72710c" points="394.559,-741.291 404.991,-737.911 398.264,-737.934 401.969,-734.576 401.969,-734.576 401.969,-734.576 398.264,-737.934 398.948,-731.242 394.559,-741.291 394.559,-741.291"/>
</g>
<!-- Interface -->
<g id="node9" class="node"><title>Interface</title>
<path fill="none" stroke="black" d="M591.182,-173.5C591.182,-173.5 700.193,-173.5 700.193,-173.5 706.193,-173.5 712.193,-179.5 712.193,-185.5 712.193,-185.5 712.193,-261.5 712.193,-261.5 712.193,-267.5 706.193,-273.5 700.193,-273.5 700.193,-273.5 591.182,-273.5 591.182,-273.5 585.182,-273.5 579.182,-267.5 579.182,-261.5 579.182,-261.5 579.182,-185.5 579.182,-185.5 579.182,-179.5 585.182,-173.5 591.182,-173.5"/>
<text text-anchor="middle" x="645.688" y="-258.3" font-family="Times,serif" font-size="14.00">Interface</text>
<polyline fill="none" stroke="black" points="579.182,-251.5 712.193,-251.5 "/>
<text text-anchor="start" x="587.182" y="-236.3" font-family="Times,serif" font-size="14.00">id :integer</text>
<text text-anchor="start" x="587.182" y="-222.3" font-family="Times,serif" font-size="14.00">name :string</text>
<text text-anchor="start" x="587.182" y="-208.3" font-family="Times,serif" font-size="14.00">port_id :integer</text>
<text text-anchor="start" x="587.182" y="-194.3" font-family="Times,serif" font-size="14.00">created_at :datetime</text>
<text text-anchor="start" x="587.182" y="-180.3" font-family="Times,serif" font-size="14.00">updated_at :datetime</text>
</g>
<!-- Ipaddress -->
<g id="node10" class="node"><title>Ipaddress</title>
<path fill="none" stroke="black" d="M776.182,-0.5C776.182,-0.5 885.193,-0.5 885.193,-0.5 891.193,-0.5 897.193,-6.5 897.193,-12.5 897.193,-12.5 897.193,-102.5 897.193,-102.5 897.193,-108.5 891.193,-114.5 885.193,-114.5 885.193,-114.5 776.182,-114.5 776.182,-114.5 770.182,-114.5 764.182,-108.5 764.182,-102.5 764.182,-102.5 764.182,-12.5 764.182,-12.5 764.182,-6.5 770.182,-0.5 776.182,-0.5"/>
<text text-anchor="middle" x="830.688" y="-99.3" font-family="Times,serif" font-size="14.00">Ipaddress</text>
<polyline fill="none" stroke="black" points="764.182,-92.5 897.193,-92.5 "/>
<text text-anchor="start" x="772.182" y="-77.3" font-family="Times,serif" font-size="14.00">id :integer</text>
<text text-anchor="start" x="772.182" y="-63.3" font-family="Times,serif" font-size="14.00">address :string</text>
<text text-anchor="start" x="772.182" y="-49.3" font-family="Times,serif" font-size="14.00">parent_id :integer</text>
<text text-anchor="start" x="772.182" y="-35.3" font-family="Times,serif" font-size="14.00">interface_id :integer</text>
<text text-anchor="start" x="772.182" y="-21.3" font-family="Times,serif" font-size="14.00">created_at :datetime</text>
<text text-anchor="start" x="772.182" y="-7.3" font-family="Times,serif" font-size="14.00">updated_at :datetime</text>
</g>
<!-- Interface&#45;&gt;Ipaddress -->
<g id="edge7" class="edge"><title>Interface&#45;&gt;Ipaddress</title>
<path fill="none" stroke="#333a9c" d="M703.621,-167.504C709.353,-162.226 715.111,-156.986 720.688,-152 732.03,-141.86 744.179,-131.271 756.113,-121.017"/>
<ellipse fill="none" stroke="#333a9c" cx="700.36" cy="-170.52" rx="4.00002" ry="4.00002"/>
<polygon fill="#333a9c" stroke="#333a9c" points="756.319,-120.84 766.842,-117.753 760.117,-117.588 763.914,-114.335 763.914,-114.335 763.914,-114.335 760.117,-117.588 760.987,-110.917 756.319,-120.84 756.319,-120.84"/>
</g>
<!-- Iprange -->
<g id="node11" class="node"><title>Iprange</title>
<path fill="none" stroke="black" d="M893.182,-152.5C893.182,-152.5 1002.19,-152.5 1002.19,-152.5 1008.19,-152.5 1014.19,-158.5 1014.19,-164.5 1014.19,-164.5 1014.19,-282.5 1014.19,-282.5 1014.19,-288.5 1008.19,-294.5 1002.19,-294.5 1002.19,-294.5 893.182,-294.5 893.182,-294.5 887.182,-294.5 881.182,-288.5 881.182,-282.5 881.182,-282.5 881.182,-164.5 881.182,-164.5 881.182,-158.5 887.182,-152.5 893.182,-152.5"/>
<text text-anchor="middle" x="947.688" y="-279.3" font-family="Times,serif" font-size="14.00">Iprange</text>
<polyline fill="none" stroke="black" points="881.182,-272.5 1014.19,-272.5 "/>
<text text-anchor="start" x="889.182" y="-257.3" font-family="Times,serif" font-size="14.00">id :integer</text>
<text text-anchor="start" x="889.182" y="-243.3" font-family="Times,serif" font-size="14.00">name :string</text>
<text text-anchor="start" x="889.182" y="-229.3" font-family="Times,serif" font-size="14.00">description :string</text>
<text text-anchor="start" x="889.182" y="-215.3" font-family="Times,serif" font-size="14.00">address :string</text>
<text text-anchor="start" x="889.182" y="-201.3" font-family="Times,serif" font-size="14.00">prefix :integer</text>
<text text-anchor="start" x="889.182" y="-187.3" font-family="Times,serif" font-size="14.00">parent_id :integer</text>
<text text-anchor="start" x="889.182" y="-173.3" font-family="Times,serif" font-size="14.00">created_at :datetime</text>
<text text-anchor="start" x="889.182" y="-159.3" font-family="Times,serif" font-size="14.00">updated_at :datetime</text>
</g>
<!-- Iprange&#45;&gt;Ipaddress -->
<g id="edge9" class="edge"><title>Iprange&#45;&gt;Ipaddress</title>
<path fill="none" stroke="#fe5df9" d="M893.066,-145.936C887.665,-138.365 882.219,-130.732 876.914,-123.296"/>
<ellipse fill="none" stroke="#fe5df9" cx="895.407" cy="-149.217" rx="4.00002" ry="4.00002"/>
<polygon fill="#fe5df9" stroke="#fe5df9" points="876.57,-122.814 874.426,-112.06 873.666,-118.744 870.763,-114.673 870.763,-114.673 870.763,-114.673 873.666,-118.744 867.099,-117.287 876.57,-122.814 876.57,-122.814"/>
</g>
<!-- Iprange&#45;&gt;Iprange -->
<g id="edge8" class="edge"><title>Iprange&#45;&gt;Iprange</title>
<path fill="none" stroke="#e23a73" d="M1021.97,-236.613C1028.27,-233.809 1032.19,-229.438 1032.19,-223.5 1032.19,-218.194 1029.06,-214.139 1023.9,-211.335"/>
<ellipse fill="none" stroke="#e23a73" cx="1018.1" cy="-237.836" rx="4.00001" ry="4.00001"/>
<polygon fill="#e23a73" stroke="#e23a73" points="1023.72,-211.273 1015.78,-203.714 1019.01,-209.616 1014.29,-207.96 1014.29,-207.96 1014.29,-207.96 1019.01,-209.616 1012.8,-212.206 1023.72,-211.273 1023.72,-211.273"/>
<text text-anchor="middle" x="1055.13" y="-219.3" font-family="Times,serif" font-size="14.00">children</text>
</g>
<!-- Location -->
<g id="node12" class="node"><title>Location</title>
<path fill="none" stroke="black" d="M388.182,-785.5C388.182,-785.5 497.193,-785.5 497.193,-785.5 503.193,-785.5 509.193,-791.5 509.193,-797.5 509.193,-797.5 509.193,-873.5 509.193,-873.5 509.193,-879.5 503.193,-885.5 497.193,-885.5 497.193,-885.5 388.182,-885.5 388.182,-885.5 382.182,-885.5 376.182,-879.5 376.182,-873.5 376.182,-873.5 376.182,-797.5 376.182,-797.5 376.182,-791.5 382.182,-785.5 388.182,-785.5"/>
<text text-anchor="middle" x="442.688" y="-870.3" font-family="Times,serif" font-size="14.00">Location</text>
<polyline fill="none" stroke="black" points="376.182,-863.5 509.193,-863.5 "/>
<text text-anchor="start" x="384.182" y="-848.3" font-family="Times,serif" font-size="14.00">id :integer</text>
<text text-anchor="start" x="384.182" y="-834.3" font-family="Times,serif" font-size="14.00">name :string</text>
<text text-anchor="start" x="384.182" y="-820.3" font-family="Times,serif" font-size="14.00">parent_id :integer</text>
<text text-anchor="start" x="384.182" y="-806.3" font-family="Times,serif" font-size="14.00">created_at :datetime</text>
<text text-anchor="start" x="384.182" y="-792.3" font-family="Times,serif" font-size="14.00">updated_at :datetime</text>
</g>
<!-- Location&#45;&gt;Device -->
<g id="edge11" class="edge"><title>Location&#45;&gt;Device</title>
<path fill="none" stroke="#dfaff4" d="M453.162,-777.238C454.735,-768.642 456.381,-759.645 458.021,-750.677"/>
<ellipse fill="none" stroke="#dfaff4" cx="452.409" cy="-781.36" rx="4.00001" ry="4.00001"/>
<polygon fill="#dfaff4" stroke="#dfaff4" points="458.067,-750.425 464.293,-741.398 458.967,-745.506 459.867,-740.588 459.867,-740.588 459.867,-740.588 458.967,-745.506 455.44,-739.778 458.067,-750.425 458.067,-750.425"/>
</g>
<!-- Location&#45;&gt;Location -->
<g id="edge10" class="edge"><title>Location&#45;&gt;Location</title>
<path fill="none" stroke="#897830" d="M517.373,-846.42C523.434,-844.048 527.193,-840.408 527.193,-835.5 527.193,-830.592 523.434,-826.952 517.373,-824.58"/>
<ellipse fill="none" stroke="#897830" cx="513.147" cy="-847.571" rx="4.00001" ry="4.00001"/>
<ellipse fill="#897830" stroke="#897830" cx="513.147" cy="-823.429" rx="4.00001" ry="4.00001"/>
<text text-anchor="middle" x="544.683" y="-831.3" font-family="Times,serif" font-size="14.00">parent</text>
</g>
<!-- Port&#45;&gt;Connection -->
<g id="edge13" class="edge"><title>Port&#45;&gt;Connection</title>
<path fill="none" stroke="#588092" d="M717.339,-325.378C727.18,-312.866 737.509,-299.735 747.34,-287.237"/>
<ellipse fill="none" stroke="#588092" cx="714.555" cy="-328.917" rx="4.00002" ry="4.00002"/>
<ellipse fill="#588092" stroke="#588092" cx="749.957" cy="-283.91" rx="4.00002" ry="4.00002"/>
</g>
<!-- Port&#45;&gt;Interface -->
<g id="edge12" class="edge"><title>Port&#45;&gt;Interface</title>
<path fill="none" stroke="#3cdf17" d="M659.027,-323.94C657.256,-310.735 655.4,-296.897 653.654,-283.883"/>
<ellipse fill="none" stroke="#3cdf17" cx="659.585" cy="-328.096" rx="4.00001" ry="4.00001"/>
<polygon fill="#3cdf17" stroke="#3cdf17" points="653.611,-283.563 656.741,-273.053 652.946,-278.607 652.281,-273.652 652.281,-273.652 652.281,-273.652 652.946,-278.607 647.821,-274.25 653.611,-283.563 653.611,-283.563"/>
</g>
<!-- Porttype&#45;&gt;Port -->
<g id="edge14" class="edge"><title>Porttype&#45;&gt;Port</title>
<path fill="none" stroke="#d48af2" d="M677.218,-611.291C675.281,-566.415 672.582,-503.884 670.55,-456.82"/>
<ellipse fill="none" stroke="#d48af2" cx="677.397" cy="-615.443" rx="4" ry="4"/>
<polygon fill="#d48af2" stroke="#d48af2" points="670.546,-456.714 674.61,-446.529 670.33,-451.719 670.115,-446.723 670.115,-446.723 670.115,-446.723 670.33,-451.719 665.619,-446.918 670.546,-456.714 670.546,-456.714"/>
</g>
</g>
</svg>
